<svg width="124" height="74" viewBox="0 0 124 74" fill="none" xmlns="http://www.w3.org/2000/svg">
<path fill-rule="evenodd" clip-rule="evenodd" d="M116.096 27.8065L103.741 14.1781L103.749 14.1732L92.0643 1.28584L62.9273 25.1164L62.7028 24.8669L62.6977 24.862L49.3649 10.159H49.3597C44.6412 4.95417 37.8484 1.47358 30.1036 0.949887C14.6089 -0.0975025 1.16522 11.0804 0.0713569 25.9143C-0.498794 33.624 2.38292 40.805 7.45494 46.0716L20.2743 60.2089L20.7206 60.7005L31.9559 73.0962L45.5725 61.8467L60.9614 49.1323L61.0517 49.2311L64.501 53.0353L74.1884 63.7216H74.1935C78.9095 68.9215 85.7023 72.4021 93.4497 72.9283C108.942 73.9756 122.388 62.7977 123.482 47.9638C124.052 40.2542 121.168 33.0706 116.096 27.8041V27.8065ZM49.2823 36.2795L33.7902 48.9495L32.0075 46.998L32.0179 46.9881L20.5091 34.2934C20.4833 34.2638 20.4549 34.2366 20.4291 34.207C18.7186 32.3197 17.7589 29.8099 17.955 27.1173C18.3523 21.7371 23.2283 17.6834 28.8498 18.0638C31.6593 18.2516 34.123 19.5188 35.8335 21.4036C35.8696 21.4456 35.9031 21.4827 35.9393 21.5222L47.3707 34.1279L49.1379 36.0794L49.3081 36.2573L49.2514 36.3017L49.2798 36.2795H49.2823ZM105.64 46.7929C105.242 52.1707 100.366 56.2268 94.7474 55.8464C91.9353 55.6587 89.4741 54.3914 87.7611 52.5066C87.7275 52.4671 87.6914 52.4301 87.6579 52.3881L74.7173 38.1149L79.0489 34.5059L90.1604 25.3585L103.088 39.6168C103.114 39.6465 103.14 39.6736 103.165 39.7033C104.879 41.5906 105.838 44.1028 105.64 46.7929Z" fill="#216DFF"/>
</svg>
