<svg width="84" height="55" viewBox="0 0 84 55" fill="none" xmlns="http://www.w3.org/2000/svg">
<path d="M0.5 0V50H43.5C42.6147 47.3109 42.1645 44.4977 42.1667 41.6667H17.1667C17.1667 39.4565 16.2887 37.3369 14.7259 35.7741C13.1631 34.2113 11.0435 33.3333 8.83333 33.3333V16.6667C13.4583 16.6667 17.1667 12.9583 17.1667 8.33333H58.8333C58.8333 10.5435 59.7113 12.6631 61.2741 14.2259C62.8369 15.7887 64.9565 16.6667 67.1667 16.6667V16.9167C69.9583 16.9167 72.75 17.4167 75.5 18.3333V0H0.5ZM38 12.5C30.9167 12.625 25.5 17.9167 25.5 25C25.5 32.0833 30.9167 37.25 38 37.5C39.5833 37.5 41.2083 37.1667 42.75 36.5417C43.875 31.9583 45.75 27.625 50.375 23.375C49.875 17.8333 44.625 12.375 38 12.5ZM78.125 26.125L62 42.375L56.375 36.6667L50.5 42.5833L61.9583 54.1667L83.9583 32L78.125 26.125Z" fill="#216DFF"/>
</svg>
