<svg width="74" height="46" viewBox="0 0 74 46" fill="none" xmlns="http://www.w3.org/2000/svg">
<path d="M57.9583 38.8333V45.1667H19.4583V38.8333C19.4583 38.8333 19.4583 26.1667 38.7083 26.1667C57.9583 26.1667 57.9583 38.8333 57.9583 38.8333ZM48.3333 10.3333C48.3333 8.45442 47.7688 6.6177 46.7112 5.05543C45.6536 3.49316 44.1504 2.27552 42.3916 1.55649C40.6329 0.83746 38.6976 0.649328 36.8306 1.01589C34.9635 1.38245 33.2485 2.28723 31.9024 3.61583C30.5563 4.94443 29.6396 6.63717 29.2683 8.47999C28.8969 10.3228 29.0875 12.2329 29.816 13.9688C30.5445 15.7047 31.7781 17.1884 33.361 18.2323C34.9438 19.2762 36.8047 19.8333 38.7083 19.8333C41.261 19.8333 43.7092 18.8325 45.5142 17.0509C47.3193 15.2693 48.3333 12.8529 48.3333 10.3333ZM58.6 26.3567C60.3538 27.9536 61.7677 29.8794 62.7592 32.0216C63.7507 34.1637 64.3 36.4794 64.375 38.8333V45.1667H74V38.8333C74 38.8333 74 27.9083 58.6 26.3567ZM54.75 0.833347C53.7806 0.83392 52.8173 0.983489 51.8946 1.27668C53.7716 3.93342 54.778 7.09443 54.778 10.3333C54.778 13.5723 53.7716 16.7333 51.8946 19.39C52.8173 19.6832 53.7806 19.8328 54.75 19.8333C57.3027 19.8333 59.7509 18.8325 61.5559 17.0509C63.3609 15.2693 64.375 12.8529 64.375 10.3333C64.375 7.81379 63.3609 5.39743 61.5559 3.61583C59.7509 1.83424 57.3027 0.833347 54.75 0.833347ZM20.5491 13.2467L24.2708 17.7117L9.03123 32.7533L0.208313 23.2533L3.92998 19.58L9.03123 24.5833L20.5491 13.2467Z" fill="#216DFF"/>
</svg>
