<svg width="83" height="83" viewBox="0 0 83 83" fill="none" xmlns="http://www.w3.org/2000/svg">
<path d="M44.3875 49.9562L67.6937 26.65L61.9187 20.6687L44.3875 38.2L35.5187 29.5375L29.7437 35.3125L44.3875 49.9562ZM25 66.25C22.7312 66.25 20.7897 65.4429 19.1755 63.8286C17.5585 62.2116 16.75 60.2687 16.75 58V8.5C16.75 6.23125 17.5585 4.28837 19.1755 2.67137C20.7897 1.05712 22.7312 0.25 25 0.25H74.5C76.7687 0.25 78.7116 1.05712 80.3286 2.67137C81.9429 4.28837 82.75 6.23125 82.75 8.5V58C82.75 60.2687 81.9429 62.2116 80.3286 63.8286C78.7116 65.4429 76.7687 66.25 74.5 66.25H25ZM8.5 82.75C6.23125 82.75 4.28975 81.9429 2.6755 80.3286C1.0585 78.7116 0.25 76.7688 0.25 74.5V16.75H8.5V74.5H66.25V82.75H8.5Z" fill="#216DFF"/>
</svg>
