<svg width="74" height="74" viewBox="0 0 74 74" fill="none" xmlns="http://www.w3.org/2000/svg">
<path d="M19.198 3.8478C22.3351 1.47197 26.1648 0.190553 30.1 0.200003C31.204 0.200003 32.0826 0.775003 32.5932 1.1706C33.1636 1.6214 33.6972 2.1964 34.1756 2.7714C34.5148 3.1834 34.7002 3.70053 34.7 4.2342V20.9H29.709C29.1665 19.3654 28.0989 18.072 26.6949 17.2485C25.291 16.4249 23.6411 16.1241 22.0368 16.3994C20.4326 16.6746 18.9773 17.5081 17.9282 18.7526C16.879 19.997 16.3036 21.5723 16.3036 23.2C16.3036 24.8277 16.879 26.403 17.9282 27.6474C18.9773 28.8919 20.4326 29.7254 22.0368 30.0006C23.6411 30.2759 25.291 29.9751 26.6949 29.1516C28.0989 28.328 29.1665 27.0346 29.709 25.5H34.7V68.809C34.7002 69.1495 34.6248 69.4859 34.4793 69.7938C34.3337 70.1016 34.1216 70.3733 33.8582 70.5892C31.733 72.328 28.8902 73.8 25.5 73.8C20.0444 73.8 15.9826 71.0492 13.356 67.7602C11.4689 65.4168 10.1764 62.6518 9.58861 59.701C7.80142 59.2245 6.14436 58.3519 4.74021 57.148C2.20101 54.9722 0.200012 51.444 0.200012 46.2C0.200012 43.6378 0.370212 41.324 0.752012 39.3H15.15C18.0756 39.3 20.486 41.485 20.854 44.3094C19.3243 44.863 18.0393 45.9393 17.2261 47.3483C16.4128 48.7573 16.1236 50.4083 16.4094 52.0098C16.6952 53.6114 17.5377 55.0604 18.7881 56.1011C20.0386 57.1418 21.6165 57.7072 23.2433 57.6975C24.8701 57.6877 26.4412 57.1035 27.6791 56.048C28.917 54.9924 29.7421 53.5334 30.0087 51.9286C30.2754 50.3237 29.9664 48.6763 29.1364 47.2771C28.3064 45.878 27.0087 44.8171 25.4724 44.2818C25.2785 41.6768 24.1068 39.2415 22.1923 37.4644C20.2778 35.6873 17.7622 34.6998 15.15 34.7H2.22861C2.93241 33.3292 3.87541 32.17 5.10361 31.3466C5.41429 31.1409 5.74031 30.9595 6.07881 30.8038C4.77241 26.9766 5.11281 22.4962 6.37321 18.9772C7.17821 16.714 8.45701 14.575 10.2142 13.149C11.3734 12.206 12.7534 11.585 14.2622 11.4654C14.9246 8.3236 16.7876 5.7246 19.2026 3.8478H19.198ZM39.3 57.7H42.75C45.495 57.7 48.1276 56.6096 50.0686 54.6686C52.0096 52.7276 53.1 50.095 53.1 47.35V38.909C54.6346 38.3664 55.928 37.2988 56.7516 35.8949C57.5751 34.491 57.8759 32.8411 57.6006 31.2368C57.3254 29.6326 56.4919 28.1773 55.2474 27.1282C54.003 26.079 52.4277 25.5036 50.8 25.5036C49.1723 25.5036 47.5971 26.079 46.3526 27.1282C45.1081 28.1773 44.2746 29.6326 43.9994 31.2368C43.7241 32.8411 44.0249 34.491 44.8485 35.8949C45.672 37.2988 46.9654 38.3664 48.5 38.909V47.35C48.5 50.524 45.924 53.1 42.75 53.1H39.3V4.2342C39.2998 3.70053 39.4852 3.1834 39.8244 2.7714C40.2982 2.1964 40.8364 1.6214 41.4068 1.1706C41.9128 0.775003 42.7914 0.200003 43.9 0.200003C47.8352 0.190553 51.6649 1.47197 54.802 3.8478C57.217 5.7246 59.08 8.3236 59.7378 11.4654C61.2466 11.5804 62.6266 12.206 63.7858 13.149C65.543 14.575 66.8218 16.714 67.6268 18.9772C68.8872 22.4962 69.2276 26.9812 67.9212 30.7992C68.2524 30.9556 68.579 31.1396 68.8964 31.3512C70.1614 32.193 71.1228 33.3982 71.8312 34.8196C73.225 37.6026 73.8 41.485 73.8 46.2C73.8 51.4486 71.799 54.9722 69.2598 57.148C67.8557 58.3519 66.1986 59.2245 64.4114 59.701C63.9514 62.2678 62.6634 65.2394 60.644 67.7602C58.022 71.0492 53.9556 73.8 48.5 73.8C45.1144 73.8 42.267 72.328 40.1464 70.5892C39.8822 70.3737 39.6692 70.1023 39.5228 69.7944C39.3765 69.4865 39.3003 69.1499 39.3 68.809V57.7V57.7ZM23.2 20.9C22.59 20.9 22.005 21.1423 21.5737 21.5737C21.1423 22.005 20.9 22.59 20.9 23.2C20.9 23.81 21.1423 24.395 21.5737 24.8263C22.005 25.2577 22.59 25.5 23.2 25.5C23.81 25.5 24.395 25.2577 24.8264 24.8263C25.2577 24.395 25.5 23.81 25.5 23.2C25.5 22.59 25.2577 22.005 24.8264 21.5737C24.395 21.1423 23.81 20.9 23.2 20.9ZM23.2 48.5C22.59 48.5 22.005 48.7423 21.5737 49.1737C21.1423 49.605 20.9 50.19 20.9 50.8C20.9 51.41 21.1423 51.995 21.5737 52.4264C22.005 52.8577 22.59 53.1 23.2 53.1C23.81 53.1 24.395 52.8577 24.8264 52.4264C25.2577 51.995 25.5 51.41 25.5 50.8C25.5 50.19 25.2577 49.605 24.8264 49.1737C24.395 48.7423 23.81 48.5 23.2 48.5ZM50.8 34.7C51.41 34.7 51.995 34.4577 52.4264 34.0264C52.8577 33.595 53.1 33.01 53.1 32.4C53.1 31.79 52.8577 31.205 52.4264 30.7737C51.995 30.3423 51.41 30.1 50.8 30.1C50.19 30.1 49.605 30.3423 49.1737 30.7737C48.7423 31.205 48.5 31.79 48.5 32.4C48.5 33.01 48.7423 33.595 49.1737 34.0264C49.605 34.4577 50.19 34.7 50.8 34.7Z" fill="white"/>
</svg>
