<svg width="120" height="128" viewBox="0 0 120 128" fill="none" xmlns="http://www.w3.org/2000/svg">
<ellipse cx="84" cy="36.5" rx="36" ry="36.5" fill="#216DFF"/>
<path d="M52.5949 31.0009C62.6478 30.8267 70.8155 38.7306 70.9972 48.8094C71.1725 58.5541 63.194 66.8094 53.4201 66.9933C43.4181 67.1815 35.1714 59.2722 35.0005 49.3264C34.8296 39.4249 42.754 31.1707 52.5949 30.9998V31.0009ZM60.1019 44.732C59.9905 44.9029 59.9029 45.037 59.8153 45.1711C58.8927 46.5847 57.9885 48.0113 57.039 49.4064C56.5685 50.0965 56.0569 50.7692 55.4891 51.3802C54.4422 52.5083 52.8242 52.7678 51.4723 52.0984C50.1225 51.43 49.3795 50.0229 49.5785 48.5152C49.704 47.5678 50.1528 46.787 50.911 46.2321C52.3602 45.1722 53.8376 44.1523 55.3161 43.1335C55.9369 42.7052 56.589 42.3224 57.2758 41.8887C57.0801 41.7794 56.9319 41.6908 56.7794 41.6118C55.5919 41.0051 54.334 40.7055 52.9983 40.6957C48.9783 40.6644 45.4027 43.6819 44.809 47.6208C44.5937 49.0441 43.841 49.6898 42.3917 49.6909C40.5672 49.6909 38.7426 49.6909 36.9181 49.6909H36.3719C36.9008 55.9162 39.6933 60.702 45.1832 63.5994C51.1824 66.7651 57.1514 66.3303 62.6997 62.4303C67.0442 59.3749 69.2365 55.025 69.6053 49.6909H69.0829C67.2584 49.6909 65.4338 49.6909 63.6093 49.6909C62.1525 49.6909 61.4192 49.0549 61.1856 47.6273C61.0179 46.6074 60.6729 45.6503 60.1029 44.732H60.1019ZM52.2694 39.3341V32.4025C48.2331 32.6286 44.756 34.0778 41.8347 36.706C43.4819 38.3553 45.0999 39.9744 46.7363 41.6107C48.3034 40.2913 50.1571 39.5288 52.2705 39.333L52.2694 39.3341ZM36.4054 48.2697C36.5255 48.2849 36.5904 48.3 36.6553 48.3C38.642 48.3011 40.6277 48.3054 42.6145 48.2979C43.1293 48.2957 43.3402 48.0772 43.4235 47.5321C43.6798 45.8536 44.3428 44.3524 45.3908 43.0189C45.4806 42.9042 45.5693 42.7885 45.6158 42.728C43.9718 41.0797 42.355 39.4596 40.7186 37.8189C38.0742 40.765 36.6282 44.2378 36.4043 48.2697H36.4054ZM53.7176 39.3341C55.2966 39.4769 56.7523 39.9149 58.0513 40.7606C58.4731 41.0354 58.7543 41.0343 59.1544 40.765C59.6552 40.4286 60.1819 40.0847 60.7486 39.9095C61.1217 39.7937 61.3921 39.6315 61.6463 39.3719C62.0432 38.9664 62.4455 38.5662 62.85 38.1671C63.3086 37.714 63.7715 37.2651 64.2593 36.7882C61.2267 34.0703 57.7506 32.6178 53.7186 32.4025V39.333L53.7176 39.3341ZM69.5934 48.3022C69.3717 44.241 67.9214 40.7639 65.2132 37.7453C64.3317 38.6333 63.4795 39.4952 62.6218 40.3518C62.3655 40.6081 62.0984 40.8374 62.1049 41.2592C62.107 41.4301 61.9794 41.6107 61.8864 41.773C61.6225 42.2283 61.3564 42.6825 61.0709 43.1238C60.9444 43.3196 60.9368 43.4634 61.0731 43.6667C61.8669 44.8488 62.3634 46.1499 62.5775 47.5581C62.6608 48.1053 62.8847 48.2979 63.4492 48.3C64.9612 48.3043 66.4743 48.3022 67.9863 48.3022C68.4978 48.3022 69.0105 48.3022 69.5934 48.3022ZM60.2435 41.8346C60.2208 41.8141 60.1992 41.7935 60.1765 41.773C60.13 41.7935 60.0802 41.8097 60.0381 41.8368C57.5895 43.4147 55.1344 44.984 52.6988 46.5825C52.2294 46.8908 51.7935 47.2736 51.4139 47.6879C50.8288 48.326 50.7769 49.2777 51.2062 50.0283C51.628 50.7659 52.4478 51.1564 53.2947 51.0471C54.0777 50.9465 54.5839 50.4447 54.9949 49.8488C56.1672 48.1508 57.3277 46.443 58.4644 44.7212C59.0863 43.7792 59.6519 42.7983 60.2435 41.8357V41.8346Z" fill="white"/>
<path d="M58.6715 5.01649C60.2987 5.70915 60.9117 6.9433 60.8292 8.69419C60.7385 10.61 60.8265 12.5341 60.799 14.4526C60.7907 15.0436 60.9529 15.3075 61.5603 15.5438C64.2018 16.5663 66.813 17.6686 69.4105 18.801C69.9025 19.0154 70.1746 19.0291 70.5539 18.6388C71.9887 17.1655 73.451 15.7198 74.9133 14.2712C76.579 12.6193 78.0743 12.6083 79.7152 14.2437C81.7795 16.2997 83.8437 18.3585 85.8969 20.4282C87.4362 21.9784 87.4307 23.5204 85.8859 25.0789C84.2697 26.7089 82.6398 28.3251 80.9768 29.988C81.1198 30.2794 81.2627 30.5433 81.3782 30.8154C82.4089 33.2699 83.4836 35.708 84.4319 38.1955C84.715 38.9404 84.9514 39.3005 85.8227 39.2648C87.7743 39.1878 89.7313 39.229 91.6856 39.2427C93.9917 39.2592 95.0665 40.3532 95.0692 42.6731C95.0747 45.5537 95.0774 48.4343 95.0692 51.3148C95.061 53.566 93.9807 54.6297 91.7103 54.638C89.6543 54.6462 87.5956 54.6572 85.5396 54.6297C84.9624 54.6215 84.7617 54.8276 84.5473 55.3746C83.5166 58.0133 82.4281 60.6301 81.2847 63.222C81.0428 63.7718 81.0895 64.0521 81.4936 64.4452C82.9916 65.9047 84.4704 67.3862 85.9354 68.876C87.4279 70.396 87.4224 71.9353 85.9244 73.4553C85.3967 73.9913 84.814 74.4723 83.8904 75.3134C84.3879 75.5855 84.781 75.7064 85.0476 75.9566C87.7743 78.5128 90.4652 81.1075 93.2001 83.6528C93.857 84.263 94.1566 84.9199 94.1209 85.816C94.0687 87.1848 94.1512 88.5591 94.0907 89.928C94.0577 90.6756 94.2639 91.0577 94.9867 91.3848C97.4578 92.5035 98.7222 95.2191 98.0762 97.7836C97.4166 100.403 95.0912 102.184 92.4167 102.116C89.8935 102.052 87.6203 100.202 87.0789 97.7644C86.4961 95.1477 87.6863 92.5419 90.0996 91.4232C90.8528 91.0742 90.9462 90.6316 91.0589 89.8895C91.4959 87.0089 90.5202 84.9089 88.2113 83.1086C86.0838 81.4539 84.245 79.4253 82.277 77.5645C82.2302 77.5205 82.1615 77.4958 81.8921 77.3364C81.271 78.0071 80.6223 78.7464 79.9351 79.4418C78.0495 81.3439 76.6367 81.3494 74.7759 79.4776C73.2284 77.9218 71.6946 76.3551 70.2378 74.8791C67.9977 75.8576 65.8757 76.7866 63.7483 77.7074C63.4652 77.8284 63.1711 77.9191 62.877 78.0125C61.5045 78.4468 60.8182 79.3667 60.8182 80.7722C60.8182 82.4186 60.8374 84.0651 60.8127 85.7088C60.7797 87.7813 59.6885 88.8587 57.616 88.8945C56.6952 88.911 55.7717 88.8972 54.7354 88.8972C54.7107 89.3233 54.675 89.6806 54.675 90.0407C54.6695 92.7481 54.6997 95.4583 54.653 98.1657C54.6392 98.9216 54.8619 99.2954 55.571 99.6252C57.9898 100.741 59.2185 103.369 58.644 105.953C58.097 108.404 55.8486 110.26 53.3281 110.339C50.7224 110.419 48.4328 108.753 47.6961 106.241C46.9155 103.572 48.1799 100.758 50.7774 99.573C51.4233 99.2789 51.6047 98.9298 51.5965 98.2619C51.5635 95.4858 51.5827 92.7069 51.58 89.9307C51.58 89.6284 51.547 89.3287 51.5223 88.8945C50.53 88.8945 49.5817 88.9082 48.6334 88.8917C46.5609 88.856 45.467 87.7758 45.4422 85.7005C45.4175 83.6088 45.4615 81.5171 45.4093 79.4254C45.401 79.09 45.1234 78.576 44.8403 78.4606C41.9624 77.3006 39.0599 76.2094 35.9346 75.0083C34.5905 76.3551 33.0018 77.9548 31.4049 79.5463C29.6567 81.2917 28.1834 81.3054 26.4628 79.5738C25.7399 78.8454 25.0554 78.0785 24.3161 77.2896C23.9697 77.5838 23.7334 77.7679 23.5162 77.9741C20.9517 80.4039 18.3762 82.8199 15.8502 85.2855C15.5094 85.6181 15.2922 86.2008 15.251 86.6873C15.163 87.7785 15.2592 88.8807 15.2098 89.9774C15.1795 90.6729 15.3582 91.0494 16.0564 91.3683C18.5356 92.4925 19.7615 95.1064 19.1651 97.7589C18.6099 100.235 16.2927 102.088 13.72 102.11C11.0923 102.135 8.80541 100.348 8.16498 97.7726C7.52454 95.2026 8.78891 92.4897 11.2599 91.3738C11.9856 91.0467 12.1862 90.6619 12.156 89.917C12.0955 88.5124 12.1698 87.1051 12.1285 85.7005C12.1038 84.8814 12.3787 84.2767 12.9779 83.716C15.7073 81.1653 18.4065 78.5788 21.1166 76.006C21.386 75.7504 21.6664 75.503 22.1199 75.0907C21.441 74.4695 20.8198 73.9445 20.2536 73.3673C18.8462 71.927 18.8407 70.374 20.2453 68.9392C21.7076 67.444 23.1836 65.9597 24.6871 64.5084C25.1517 64.0604 25.1956 63.736 24.918 63.1176C23.7828 60.5613 22.7164 57.9693 21.7021 55.3609C21.4877 54.8139 21.2898 54.605 20.7126 54.6132C18.5879 54.6407 16.4604 54.6352 14.3357 54.6187C12.3292 54.6022 11.1995 53.4945 11.1857 51.5045C11.1638 48.4865 11.1693 45.4685 11.1857 42.4532C11.1967 40.4027 12.3072 39.2675 14.3604 39.2318C16.3477 39.1988 18.3377 39.1905 20.325 39.24C21.1551 39.2593 21.5234 39.0558 21.8258 38.1818C22.7878 35.4139 23.9285 32.7064 25.0857 29.7599C23.7306 28.413 22.1556 26.8491 20.5861 25.2768C18.7418 23.4325 18.7363 22.0279 20.5696 20.1918C22.5817 18.1771 24.5882 16.1595 26.6084 14.1558C28.1614 12.6138 29.6924 12.622 31.2647 14.1778C32.727 15.6236 34.192 17.0721 35.6185 18.5509C36.0501 18.9989 36.3634 18.9962 36.9324 18.7433C39.4941 17.6136 42.0779 16.5361 44.6864 15.5273C45.2938 15.2937 45.456 15.0298 45.4477 14.4361C45.4202 12.5176 45.5082 10.5935 45.4175 8.6777C45.335 6.92956 45.9452 5.69266 47.5752 5H58.6853L58.6715 5.01649ZM91.933 42.324C89.5636 42.324 87.274 42.335 84.9844 42.3213C83.0411 42.3103 82.189 41.6396 81.6997 39.7513C80.9796 36.9834 79.9076 34.3666 78.4508 31.9038C77.4063 30.142 77.5575 29.0507 79.0088 27.5967C80.603 25.9997 82.2028 24.411 83.7173 22.8992C81.5101 20.6948 79.3661 18.5509 77.1672 16.3547C75.5675 17.9627 73.9155 19.6531 72.2306 21.3078C71.1147 22.4017 69.9437 22.6354 68.6821 21.8905C65.8895 20.2386 62.9319 19.0264 59.7957 18.21C58.5753 17.8912 57.9074 17.0144 57.7754 15.7637C57.7177 15.2195 57.7315 14.6698 57.7287 14.12C57.7232 12.1438 57.7287 10.1675 57.7287 8.1582H48.5152C48.5152 10.5083 48.5317 12.8007 48.5097 15.0903C48.4932 16.9979 47.7676 17.905 45.9122 18.3777C43.1718 19.0731 40.5881 20.1396 38.1528 21.5717C36.2645 22.6794 35.242 22.5419 33.6835 20.9862C32.1113 19.4167 30.5445 17.8445 29.0575 16.3574C26.8586 18.5784 24.7229 20.7333 22.5377 22.9377C24.1292 24.5155 25.8223 26.1646 27.4825 27.8468C28.5353 28.9106 28.7991 30.1145 28.0982 31.3101C26.4408 34.1357 25.2039 37.118 24.3683 40.2872C24.0137 41.6313 23.0544 42.2828 21.6086 42.3075C19.6214 42.3432 17.6313 42.3185 15.6441 42.3213C15.2098 42.3213 14.7755 42.3213 14.3192 42.3213V51.5485C16.6418 51.5485 18.8985 51.5402 21.1551 51.5485C23.1369 51.5567 24.0467 52.2576 24.5387 54.1542C25.2561 56.9221 26.3308 59.5388 27.7904 62.0016C28.8294 63.7525 28.6782 64.8547 27.2296 66.3143C25.6354 67.9167 24.0302 69.5055 22.4882 71.0447C24.6981 73.2436 26.8531 75.3876 29.0465 77.57C30.6572 75.9538 32.3147 74.2689 33.9968 72.6059C35.1183 71.501 36.3359 71.2866 37.6416 72.0507C40.3792 73.6532 43.2598 74.8708 46.341 75.6432C47.7731 76.0033 48.474 77.034 48.5042 78.6392C48.5372 80.3187 48.5125 81.9981 48.5125 83.6803C48.5125 84.3537 48.5125 85.0299 48.5125 85.7418H57.726C57.726 83.3724 57.7095 81.0801 57.7315 78.7877C57.748 76.9186 58.4461 76.028 60.252 75.5553C63.0859 74.8159 65.7658 73.7164 68.2863 72.2211C69.919 71.2536 71.057 71.4213 72.4313 72.7901C74.053 74.4036 75.6637 76.028 77.1727 77.5398C79.3771 75.3244 81.5156 73.1749 83.6953 70.9842C82.101 69.3955 80.4161 67.7408 78.7587 66.0531C77.6317 64.9042 77.4558 63.6921 78.2722 62.315C79.8581 59.6433 81.0291 56.8177 81.7877 53.8051C82.1478 52.3758 83.1428 51.6419 84.6216 51.5567C85.1356 51.5265 85.6496 51.5457 86.1636 51.5457C88.0711 51.5457 89.9787 51.5457 91.933 51.5457V42.3185V42.324ZM92.6037 99.0343C94 99.0205 95.1242 97.8771 95.1242 96.467C95.1242 95.0597 94.0027 93.9163 92.6037 93.9053C91.1798 93.8915 89.9732 95.1092 90.0089 96.522C90.0447 97.9101 91.2211 99.048 92.6037 99.0343V99.0343ZM13.6568 99.0343C15.0394 99.0343 16.2103 97.8743 16.2268 96.4917C16.246 95.0762 15.0284 93.8751 13.6018 93.9053C12.2027 93.9328 11.0978 95.0817 11.1115 96.4945C11.1225 97.9018 12.2605 99.0343 13.6568 99.0343V99.0343ZM53.0862 107.264C54.4826 107.28 55.6315 106.162 55.6617 104.754C55.692 103.347 54.5925 102.181 53.1962 102.135C51.7586 102.088 50.5685 103.248 50.5657 104.694C50.5657 106.101 51.6872 107.247 53.0835 107.264H53.0862Z" fill="white"/>
<path d="M7.90933 121L3.32308 115.259V121H0V108H3.32308V113.704L7.87046 108H11.7765L6.4907 114.37L11.9709 121H7.90933Z" fill="white"/>
<path d="M23.9469 112.185C23.9469 112.938 23.7655 113.63 23.4028 114.259C23.04 114.877 22.4829 115.377 21.7315 115.759C20.9801 116.142 20.0473 116.333 18.9331 116.333H16.8732V121H13.5501V108H18.9331C20.0214 108 20.9412 108.179 21.6926 108.537C22.4441 108.895 23.0076 109.389 23.3833 110.019C23.759 110.648 23.9469 111.37 23.9469 112.185ZM18.6805 113.815C19.3153 113.815 19.7882 113.673 20.0991 113.389C20.4101 113.105 20.5655 112.704 20.5655 112.185C20.5655 111.667 20.4101 111.265 20.0991 110.981C19.7882 110.698 19.3153 110.556 18.6805 110.556H16.8732V113.815H18.6805Z" fill="white"/>
<path d="M29 108V121H25.6769V108H29Z" fill="white"/>
<path d="M54.191 121.333C54.9748 121.494 55.6043 121.87 56.0797 122.463C56.5551 123.043 56.7928 123.71 56.7928 124.463C56.7928 125.549 56.3945 126.414 55.5979 127.056C54.8142 127.685 53.7156 128 52.3023 128H46V115H52.0902C53.4651 115 54.5379 115.302 55.3088 115.907C56.0926 116.512 56.4845 117.333 56.4845 118.37C56.4845 119.136 56.2725 119.772 55.8485 120.278C55.4373 120.784 54.8848 121.136 54.191 121.333ZM49.2957 120.259H51.4542C51.9939 120.259 52.405 120.148 52.6877 119.926C52.9832 119.691 53.131 119.352 53.131 118.907C53.131 118.463 52.9832 118.123 52.6877 117.889C52.405 117.654 51.9939 117.537 51.4542 117.537H49.2957V120.259ZM51.7241 125.444C52.2766 125.444 52.7006 125.327 52.9961 125.093C53.3044 124.846 53.4586 124.494 53.4586 124.037C53.4586 123.58 53.298 123.222 52.9768 122.963C52.6684 122.704 52.238 122.574 51.6855 122.574H49.2957V125.444H51.7241Z" fill="white"/>
<path d="M62 115V128H58.7043V115H62Z" fill="white"/>
<path d="M82.2649 110.537V113.167H86.6373V115.611H82.2649V118.463H87.2101V121H79V108H87.2101V110.537H82.2649Z" fill="white"/>
<path d="M96.1651 121L93.3775 116.093H92.5947V121H89.3297V108H94.8095C95.866 108 96.7634 108.179 97.5017 108.537C98.2527 108.895 98.8127 109.389 99.1819 110.019C99.551 110.636 99.7356 111.327 99.7356 112.093C99.7356 112.957 99.481 113.728 98.9718 114.407C98.4754 115.086 97.7371 115.568 96.757 115.852L99.8501 121H96.1651ZM92.5947 113.852H94.6186C95.2168 113.852 95.6623 113.71 95.9551 113.426C96.2606 113.142 96.4133 112.741 96.4133 112.222C96.4133 111.728 96.2606 111.34 95.9551 111.056C95.6623 110.772 95.2168 110.63 94.6186 110.63H92.5947V113.852Z" fill="white"/>
<path d="M112 112.185C112 112.938 111.822 113.63 111.465 114.259C111.109 114.877 110.562 115.377 109.823 115.759C109.085 116.142 108.169 116.333 107.074 116.333H105.05V121H101.785V108H107.074C108.143 108 109.047 108.179 109.785 108.537C110.523 108.895 111.077 109.389 111.446 110.019C111.815 110.648 112 111.37 112 112.185ZM106.826 113.815C107.449 113.815 107.914 113.673 108.22 113.389C108.525 113.105 108.678 112.704 108.678 112.185C108.678 111.667 108.525 111.265 108.22 110.981C107.914 110.698 107.449 110.556 106.826 110.556H105.05V113.815H106.826Z" fill="white"/>
</svg>
