<svg width="117" height="110" viewBox="0 0 117 110" fill="none" xmlns="http://www.w3.org/2000/svg">
<circle cx="80.5" cy="36.5" r="36.5" fill="#216DFF"/>
<path d="M41.6666 18.3333C37.0416 18.3333 33.3333 22.0416 33.3333 26.6666V39.1666C33.3333 43.7916 37.0416 47.4999 41.6666 47.4999H45.8333V55.8333H8.33325V64.1666H24.9999V72.4999H20.8333C16.2083 72.4999 12.4999 76.2083 12.4999 80.8333V93.3333C12.4999 97.9583 16.2083 101.667 20.8333 101.667H37.4999C42.1249 101.667 45.8333 97.9583 45.8333 93.3333V80.8333C45.8333 76.2083 42.1249 72.4999 37.4999 72.4999H33.3333V64.1666H66.6666V72.4999H62.4999C57.8749 72.4999 54.1666 76.2083 54.1666 80.8333V93.3333C54.1666 97.9583 57.8749 101.667 62.4999 101.667H79.1666C83.7916 101.667 87.4999 97.9583 87.4999 93.3333V80.8333C87.4999 76.2083 83.7916 72.4999 79.1666 72.4999H74.9999V64.1666H91.6666V55.8333H54.1666V47.4999H58.3333C62.9583 47.4999 66.6666 43.7916 66.6666 39.1666V26.6666C66.6666 22.0416 62.9583 18.3333 58.3333 18.3333H41.6666ZM41.6666 26.6666H58.3333V39.1666H41.6666V26.6666ZM20.8333 80.8333H37.4999V93.3333H20.8333V80.8333ZM62.4999 80.8333H79.1666V93.3333H62.4999V80.8333Z" fill="white"/>
</svg>
