<svg width="155" height="131" viewBox="0 0 155 131" fill="none" xmlns="http://www.w3.org/2000/svg">
<ellipse cx="118.5" cy="37" rx="36.5" ry="37" fill="#216DFF"/>
<path d="M133.87 122.504C133.717 122.992 133.566 123.48 133.407 123.965C132.189 127.709 128.855 130.269 124.927 130.294C117.297 130.344 109.666 130.358 102.036 130.294C97.0012 130.249 93.14 126.215 93.0731 121.038C93.0229 117.007 93.0619 112.973 93.0619 108.942C93.0619 108.476 93.0619 108.008 93.0619 107.394C92.3928 107.394 91.8437 107.394 91.2945 107.394C64.1103 107.394 36.9289 107.394 9.74478 107.394C5.37903 107.394 2.03086 105.028 0.97985 101.233C-0.327643 96.5191 2.51315 91.7965 7.3138 90.7036C7.73476 90.6088 8.15571 90.5224 8.69934 90.4054C8.69934 89.8645 8.69934 89.3069 8.69934 88.7522C8.69934 67.1186 8.78298 45.485 8.63802 23.8514C8.60178 18.5267 12.3737 14.9806 17.5424 15.0001C49.1898 15.1172 80.8401 15.0586 112.488 15.0586C118.208 15.0586 121.305 18.1671 121.305 23.9184C121.305 35.2342 121.305 46.55 121.305 57.8658C121.305 58.3787 121.305 58.8917 121.305 59.558C122.354 59.558 123.293 59.5552 124.233 59.558C129.044 59.5803 132.359 62.12 133.636 66.7562C133.692 66.9625 133.789 67.1548 133.867 67.3555V122.513L133.87 122.504ZM22.2649 80.8654H93.0619C93.0619 77.0461 93.0619 73.3243 93.0619 69.6026C93.0675 63.3439 96.8478 59.558 103.098 59.5524C104.64 59.5524 106.181 59.5524 107.712 59.5524V29.3769H22.2677V80.8654H22.2649ZM117.982 59.4855V58.0275C117.982 46.5806 117.982 35.1366 117.982 23.6898C117.982 20.0405 116.321 18.3873 112.646 18.3873C80.8679 18.3873 49.0895 18.3873 17.311 18.3873C13.6282 18.3873 12.0113 20.007 12.0113 23.7009C12.0085 45.4655 12.0113 67.2273 12.0113 88.9919C12.0113 89.4547 12.0503 89.9147 12.0754 90.4918H13.7146C24.1188 90.4918 34.5258 90.489 44.93 90.4945C47.782 90.4945 49.6219 92.0279 49.9676 94.8575C50.1321 96.1929 50.765 96.6417 52.0056 96.6389C59.8087 96.625 67.6118 96.625 75.4178 96.6389C76.6611 96.6389 77.3218 96.1734 77.4334 94.8324C77.6508 92.2342 79.5883 90.5196 82.2228 90.5001C85.387 90.4778 88.5512 90.4974 91.7182 90.4918C92.1364 90.4918 92.5546 90.4555 92.9895 90.436V84.2777H91.3865C68.1053 84.2777 44.8241 84.2777 21.5429 84.2777C19.2039 84.2777 18.8721 83.9404 18.8721 81.554C18.8721 63.9516 18.8721 46.3492 18.8721 28.7497C18.8721 26.3047 19.2039 25.973 21.6265 25.973C50.5447 25.973 79.4601 25.973 108.378 25.973C110.754 25.973 111.11 26.3187 111.11 28.6605C111.11 38.3705 111.11 48.0833 111.11 57.7933V59.4855H117.988H117.982ZM130.452 111.969V71.7826H96.5021V111.969H130.452ZM92.995 93.8204C89.5465 93.8204 86.254 93.8177 82.9616 93.8204C81.077 93.8204 80.9572 93.9292 80.6394 95.8138C80.2296 98.228 78.5122 99.8784 76.1454 99.8896C67.8237 99.9286 59.4992 99.9286 51.1775 99.8868C48.9082 99.8756 47.0655 98.1137 46.7365 95.8834C46.4438 93.9125 46.3435 93.8204 44.3641 93.8204C33.7452 93.8204 23.1236 93.8204 12.5047 93.8204C11.2056 93.8204 9.90091 93.7786 8.60456 93.8623C6.14012 94.0184 4.15519 96.073 4.01301 98.5263C3.82344 101.757 6.06765 104.046 9.48553 104.046C36.9234 104.052 64.364 104.049 91.8019 104.046C92.181 104.046 92.5601 104.016 92.9978 103.996V93.8177L92.995 93.8204ZM96.4073 115.393C96.4073 117.439 96.3767 119.343 96.4157 121.244C96.4798 124.397 98.8439 126.92 101.991 126.948C109.658 127.018 117.327 127.004 124.997 126.948C127.567 126.929 129.87 125.245 130.243 122.736C130.597 120.352 130.319 117.874 130.319 115.393H96.4101H96.4073ZM130.455 68.309C130.232 65.3093 128.005 62.9619 125.153 62.9368C117.394 62.8644 109.633 62.8671 101.872 62.9313C98.9694 62.9536 96.7252 65.2954 96.491 68.309H130.452H130.455Z" fill="white"/>
<path d="M113.528 119.541C114.654 119.541 115.78 119.51 116.904 119.549C117.91 119.586 118.549 120.112 118.549 121.163C118.549 122.203 117.944 122.778 116.923 122.792C114.632 122.822 112.337 122.819 110.043 122.792C109.023 122.78 108.401 122.209 108.39 121.18C108.381 120.146 109.011 119.586 110.023 119.549C111.191 119.508 112.36 119.538 113.528 119.538V119.541Z" fill="white"/>
<path d="M64 34.9167L46.75 42.5834V54.0834C46.75 64.7209 54.11 74.6684 64 77.0834C73.89 74.6684 81.25 64.7209 81.25 54.0834V42.5834L64 34.9167ZM64 46.4167C66.6833 46.4167 69.3667 48.5251 69.3667 51.2084V54.0834C70.5167 54.0834 71.6667 55.2334 71.6667 56.5751V63.2834C71.6667 64.4334 70.5167 65.5834 69.175 65.5834H58.6333C57.4833 65.5834 56.3333 64.4334 56.3333 63.0917V56.3834C56.3333 55.2334 57.4833 54.0834 58.6333 54.0834V51.2084C58.6333 48.5251 61.3167 46.4167 64 46.4167ZM64 48.7167C62.4667 48.7167 61.125 49.6751 61.125 51.2084V54.0834H66.875V51.2084C66.875 49.6751 65.5333 48.7167 64 48.7167Z" fill="white"/>
<path d="M112.5 79.2083L101.625 84.0416V91.2916C101.625 97.9978 106.265 104.269 112.5 105.792C118.735 104.269 123.375 97.9978 123.375 91.2916V84.0416L112.5 79.2083ZM112.5 86.4583C114.192 86.4583 115.883 87.7874 115.883 89.4791V91.2916C116.608 91.2916 117.333 92.0166 117.333 92.8624V97.0916C117.333 97.8166 116.608 98.5416 115.763 98.5416H109.117C108.392 98.5416 107.667 97.8166 107.667 96.9708V92.7416C107.667 92.0166 108.392 91.2916 109.117 91.2916V89.4791C109.117 87.7874 110.808 86.4583 112.5 86.4583ZM112.5 87.9083C111.533 87.9083 110.688 88.5124 110.688 89.4791V91.2916H114.313V89.4791C114.313 88.5124 113.467 87.9083 112.5 87.9083Z" fill="white"/>
</svg>
