<svg width="144" height="135" viewBox="0 0 144 135" fill="none" xmlns="http://www.w3.org/2000/svg">
<circle cx="107.5" cy="36.5" r="36.5" fill="#216DFF"/>
<path d="M102.375 27.75H14.625C9.2625 27.75 4.875 32.1375 4.875 37.5V96C4.875 101.363 9.2625 105.75 14.625 105.75H48.75L39 120.375V125.25H78V120.375L68.25 105.75H102.375C107.737 105.75 112.125 101.363 112.125 96V37.5C112.125 32.1375 107.737 27.75 102.375 27.75ZM102.375 86.25H14.625V37.5H102.375V86.25Z" fill="white"/>
<path d="M57.5902 66.4715C57.4358 66.7979 57.32 67.1353 57.2429 67.4835C57.1657 67.8317 57.094 68.1908 57.0278 68.5608H46.8556V66.4715H57.5902ZM46.8556 72.7393V70.65H56.9948C57.0499 71.0091 57.1271 71.3628 57.2263 71.711C57.3256 72.0592 57.4524 72.402 57.6067 72.7393H46.8556ZM44.7385 76.9179H67.0512L69.1518 79.0072H42.6213V45.5786H61.0636L70.1442 54.5397V63.8109C69.8244 63.528 69.4881 63.2723 69.1352 63.0437C68.7824 62.8152 68.413 62.6139 68.0271 62.4398V56.025H59.5585V47.6679H44.7385V76.9179ZM61.6756 49.1533V53.9358H66.5219L61.6756 49.1533ZM62.0726 62.2929C60.8707 62.739 59.8397 63.4355 58.9796 64.3822H46.8556V62.2929H62.0726ZM46.8556 53.9358H57.4413V56.025H46.8556V53.9358ZM65.9099 58.1143V60.2036H46.8556V58.1143H65.9099ZM74.3785 77.9625C74.3785 78.2455 74.2737 78.4903 74.0642 78.6971C73.8547 78.9038 73.6066 79.0072 73.3199 79.0072C73.0332 79.0072 72.7851 78.9038 72.5756 78.6971L67.7624 73.9635C67.3324 74.2464 66.8692 74.4586 66.373 74.6001C65.8768 74.7416 65.3696 74.8177 64.8513 74.8286C64.1236 74.8286 63.4399 74.6926 62.8004 74.4205C62.1608 74.1485 61.5984 73.7785 61.1133 73.3106C60.6281 72.8427 60.2477 72.2877 59.972 71.6457C59.6963 71.0037 59.5585 70.3236 59.5585 69.6054C59.5585 68.8872 59.6963 68.2125 59.972 67.5814C60.2477 66.9503 60.6226 66.4007 61.0967 65.9328C61.5709 65.4649 62.1332 65.0895 62.7838 64.8066C63.4344 64.5236 64.1236 64.3822 64.8513 64.3822C65.5791 64.3822 66.2628 64.5182 66.9023 64.7902C67.5419 65.0623 68.0987 65.4377 68.5729 65.9165C69.047 66.3953 69.4275 66.9503 69.7141 67.5814C70.0008 68.2125 70.1442 68.8872 70.1442 69.6054C70.1442 70.1168 70.0725 70.6174 69.9292 71.1071C69.7858 71.5967 69.5653 72.0538 69.2676 72.4782L74.0642 77.228C74.2737 77.4348 74.3785 77.6796 74.3785 77.9625ZM61.6756 69.6054C61.6756 70.0407 61.7583 70.4487 61.9237 70.8296C62.0891 71.2104 62.3152 71.5423 62.6019 71.8253C62.8886 72.1082 63.2249 72.3313 63.6108 72.4945C63.9968 72.6577 64.4103 72.7393 64.8513 72.7393C65.2924 72.7393 65.7059 72.6577 66.0919 72.4945C66.4778 72.3313 66.8141 72.1082 67.1008 71.8253C67.3875 71.5423 67.6135 71.2104 67.7789 70.8296C67.9444 70.4487 68.0271 70.0407 68.0271 69.6054C68.0271 69.1701 67.9444 68.7621 67.7789 68.3812C67.6135 68.0003 67.3875 67.6685 67.1008 67.3855C66.8141 67.1026 66.4778 66.8795 66.0919 66.7163C65.7059 66.5531 65.2924 66.4715 64.8513 66.4715C64.4103 66.4715 63.9968 66.5531 63.6108 66.7163C63.2249 66.8795 62.8886 67.1026 62.6019 67.3855C62.3152 67.6685 62.0891 68.0003 61.9237 68.3812C61.7583 68.7621 61.6756 69.1701 61.6756 69.6054Z" fill="white"/>
</svg>
