<svg width="118" height="126" viewBox="0 0 118 126" fill="none" xmlns="http://www.w3.org/2000/svg">
<ellipse cx="82" cy="36.5" rx="36" ry="36.5" fill="#216DFF"/>
<path d="M90.2812 99.25C88.7918 99.2568 87.323 99.5997 85.9845 100.253L71.6064 85.875H60.1875V92.5625H68.8344L81.2565 104.985C80.6025 106.323 80.2585 107.792 80.25 109.281C80.25 111.265 80.8383 113.205 81.9406 114.854C83.0428 116.504 84.6095 117.79 86.4425 118.549C88.2754 119.308 90.2924 119.507 92.2383 119.12C94.1841 118.733 95.9715 117.777 97.3744 116.374C98.7773 114.972 99.7327 113.184 100.12 111.238C100.507 109.292 100.308 107.275 99.5489 105.442C98.7897 103.609 97.5039 102.043 95.8543 100.941C94.2047 99.8383 92.2652 99.25 90.2812 99.25ZM90.2812 112.625C89.6199 112.625 88.9734 112.429 88.4236 112.061C87.8737 111.694 87.4451 111.172 87.192 110.561C86.9389 109.95 86.8727 109.278 87.0017 108.629C87.1308 107.98 87.4492 107.384 87.9169 106.917C88.3845 106.449 88.9803 106.131 89.6289 106.002C90.2775 105.873 90.9499 105.939 91.5608 106.192C92.1718 106.445 92.6941 106.874 93.0615 107.424C93.4289 107.973 93.625 108.62 93.625 109.281C93.625 110.168 93.2727 111.019 92.6456 111.646C92.0186 112.273 91.1681 112.625 90.2812 112.625ZM90.2812 62.4688C88.2134 62.4749 86.1981 63.121 84.5121 64.3184C82.8262 65.5158 81.5522 67.2058 80.8652 69.1563H60.1875V75.8438H80.8652C81.4813 77.5731 82.5607 79.0998 83.9857 80.2571C85.4107 81.4144 87.1264 82.1577 88.9453 82.4059C90.7642 82.654 92.6163 82.3975 94.2992 81.6642C95.9822 80.931 97.4312 79.7493 98.4879 78.2482C99.5447 76.7471 100.169 74.9845 100.291 73.1528C100.414 71.3212 100.031 69.4911 99.1839 67.8624C98.3368 66.2338 97.0584 64.8693 95.4884 63.9181C93.9183 62.9668 92.117 62.4655 90.2812 62.4688V62.4688ZM90.2812 75.8438C89.6199 75.8438 88.9734 75.6476 88.4236 75.2802C87.8737 74.9128 87.4451 74.3906 87.192 73.7796C86.9389 73.1686 86.8727 72.4963 87.0017 71.8477C87.1308 71.199 87.4492 70.6032 87.9169 70.1356C88.3845 69.668 88.9803 69.3495 89.6289 69.2205C90.2775 69.0915 90.9499 69.1577 91.5608 69.4108C92.1718 69.6639 92.6941 70.0924 93.0615 70.6423C93.4289 71.1922 93.625 71.8387 93.625 72.5C93.625 73.3868 93.2727 74.2373 92.6456 74.8644C92.0186 75.4915 91.1681 75.8438 90.2812 75.8438ZM90.2812 25.6875C87.6216 25.6902 85.0717 26.7479 83.191 28.6285C81.3104 30.5092 80.2527 33.0591 80.25 35.7188C80.2614 37.3206 80.6607 38.8958 81.4136 40.3097L68.8679 52.4375H60.1875V59.125H71.5696L86.2821 44.9074C87.6488 45.5033 89.1312 45.7871 90.6214 45.7379C92.1115 45.6886 93.572 45.3078 94.8964 44.6229C96.2208 43.9381 97.3758 42.9666 98.2774 41.779C99.1789 40.5915 99.8043 39.2179 100.108 37.7582C100.412 36.2985 100.386 34.7894 100.033 33.3408C99.6801 31.8922 99.0084 30.5406 98.0671 29.3844C97.1258 28.2281 95.9385 27.2963 94.5916 26.6568C93.2447 26.0173 91.7722 25.6861 90.2812 25.6875ZM90.2812 39.0625C89.6199 39.0625 88.9734 38.8664 88.4236 38.499C87.8737 38.1316 87.4451 37.6093 87.192 36.9984C86.9389 36.3874 86.8727 35.715 87.0017 35.0664C87.1308 34.4178 87.4492 33.822 87.9169 33.3544C88.3845 32.8867 88.9803 32.5683 89.6289 32.4393C90.2775 32.3102 90.9499 32.3765 91.5608 32.6295C92.1718 32.8826 92.6941 33.3112 93.0615 33.8611C93.4289 34.4109 93.625 35.0574 93.625 35.7188C93.625 36.6056 93.2727 37.4561 92.6456 38.0831C92.0186 38.7102 91.1681 39.0625 90.2812 39.0625Z" fill="white"/>
<path d="M60.1875 39.0625H66.875V32.375H60.1875C58.282 32.3814 56.4001 32.7973 54.6693 33.5946C52.9386 34.3919 51.3994 35.5519 50.1562 36.9961C48.9131 35.5519 47.3739 34.3919 45.6432 33.5946C43.9125 32.7973 42.0305 32.3814 40.125 32.375H36.7812C28.8026 32.3839 21.1533 35.5573 15.5115 41.199C9.86977 46.8408 6.69635 54.4901 6.6875 62.4688V82.5312C6.69635 90.5099 9.86977 98.1592 15.5115 103.801C21.1533 109.443 28.8026 112.616 36.7812 112.625H40.125C42.0305 112.619 43.9125 112.203 45.6432 111.405C47.3739 110.608 48.9131 109.448 50.1562 108.004C51.3994 109.448 52.9386 110.608 54.6693 111.405C56.4001 112.203 58.282 112.619 60.1875 112.625H66.875V105.938H60.1875C58.4144 105.936 56.7144 105.231 55.4607 103.977C54.2069 102.723 53.5018 101.023 53.5 99.25V45.75C53.5018 43.9769 54.2069 42.2769 55.4607 41.0232C56.7144 39.7694 58.4144 39.0643 60.1875 39.0625V39.0625ZM40.125 105.938H36.7812C31.1585 105.927 25.7271 103.895 21.4788 100.212C17.2306 96.5282 14.4492 91.4396 13.6425 85.875H20.0625V79.1875H13.375V65.8125H23.4062C26.0659 65.8098 28.6158 64.7521 30.4965 62.8715C32.3771 60.9908 33.4348 58.4409 33.4375 55.7812V49.0938H26.75V55.7812C26.75 56.6681 26.3977 57.5186 25.7706 58.1456C25.1436 58.7727 24.2931 59.125 23.4062 59.125H13.6425C14.4492 53.5604 17.2306 48.4717 21.4788 44.7883C25.7271 41.1049 31.1585 39.0726 36.7812 39.0625H40.125C41.8981 39.0643 43.5981 39.7694 44.8518 41.0232C46.1056 42.2769 46.8107 43.9769 46.8125 45.75V59.125H40.125V65.8125H46.8125V79.1875H40.125C37.4654 79.1902 34.9154 80.2479 33.0348 82.1285C31.1541 84.0092 30.0964 86.5591 30.0938 89.2188V95.9062H36.7812V89.2188C36.7812 88.3319 37.1335 87.4814 37.7606 86.8544C38.3877 86.2273 39.2382 85.875 40.125 85.875H46.8125V99.25C46.8107 101.023 46.1056 102.723 44.8518 103.977C43.5981 105.231 41.8981 105.936 40.125 105.938V105.938Z" fill="white"/>
</svg>
