<svg width="123" height="113" viewBox="0 0 123 113" fill="none" xmlns="http://www.w3.org/2000/svg">
<circle cx="87" cy="36" r="36" fill="#216DFF"/>
<path d="M16.2416 90.9861C15.4522 90.9982 14.6682 90.8541 13.9354 90.5622C13.2026 90.2703 12.5355 89.8364 11.973 89.2858C11.4105 88.7351 10.9638 88.0788 10.6589 87.3549C10.354 86.631 10.197 85.854 10.1971 85.0693C10.1972 84.2845 10.3544 83.5076 10.6594 82.7838C10.9645 82.06 11.4113 81.4038 11.974 80.8533C12.5366 80.3028 13.2038 79.869 13.9368 79.5773C14.6697 79.2856 15.4536 79.1417 16.243 79.154C17.8054 79.1784 19.2955 79.8125 20.3917 80.9195C21.4878 82.0264 22.1021 83.5175 22.1019 85.0707C22.1017 86.624 21.4871 88.1149 20.3906 89.2216C19.2942 90.3283 17.804 90.962 16.2416 90.9861V90.9861ZM4.25584 112.442V100.85C4.25584 96.6699 7.7107 93.2731 11.9205 93.2731H20.1389C24.3487 93.2731 28.1087 96.6699 28.1087 100.85V112.442H4.25439H4.25584ZM77.9446 90.4844C79.5229 90.4828 81.0361 89.8587 82.1519 88.7491C83.2676 87.6395 83.8948 86.135 83.8955 84.5662C83.913 83.7784 83.772 82.9951 83.4808 82.2622C83.1896 81.5293 82.754 80.8616 82.1997 80.2984C81.6454 79.7351 80.9834 79.2875 80.2528 78.982C79.5221 78.6764 78.7373 78.519 77.9446 78.519C77.1519 78.519 76.3672 78.6764 75.6365 78.982C74.9058 79.2875 74.2438 79.7351 73.6895 80.2984C73.1352 80.8616 72.6996 81.5293 72.4084 82.2622C72.1172 82.9951 71.9762 83.7784 71.9937 84.5662C71.9941 86.1352 72.6211 87.6398 73.7369 88.7495C74.8528 89.8592 76.3662 90.4832 77.9446 90.4844V90.4844ZM89.9245 112.442V100.85C89.9245 96.6699 86.4697 93.2731 82.257 93.2731H74.0472C69.8302 93.2731 66.076 96.6699 66.076 100.85V112.442H89.9231H89.9245ZM47.0822 90.9544C43.7561 90.9544 41.0619 88.2965 41.0619 85.0204C41.0619 81.7444 43.7561 79.085 47.0822 79.085C50.4055 79.085 53.0997 81.7429 53.0997 85.0204C53.0997 88.2979 50.4069 90.9544 47.0822 90.9544ZM32.5845 112.442L37.3222 99.6125C39.2195 93.0589 44.7453 93.2616 44.7453 93.2616H49.4351C49.4351 93.2616 54.958 93.0604 56.8582 99.6125L61.5958 112.442H32.5845V112.442ZM47.0822 71.5942V57.557L44.738 55.2268V69.2568H9.27399V24.6253H44.738V47.5534L47.0822 49.8822V22.2922H6.93846V71.5927L47.0822 71.5942Z" fill="white"/>
<path d="M26.6614 34.2177C27.4772 34.1831 28.248 33.8365 28.8129 33.2505C29.3778 32.6644 29.6931 31.8841 29.6931 31.0725C29.6931 30.2608 29.3778 29.4806 28.8129 28.8945C28.248 28.3085 27.4772 27.9619 26.6614 27.9272C25.8222 27.9272 25.0174 28.2586 24.424 28.8485C23.8306 29.4383 23.4972 30.2383 23.4972 31.0725C23.4972 31.9067 23.8306 32.7067 24.424 33.2965C25.0174 33.8864 25.8222 34.2177 26.6614 34.2177ZM37.1098 47.2889C37.1098 47.2889 34.514 38.5245 34.5097 38.5173C33.4757 35.1061 30.5805 35.2082 30.5805 35.2082H22.7481C22.7481 35.2082 19.8486 35.1061 18.816 38.5173L16.2202 47.2889C16.1665 47.459 16.1474 47.6379 16.164 47.8153C16.1807 47.9928 16.2328 48.1651 16.3172 48.3223C16.4016 48.4795 16.5167 48.6184 16.6558 48.7309C16.7948 48.8434 16.9551 48.9272 17.1271 48.9775C17.2991 49.0277 17.4794 49.0434 17.6576 49.0235C17.8358 49.0037 18.0082 48.9488 18.1647 48.862C18.3213 48.7752 18.4589 48.6582 18.5695 48.518C18.6801 48.3777 18.7614 48.2169 18.8088 48.0451L21.2875 39.6572L21.2933 39.6601L22.3981 39.6572V49.2022L18.0351 64.0861C17.9542 64.3604 17.9387 64.6496 17.9899 64.9309C18.041 65.2121 18.1574 65.4777 18.3297 65.7065C18.5021 65.9353 18.7256 66.121 18.9828 66.2489C19.2399 66.3769 19.5234 66.4435 19.811 66.4436C20.6136 66.4436 21.354 65.9218 21.5912 65.1197L25.9007 50.4227H27.4264L31.7359 65.1197C31.8039 65.3518 31.9172 65.5683 32.0695 65.7568C32.2218 65.9453 32.41 66.1021 32.6233 66.2181C32.8367 66.3342 33.071 66.4072 33.3128 66.4331C33.5546 66.459 33.7991 66.4371 34.0324 66.3689C34.2659 66.3012 34.4836 66.1884 34.6732 66.037C34.8628 65.8856 35.0205 65.6986 35.1373 65.4866C35.2542 65.2746 35.3278 65.0418 35.3541 64.8015C35.3804 64.5612 35.3588 64.3181 35.2906 64.0861L30.9275 49.2094V39.6587L32.0324 39.6616L32.0382 39.6587L34.5198 48.0465C34.6207 48.3877 34.8538 48.6751 35.1678 48.8455C35.3233 48.9299 35.494 48.983 35.6702 49.0017C35.8463 49.0205 36.0245 49.0046 36.1944 48.955C36.3644 48.9053 36.5229 48.8229 36.6608 48.7124C36.7987 48.6019 36.9134 48.4654 36.9983 48.3108C37.0831 48.1563 37.1365 47.9866 37.1554 47.8115C37.1743 47.6364 37.1584 47.4593 37.1084 47.2904L37.1098 47.2889ZM77.9174 45.9679C76.3641 45.9338 74.886 45.2965 73.7996 44.1925C72.7132 43.0885 72.1048 41.6055 72.1048 40.0612C72.1048 38.5168 72.7132 37.0338 73.7996 35.9298C74.886 34.8258 76.3641 34.1886 77.9174 34.1545C78.698 34.1539 79.471 34.3064 80.1921 34.6033C80.9133 34.9002 81.5684 35.3356 82.12 35.8845C82.6716 36.4335 83.1088 37.0852 83.4066 37.8024C83.7044 38.5196 83.8568 39.2882 83.8553 40.0641C83.8565 40.8396 83.7037 41.6077 83.4057 42.3244C83.1077 43.0411 82.6704 43.6923 82.1188 44.2407C81.5672 44.7891 80.9122 45.224 80.1912 45.5204C79.4703 45.8167 78.6976 45.9688 77.9174 45.9679ZM77.9174 54.7524C77.9174 54.7524 79.3592 54.9379 80.2414 53.7232C81.0397 52.6134 81.099 48.9363 81.1047 48.2707H74.7243C74.7026 50.9172 75.0121 52.8463 75.6484 53.8181C76.2905 54.8099 77.9174 54.7539 77.9174 54.7539V54.7524Z" fill="white"/>
<path d="M52.0252 59.9605C51.8068 60.317 51.467 61.0415 51.467 61.4986C51.467 62.8786 52.5878 63.9869 53.9717 63.9869H62.2105C63.1461 63.9869 64.3754 63.6117 64.9003 62.8297C66.6719 60.2149 68.5446 57.4592 69.0971 56.6355V72.1203H89.8465V56.2402C89.8465 52.0873 86.5825 48.3483 82.7213 48.3483C82.7314 50.2976 82.4682 53.5348 81.3199 54.9522C80.1211 56.3998 78.7096 56.2733 78.7096 56.2733V62.3151C79.1544 62.4955 79.5221 62.8241 79.7496 63.2446C79.9772 63.6651 80.0503 64.1512 79.9566 64.6195C79.8629 65.0878 79.608 65.5091 79.2359 65.811C78.8637 66.1128 78.3975 66.2765 77.9172 66.274C77.6451 66.2741 77.3757 66.221 77.1243 66.1175C76.873 66.014 76.6446 65.8622 76.4524 65.6709C76.2601 65.4795 76.1078 65.2523 76.004 65.0023C75.9002 64.7523 75.8471 64.4845 75.8477 64.214C75.8477 63.3587 76.3712 62.6256 77.1203 62.3151V56.246C77.1203 56.246 75.8882 56.3466 74.724 55.1865C73.1694 53.5765 73.1116 49.0139 73.1145 48.2678H72.737C71.4823 48.2669 70.2468 48.5743 69.1404 49.1627C68.0341 49.7511 67.0912 50.6021 66.3956 51.6402L61.4628 59.039L53.979 59.0361L43.4105 48.5295C43.3162 48.4351 43.2042 48.3602 43.0807 48.3091C42.9572 48.258 42.8248 48.2317 42.691 48.2317C42.5573 48.2317 42.4248 48.258 42.3013 48.3091C42.1779 48.3602 42.0658 48.4351 41.9715 48.5295C41.8765 48.6233 41.801 48.7348 41.7495 48.8577C41.6979 48.9805 41.6712 49.1123 41.6709 49.2455C41.6706 49.3786 41.6968 49.5105 41.7479 49.6335C41.799 49.7566 41.874 49.8684 41.9687 49.9626L52.0267 59.9619L52.0252 59.9605Z" fill="white"/>
</svg>
