<svg width="107" height="111" viewBox="0 0 107 111" fill="none" xmlns="http://www.w3.org/2000/svg">
<circle cx="70.5" cy="36.5" r="36.5" fill="#216DFF"/>
<path d="M0.397461 78.5608C0.946549 76.6748 1.81315 74.9798 3.7087 74.1633C4.64454 73.7599 5.71167 73.4471 6.71913 73.4447C26.9136 73.4042 47.1105 73.4042 67.3074 73.4233C70.9601 73.4257 73.5384 76.0279 73.5861 79.6733C73.6219 82.2755 73.5957 84.8801 73.5933 87.4847C73.5933 89.0675 73.0538 90.4617 72.0081 91.7198C73.5121 93.3814 73.6554 95.3772 73.6052 97.4494C73.5551 99.4476 73.6005 101.451 73.5933 103.451C73.5814 106.696 72.075 108.775 69.0239 109.806C68.8115 109.878 68.6396 110.067 68.4486 110.2H5.54456C5.2366 110.024 4.94773 109.79 4.61828 109.682C2.24765 108.911 1.04682 107.135 0.399851 104.865C0.399851 101.496 0.399851 98.1298 0.399851 94.7613C0.853445 93.8422 1.31897 92.9278 1.75108 91.9968C1.82509 91.8368 1.82509 91.5838 1.75108 91.4238C1.31897 90.4951 0.85582 89.5808 0.402226 88.6593V78.5561L0.397461 78.5608ZM36.8999 89.6667C46.8694 89.6667 56.8389 89.6667 66.8085 89.6667C68.8473 89.6667 69.5348 88.9696 69.5396 86.9165C69.5444 84.6629 69.5467 82.4068 69.5396 80.1532C69.5324 78.2457 68.7852 77.4722 66.9064 77.4722C46.9673 77.4674 27.0282 77.4674 7.08678 77.4722C5.20794 77.4722 4.46071 78.2433 4.45116 80.1508C4.44161 82.3424 4.44877 84.5316 4.45116 86.7231C4.45116 89.0556 5.05754 89.6667 7.37087 89.6667C17.2139 89.6667 27.0569 89.6667 36.8999 89.6667V89.6667ZM37.0073 93.761C27.0378 93.761 17.0683 93.761 7.09873 93.761C5.18169 93.761 4.4631 94.4868 4.45594 96.4062C4.44639 98.7243 4.444 101.042 4.45594 103.36C4.46788 105.189 5.23421 105.953 7.07723 105.956C27.0163 105.96 46.9554 105.96 66.8968 105.956C68.7804 105.956 69.5324 105.187 69.5396 103.286C69.5491 101.095 69.542 98.9057 69.5396 96.7142C69.5396 94.3793 68.9308 93.761 66.6294 93.761C56.7554 93.761 46.8814 93.761 37.0049 93.761H37.0073Z" fill="white"/>
<path d="M0.397461 61.4052C0.717364 60.0874 0.913118 58.7242 1.37387 57.4613C3.88536 50.5953 8.74598 46.47 15.9701 45.1785C16.216 45.1355 16.4547 45.0591 16.5335 45.0376C16.7436 42.5452 16.8152 40.134 17.1733 37.7634C17.9969 32.2964 20.3222 27.4739 23.8865 23.2698C28.389 17.958 34.0828 14.5751 40.882 13.0854C42.3 12.7751 43.7563 12.6342 45.1935 12.417C46.5925 12.417 47.9891 12.417 49.3881 12.417C51.0687 12.725 52.7757 12.9279 54.4253 13.3552C63.7001 15.7664 70.4492 21.3385 74.658 29.9138C75.613 31.8595 76.1525 34.0129 76.8162 36.0922C77.0048 36.6795 77.2005 36.9612 77.8738 37.0257C88.7505 38.0785 97.3067 46.9881 97.9465 57.8886C98.584 68.7773 91.1259 78.6442 80.4736 81.0029C79.0651 81.3156 77.9908 80.7546 77.6947 79.5561C77.4106 78.4054 78.134 77.3789 79.5593 77.0423C84.6705 75.8343 88.5977 72.9957 91.3336 68.5195C97.9632 57.6666 91.1975 43.0871 78.6377 41.1677C77.604 41.0101 76.556 40.9576 75.5151 40.8454C74.1638 40.6998 73.4477 40.0624 73.2209 38.7207C72.18 32.6186 69.3939 27.4644 64.7935 23.3271C60.2504 19.2424 54.9291 16.8837 48.8031 16.5901C38.9554 16.1174 31.1082 19.9872 25.4239 27.9801C21.6854 33.2394 20.2315 39.2101 20.931 45.6631C20.962 45.9472 20.9906 46.2313 21.0026 46.5177C21.0766 48.2104 20.3532 48.9958 18.6558 49.0077C15.3995 49.034 12.432 49.9722 9.93488 52.0564C5.46579 55.7902 3.64902 60.5219 4.90476 66.3088C4.98593 66.6812 5.09336 67.0489 5.1411 67.4261C5.29151 68.6102 4.63259 69.5962 3.58216 69.7895C2.47683 69.9948 1.50997 69.4052 1.19245 68.2521C0.941778 67.3377 0.78182 66.3971 0.574122 65.4685C0.526375 65.2536 0.457144 65.0459 0.397461 64.8334C0.397461 63.6899 0.397461 62.5463 0.397461 61.4028V61.4052Z" fill="white"/>
<path d="M55.2945 85.613C52.7234 85.613 50.1522 85.6106 47.581 85.613C46.7479 85.613 46.0078 85.4316 45.5064 84.6939C44.7139 83.5289 45.3513 81.9102 46.7312 81.6333C47.1012 81.5593 47.4879 81.5617 47.8675 81.5617C52.8189 81.5569 57.7702 81.5569 62.7215 81.5617C63.0701 81.5617 63.4234 81.5641 63.7648 81.619C64.6983 81.767 65.3572 82.5071 65.4145 83.4358C65.4742 84.3907 64.9537 85.1952 64.0346 85.4626C63.6454 85.5748 63.2229 85.6035 62.8147 85.6058C60.308 85.6178 57.7989 85.613 55.2921 85.613H55.2945Z" fill="white"/>
<path d="M8.56439 83.6073C8.55245 82.4972 9.40474 81.6115 10.5101 81.5853C11.6345 81.559 12.5966 82.4924 12.5823 83.6002C12.5703 84.653 11.6178 85.596 10.565 85.6007C9.49306 85.6031 8.57395 84.6888 8.56201 83.6073H8.56439Z" fill="white"/>
<path d="M55.3186 101.863C52.6853 101.863 50.0497 101.877 47.4165 101.856C46.0748 101.844 45.2607 101.14 45.1747 100.013C45.0769 98.719 45.9745 97.8262 47.4594 97.8166C50.5701 97.7975 53.6808 97.8095 56.7892 97.8095C58.9473 97.8095 61.1055 97.7904 63.2636 97.819C64.3857 97.8333 65.1783 98.466 65.374 99.3923C65.5769 100.345 65.1305 101.314 64.2329 101.655C63.8031 101.82 63.3042 101.849 62.8363 101.854C60.3296 101.873 57.8229 101.863 55.3138 101.861L55.3186 101.863Z" fill="white"/>
<path d="M10.5868 101.844C9.47907 101.856 8.59097 100.999 8.5671 99.8938C8.54322 98.7693 9.47906 97.8072 10.5844 97.8239C11.6396 97.8383 12.5802 98.7908 12.5802 99.8436C12.5802 100.916 11.6659 101.832 10.5844 101.844H10.5868Z" fill="white"/>
</svg>
