<svg width="133" height="125" viewBox="0 0 133 125" fill="none" xmlns="http://www.w3.org/2000/svg">
<circle cx="96.5" cy="36.5" r="36.5" fill="#216DFF"/>
<path d="M120 117.364C119.862 117.801 119.727 118.239 119.585 118.674C118.492 122.032 115.502 124.327 111.979 124.349C105.136 124.394 98.2926 124.407 91.4493 124.349C86.9339 124.309 83.471 120.691 83.411 116.048C83.366 112.433 83.401 108.815 83.401 105.2C83.401 104.782 83.401 104.362 83.401 103.812C82.8009 103.812 82.3084 103.812 81.8158 103.812C57.4357 103.812 33.0581 103.812 8.67797 103.812C4.76255 103.812 1.75974 101.689 0.817142 98.2866C-0.355483 94.0586 2.19228 89.8232 6.49774 88.8431C6.87528 88.7581 7.25282 88.6806 7.74037 88.5755C7.74037 88.0905 7.74037 87.5904 7.74037 87.0929C7.74037 67.6908 7.81538 48.2887 7.68537 28.8867C7.65287 24.1112 11.0357 20.9308 15.6712 20.9483C44.0543 21.0533 72.4398 21.0008 100.823 21.0008C105.953 21.0008 108.731 23.7886 108.731 28.9467C108.731 39.0953 108.731 49.2438 108.731 59.3924C108.731 59.8525 108.731 60.3125 108.731 60.9101C109.671 60.9101 110.514 60.9076 111.356 60.9101C115.672 60.9301 118.645 63.2078 119.79 67.3658C119.84 67.5508 119.927 67.7233 119.997 67.9033V117.371L120 117.364ZM19.9067 80.0196H83.401C83.401 76.5943 83.401 73.2564 83.401 69.9186C83.406 64.3055 86.7963 60.9101 92.4019 60.9051C93.7846 60.9051 95.1672 60.9051 96.5399 60.9051V33.8422H19.9092V80.0196H19.9067ZM105.751 60.8451V59.5374C105.751 49.2713 105.751 39.0078 105.751 28.7417C105.751 25.4688 104.261 23.9861 100.965 23.9861C72.4648 23.9861 43.9643 23.9861 15.4637 23.9861C12.1608 23.9861 10.7107 25.4388 10.7107 28.7516C10.7082 48.2712 10.7107 67.7883 10.7107 87.3079C10.7107 87.723 10.7457 88.1355 10.7682 88.6531H12.2383C21.5693 88.6531 30.9029 88.6505 40.2339 88.6555C42.7916 88.6555 44.4418 90.0307 44.7518 92.5685C44.8994 93.7661 45.4669 94.1686 46.5796 94.1661C53.5778 94.1536 60.576 94.1536 67.5768 94.1661C68.6919 94.1661 69.2845 93.7486 69.3845 92.546C69.5795 90.2157 71.3172 88.678 73.6799 88.6605C76.5177 88.6405 79.3555 88.6581 82.1959 88.6531C82.5709 88.6531 82.9459 88.6205 83.336 88.603V83.08H81.8983C61.0186 83.08 40.1389 83.08 19.2591 83.08C17.1614 83.08 16.8638 82.7774 16.8638 80.6372C16.8638 64.8505 16.8638 49.0638 16.8638 33.2796C16.8638 31.0869 17.1614 30.7894 19.3341 30.7894C45.2694 30.7894 71.2022 30.7894 97.1375 30.7894C99.2677 30.7894 99.5877 31.0994 99.5877 33.1996C99.5877 41.9081 99.5877 50.619 99.5877 59.3274V60.8451H105.756H105.751ZM116.935 107.915V71.8737H86.4863V107.915H116.935ZM83.341 91.6384C80.2481 91.6384 77.2953 91.6359 74.3425 91.6384C72.6523 91.6384 72.5448 91.7359 72.2598 93.4261C71.8923 95.5913 70.3521 97.0715 68.2294 97.0815C60.7661 97.1165 53.3003 97.1165 45.837 97.079C43.8017 97.069 42.1491 95.4888 41.854 93.4886C41.5915 91.7209 41.5015 91.6384 39.7263 91.6384C30.2028 91.6384 20.6768 91.6384 11.1532 91.6384C9.98812 91.6384 8.81799 91.6009 7.65537 91.6759C5.44513 91.8159 3.66495 93.6586 3.53744 95.8588C3.36742 98.7566 5.38013 100.809 8.44546 100.809C33.0531 100.814 57.6632 100.812 82.2709 100.809C82.6109 100.809 82.9509 100.782 83.3435 100.764V91.6359L83.341 91.6384ZM86.4013 110.985C86.4013 112.821 86.3738 114.528 86.4088 116.234C86.4663 119.061 88.5865 121.324 91.4093 121.349C98.2851 121.412 105.163 121.399 112.042 121.349C114.347 121.332 116.412 119.821 116.747 117.571C117.065 115.433 116.815 113.211 116.815 110.985H86.4038H86.4013ZM116.937 68.7584C116.737 66.0681 114.739 63.9629 112.182 63.9404C105.223 63.8754 98.2626 63.8779 91.3018 63.9354C88.6991 63.9554 86.6863 66.0556 86.4763 68.7584H116.935H116.937Z" fill="white"/>
<path d="M101.756 114.706C102.766 114.706 103.776 114.678 104.783 114.713C105.686 114.746 106.258 115.218 106.258 116.161C106.258 117.094 105.716 117.609 104.801 117.621C102.746 117.649 100.688 117.646 98.6302 117.621C97.7151 117.611 97.1575 117.099 97.1475 116.176C97.14 115.248 97.7051 114.746 98.6127 114.713C99.6603 114.676 100.708 114.703 101.756 114.703V114.706Z" fill="white"/>
</svg>
