<svg width="130" height="123" viewBox="0 0 130 123" fill="none" xmlns="http://www.w3.org/2000/svg">
<ellipse cx="94" cy="36.5" rx="36" ry="36.5" fill="#216DFF"/>
<path d="M99.75 44.625H81.9375V30.375C81.9356 28.4859 81.1843 26.6747 79.8486 25.3389C78.5128 24.0032 76.7016 23.2519 74.8125 23.25H39.1875C37.2984 23.2519 35.4872 24.0032 34.1514 25.3389C32.8157 26.6747 32.0644 28.4859 32.0625 30.375V44.625H14.25C12.3609 44.6269 10.5497 45.3782 9.21395 46.7139C7.87816 48.0497 7.12689 49.8609 7.125 51.75V108.75C7.12689 110.639 7.87816 112.45 9.21395 113.786C10.5497 115.122 12.3609 115.873 14.25 115.875H99.75C101.639 115.873 103.45 115.122 104.786 113.786C106.122 112.45 106.873 110.639 106.875 108.75V51.75C106.873 49.8609 106.122 48.0497 104.786 46.7139C103.45 45.3782 101.639 44.6269 99.75 44.625V44.625ZM14.25 108.75V51.75H32.0625V58.875H24.9375V66H32.0625V73.125H24.9375V80.25H32.0625V87.375H24.9375V94.5H32.0625V108.75H14.25ZM74.8125 108.75H39.1875V30.375H74.8125V108.75ZM99.75 108.75H81.9375V94.5H89.0625V87.375H81.9375V80.25H89.0625V73.125H81.9375V66H89.0625V58.875H81.9375V51.75H99.75V108.75Z" fill="white"/>
<path d="M49.875 37.5H64.125V44.625H49.875V37.5ZM49.875 51.75H64.125V58.875H49.875V51.75ZM49.875 66H64.125V73.125H49.875V66Z" fill="white"/>
</svg>
