<svg width="67" height="82" viewBox="0 0 67 82" fill="none" xmlns="http://www.w3.org/2000/svg">
<path d="M33.5 61.4167C39.2062 61.4167 44.071 59.4253 48.0942 55.4427C52.1147 51.4628 54.125 46.6486 54.125 41C54.125 35.3514 52.1147 30.5358 48.0942 26.5532C44.071 22.5733 39.2062 20.5833 33.5 20.5833C27.7938 20.5833 22.9304 22.5733 18.9099 26.5532C14.8866 30.5358 12.875 35.3514 12.875 41C12.875 46.6486 14.8866 51.4628 18.9099 55.4427C22.9304 59.4253 27.7938 61.4167 33.5 61.4167ZM40.3062 50.5958L31.4375 41.8167V28.75H35.5625V40.1833L43.1938 47.7375L40.3062 50.5958ZM33.5 81.8333C23.9438 79.4514 16.0554 74.0233 9.83488 65.549C3.61163 57.0774 0.5 47.6694 0.5 37.325V12.4167L33.5 0.166656L66.5 12.4167V37.325C66.5 47.6694 63.3898 57.0774 57.1693 65.549C50.946 74.0233 43.0563 79.4514 33.5 81.8333Z" fill="white"/>
</svg>
