<svg width="61" height="61" viewBox="0 0 61 61" fill="none" xmlns="http://www.w3.org/2000/svg">
<path d="M26.1808 38.59L19.8796 32.2L16.7437 35.38L26.1512 44.92L43.9012 26.92L40.7654 23.74L26.1808 38.59ZM30.5 55C25.0078 55 19.7406 52.7875 15.857 48.8492C11.9734 44.911 9.79166 39.5695 9.79166 34C9.79166 28.4304 11.9734 23.089 15.857 19.1507C19.7406 15.2125 25.0078 13 30.5 13C35.9922 13 41.2594 15.2125 45.143 19.1507C49.0266 23.089 51.2083 28.4304 51.2083 34C51.2083 39.5695 49.0266 44.911 45.143 48.8492C41.2594 52.7875 35.9922 55 30.5 55ZM30.5 6.99999C23.4386 6.99999 16.6664 9.84462 11.6733 14.9081C6.68012 19.9716 3.87499 26.8391 3.87499 34C3.87499 41.1608 6.68012 48.0284 11.6733 53.0919C16.6664 58.1553 23.4386 61 30.5 61C37.5614 61 44.3335 58.1553 49.3267 53.0919C54.3199 48.0284 57.125 41.1608 57.125 34C57.125 26.8391 54.3199 19.9716 49.3267 14.9081C44.3335 9.84462 37.5614 6.99999 30.5 6.99999ZM18.3117 5.16999L14.525 0.579987L0.916656 12.13L4.73291 16.72L18.3117 5.16999ZM60.0833 12.16L46.475 0.579987L42.6587 5.16999L56.2671 16.75L60.0833 12.16Z" fill="#216DFF"/>
</svg>
