<svg width="727" height="610" viewBox="0 0 727 610" fill="none" xmlns="http://www.w3.org/2000/svg">
<circle cx="157.5" cy="452.5" r="157.5" fill="#CEEFFF" fill-opacity="0.3"/>
<ellipse cx="569" cy="158.5" rx="158" ry="158.5" fill="#CEEFFF" fill-opacity="0.3"/>
<g clip-path="url(#clip0_13_2)">
<path d="M649.127 474.474H494.732C489.115 474.468 483.73 472.239 479.758 468.277C475.786 464.314 473.552 458.942 473.545 453.338V210.377C473.552 204.773 475.786 199.401 479.758 195.438C483.73 191.476 489.115 189.247 494.732 189.241H649.127C654.744 189.247 660.13 191.476 664.102 195.438C668.073 199.401 670.308 204.773 670.314 210.377V453.338C670.308 458.942 668.073 464.314 664.102 468.277C660.13 472.239 654.744 474.468 649.127 474.474Z" fill="#E6E6E6"/>
<path d="M651.687 201.853H494.441C492.683 201.855 490.997 202.553 489.754 203.793C488.51 205.034 487.811 206.715 487.809 208.47V454.599C487.811 456.353 488.511 458.034 489.754 459.274C490.997 460.515 492.683 461.213 494.441 461.215H651.687C653.446 461.213 655.132 460.515 656.375 459.275C657.618 458.035 658.318 456.353 658.32 454.599V208.47C658.318 206.715 657.618 205.034 656.375 203.793C655.131 202.553 653.446 201.855 651.687 201.853Z" fill="white"/>
<path d="M498.506 189.241C498.506 188.812 498.677 188.401 498.981 188.098C499.285 187.795 499.697 187.624 500.127 187.624H511.148C511.578 187.624 511.991 187.794 512.295 188.097C512.599 188.401 512.769 188.812 512.769 189.241C512.769 189.669 512.599 190.081 512.295 190.384C511.991 190.687 511.578 190.858 511.148 190.858H500.127C499.697 190.857 499.285 190.687 498.981 190.383C498.677 190.08 498.506 189.669 498.506 189.241Z" fill="#E6E6E6"/>
<path d="M516.659 189.241C516.66 188.812 516.831 188.401 517.135 188.098C517.438 187.795 517.85 187.624 518.28 187.624H529.302C529.732 187.624 530.144 187.794 530.448 188.097C530.752 188.401 530.923 188.812 530.923 189.241C530.923 189.669 530.752 190.081 530.448 190.384C530.144 190.687 529.732 190.858 529.302 190.858H518.28C517.85 190.857 517.438 190.687 517.135 190.383C516.831 190.08 516.66 189.669 516.659 189.241Z" fill="#E6E6E6"/>
<path d="M625.579 189.241C625.58 188.812 625.75 188.401 626.054 188.098C626.358 187.795 626.77 187.624 627.2 187.624H638.222C638.651 187.624 639.064 187.794 639.368 188.097C639.672 188.401 639.842 188.812 639.842 189.241C639.842 189.669 639.672 190.081 639.368 190.384C639.064 190.687 638.651 190.858 638.222 190.858H627.2C626.77 190.857 626.358 190.687 626.054 190.383C625.75 190.08 625.58 189.669 625.579 189.241Z" fill="#E6E6E6"/>
<path d="M594.855 456.144C594.855 457.846 594.822 459.54 594.744 461.215H494.441C492.683 461.213 490.997 460.515 489.754 459.274C488.511 458.034 487.811 456.353 487.809 454.599V330.713C517.678 335.527 544.854 350.793 564.469 373.777C584.083 396.76 594.855 425.959 594.855 456.144Z" fill="#F2F2F2"/>
<path d="M591.448 265.104H554.04C552.338 265.104 550.958 266.48 550.958 268.178V272.015C550.958 273.714 552.338 275.09 554.04 275.09H591.448C593.151 275.09 594.531 273.714 594.531 272.015V268.178C594.531 266.48 593.151 265.104 591.448 265.104Z" fill="#216DFF"/>
<path d="M615.224 285.077H530.265C528.563 285.077 527.183 286.454 527.183 288.152V291.989C527.183 293.687 528.563 295.064 530.265 295.064H615.224C616.926 295.064 618.306 293.687 618.306 291.989V288.152C618.306 286.454 616.926 285.077 615.224 285.077Z" fill="#E6E6E6"/>
<path d="M615.224 305.051H530.265C528.563 305.051 527.183 306.427 527.183 308.126V311.963C527.183 313.661 528.563 315.037 530.265 315.037H615.224C616.926 315.037 618.306 313.661 618.306 311.963V308.126C618.306 306.427 616.926 305.051 615.224 305.051Z" fill="#E6E6E6"/>
<path d="M600.676 444.394C600.189 444.417 599.706 444.289 599.294 444.029C598.882 443.769 598.561 443.388 598.372 442.939C598.184 442.491 598.139 441.995 598.243 441.52C598.346 441.044 598.594 440.612 598.952 440.282L599.115 439.636C599.094 439.584 599.072 439.532 599.05 439.481C598.56 438.324 597.737 437.338 596.687 436.647C595.636 435.955 594.404 435.589 593.145 435.593C591.887 435.598 590.658 435.974 589.612 436.673C588.567 437.372 587.752 438.364 587.27 439.524C585.343 444.154 582.89 448.791 582.286 453.686C582.02 455.85 582.132 458.043 582.617 460.169C578.092 450.32 575.742 439.617 575.727 428.783C575.726 426.064 575.877 423.348 576.18 420.646C576.431 418.431 576.778 416.232 577.223 414.049C579.648 402.202 584.856 391.098 592.418 381.65C596.079 379.657 599.039 376.594 600.9 372.871C601.574 371.533 602.05 370.105 602.314 368.631C601.901 368.685 601.482 368.718 601.069 368.745C600.94 368.752 600.805 368.759 600.676 368.766L600.628 368.768C600.174 368.788 599.724 368.677 599.332 368.448C598.94 368.219 598.623 367.882 598.418 367.478C598.214 367.073 598.131 366.618 598.18 366.168C598.228 365.717 598.406 365.29 598.693 364.938C598.871 364.719 599.049 364.501 599.228 364.282C599.499 363.944 599.776 363.613 600.047 363.276C600.078 363.244 600.107 363.21 600.135 363.174C600.446 362.79 600.758 362.411 601.069 362.027C600.501 361.147 599.736 360.409 598.835 359.873C595.715 358.049 591.41 359.312 589.156 362.128C586.895 364.944 586.469 368.894 587.254 372.412C588.026 375.406 589.303 378.246 591.031 380.812C590.862 381.028 590.686 381.238 590.517 381.454C587.423 385.422 584.727 389.683 582.467 394.176C583.017 389.142 582.361 384.051 580.553 379.32C578.721 374.911 575.287 371.198 572.263 367.386C568.631 362.807 561.183 364.806 560.543 370.609C560.536 370.666 560.53 370.722 560.524 370.778C560.974 371.031 561.413 371.299 561.843 371.583C562.384 371.943 562.803 372.458 563.045 373.059C563.287 373.661 563.341 374.322 563.201 374.955C563.06 375.588 562.731 376.164 562.257 376.607C561.783 377.05 561.185 377.341 560.543 377.439L560.477 377.449C560.637 379.064 560.92 380.665 561.323 382.237C562.492 386.626 564.556 390.727 567.388 394.283C570.219 397.838 573.757 400.772 577.778 402.9C578.042 403.035 578.299 403.17 578.563 403.298C576.292 409.718 574.868 416.405 574.326 423.191C574.019 427.195 574.037 431.217 574.38 435.218L574.36 435.076C573.493 430.627 571.114 426.613 567.625 423.711C562.442 419.464 555.12 417.9 549.528 414.486C548.934 414.105 548.243 413.902 547.537 413.9C546.831 413.899 546.139 414.099 545.543 414.476C544.947 414.854 544.471 415.394 544.173 416.032C543.874 416.671 543.765 417.381 543.857 418.079C543.865 418.129 543.872 418.179 543.88 418.228C544.714 418.567 545.525 418.957 546.31 419.397C546.759 419.649 547.199 419.918 547.629 420.201C548.17 420.562 548.588 421.076 548.831 421.678C549.073 422.28 549.127 422.94 548.987 423.573C548.846 424.207 548.517 424.782 548.043 425.226C547.568 425.669 546.971 425.959 546.329 426.058L546.263 426.068C546.215 426.075 546.175 426.082 546.127 426.088C547.552 429.481 549.55 432.603 552.036 435.319C555.108 438.607 558.819 441.234 562.944 443.039C567.069 444.845 571.52 445.791 576.025 445.819H576.031C577.254 451.12 579.026 456.28 581.318 461.215H600.202C600.27 461.006 600.331 460.79 600.392 460.581C598.644 460.69 596.889 460.586 595.167 460.27C596.568 458.555 597.969 456.826 599.37 455.111C599.401 455.079 599.431 455.045 599.458 455.01C600.169 454.132 600.886 453.261 601.597 452.383L601.597 452.382C601.635 449.691 601.326 447.007 600.676 444.395L600.676 444.394ZM579.05 401.955L579.06 401.941L579.05 401.968V401.955ZM574.867 439.573L574.705 439.209C574.712 438.945 574.712 438.682 574.705 438.412C574.705 438.338 574.691 438.263 574.691 438.189C574.752 438.655 574.806 439.121 574.874 439.587L574.867 439.573Z" fill="#CCCCCC"/>
<path d="M643.827 223.583H502.301C501.995 223.576 501.703 223.45 501.489 223.232C501.275 223.013 501.155 222.72 501.155 222.414C501.155 222.109 501.275 221.815 501.489 221.597C501.703 221.379 501.995 221.253 502.301 221.246H643.827C644.134 221.253 644.425 221.379 644.639 221.597C644.853 221.815 644.973 222.109 644.973 222.414C644.973 222.72 644.853 223.013 644.639 223.232C644.425 223.45 644.134 223.576 643.827 223.583Z" fill="#CACACA"/>
<path d="M509.852 217.867C511.753 217.867 513.294 216.295 513.294 214.356C513.294 212.417 511.753 210.845 509.852 210.845C507.951 210.845 506.409 212.417 506.409 214.356C506.409 216.295 507.951 217.867 509.852 217.867Z" fill="#3F3D56"/>
<path d="M521.744 217.867C523.646 217.867 525.187 216.295 525.187 214.356C525.187 212.417 523.646 210.845 521.744 210.845C519.843 210.845 518.302 212.417 518.302 214.356C518.302 216.295 519.843 217.867 521.744 217.867Z" fill="#3F3D56"/>
<path d="M533.637 217.867C535.538 217.867 537.079 216.295 537.079 214.356C537.079 212.417 535.538 210.845 533.637 210.845C531.735 210.845 530.194 212.417 530.194 214.356C530.194 216.295 531.735 217.867 533.637 217.867Z" fill="#3F3D56"/>
<path d="M638.295 212.202H630.592C630.439 212.205 630.293 212.267 630.186 212.376C630.08 212.485 630.02 212.631 630.02 212.784C630.02 212.936 630.08 213.082 630.186 213.191C630.293 213.3 630.439 213.363 630.592 213.366H638.295C638.448 213.363 638.594 213.3 638.701 213.191C638.808 213.082 638.867 212.936 638.867 212.784C638.867 212.631 638.808 212.485 638.701 212.376C638.594 212.267 638.448 212.205 638.295 212.202Z" fill="#3F3D56"/>
<path d="M638.295 214.386H630.592C630.439 214.389 630.293 214.452 630.186 214.56C630.08 214.669 630.02 214.816 630.02 214.968C630.02 215.12 630.08 215.267 630.186 215.375C630.293 215.484 630.439 215.547 630.592 215.55H638.295C638.448 215.547 638.594 215.484 638.701 215.375C638.808 215.267 638.867 215.12 638.867 214.968C638.867 214.816 638.808 214.669 638.701 214.56C638.594 214.452 638.448 214.389 638.295 214.386Z" fill="#3F3D56"/>
<path d="M638.295 216.568H630.592C630.439 216.571 630.293 216.633 630.186 216.742C630.08 216.851 630.02 216.997 630.02 217.149C630.02 217.302 630.08 217.448 630.186 217.557C630.293 217.666 630.439 217.728 630.592 217.731H638.295C638.448 217.728 638.594 217.666 638.701 217.557C638.808 217.448 638.867 217.302 638.867 217.149C638.867 216.997 638.808 216.851 638.701 216.742C638.594 216.633 638.448 216.571 638.295 216.568Z" fill="#3F3D56"/>
<path d="M408.67 330.805H326.617C325.456 330.807 324.343 331.268 323.524 332.088C322.704 332.908 322.244 334.019 322.245 335.177V464.489H413.053V335.177C413.053 334.603 412.94 334.034 412.72 333.504C412.499 332.973 412.177 332.491 411.77 332.085C411.363 331.679 410.879 331.357 410.347 331.137C409.816 330.918 409.246 330.805 408.67 330.805ZM367.919 404.278C365.353 404.266 362.896 403.244 361.081 401.434C359.267 399.624 358.242 397.172 358.23 394.612V379.697C358.232 377.135 359.254 374.679 361.071 372.868C362.888 371.057 365.351 370.04 367.919 370.04C370.488 370.04 372.951 371.057 374.768 372.868C376.584 374.679 377.606 377.135 377.608 379.697V394.612C377.596 397.172 376.572 399.624 374.757 401.434C372.943 403.244 370.485 404.266 367.919 404.278Z" fill="#E6E6E6"/>
<path d="M321.964 460.353V472.829C321.965 473.475 322.223 474.095 322.681 474.552C323.139 475.009 323.76 475.266 324.408 475.268H410.889C411.537 475.264 412.157 475.006 412.615 474.55C413.072 474.093 413.331 473.475 413.334 472.829V460.353L321.964 460.353Z" fill="#CCCCCC"/>
<path d="M544.543 129H193.797C190.783 129.005 187.895 130.201 185.764 132.327C183.633 134.453 182.434 137.334 182.429 140.341V376.462C182.432 379.469 183.631 382.352 185.762 384.478C187.893 386.604 190.783 387.8 193.797 387.803H544.543C547.557 387.8 550.447 386.604 552.578 384.478C554.709 382.352 555.908 379.469 555.911 376.462V140.341C555.906 137.334 554.707 134.453 552.576 132.327C550.445 130.201 547.556 129.005 544.543 129Z" fill="#E6E6E6"/>
<path d="M541.615 137.191H196.727C195.114 137.195 193.568 137.837 192.428 138.976C191.288 140.115 190.648 141.659 190.648 143.269V373.538C190.651 375.145 191.292 376.686 192.432 377.823C193.571 378.96 195.116 379.6 196.727 379.603H541.615C543.227 379.6 544.771 378.96 545.911 377.823C547.05 376.686 547.692 375.145 547.695 373.538V143.269C547.694 141.659 547.054 140.115 545.914 138.976C544.775 137.837 543.229 137.195 541.615 137.191Z" fill="white"/>
<path d="M547.695 143.269V373.538C547.692 375.145 547.05 376.686 545.911 377.823C544.771 378.96 543.227 379.6 541.615 379.603H420C406.546 367.156 395.509 352.34 387.441 335.899C386.91 334.84 386.405 333.768 385.925 332.684C378.574 316.771 374.123 299.679 372.78 282.209C372.691 281.138 372.615 280.066 372.565 278.981C372.4 276.207 372.325 273.396 372.325 270.571C372.3 251.786 375.856 233.168 382.803 215.709C383.22 214.624 383.662 213.552 384.117 212.481C398.097 179.713 423.357 153.01 455.339 137.191H541.615C543.229 137.195 544.775 137.837 545.914 138.976C547.054 140.115 547.694 141.659 547.695 143.269Z" fill="#216DFF"/>
<path d="M524.278 168.917H201.568C201.232 168.91 200.913 168.772 200.678 168.533C200.443 168.293 200.312 167.972 200.312 167.637C200.312 167.302 200.443 166.98 200.678 166.741C200.913 166.502 201.232 166.364 201.568 166.357H524.278C524.614 166.364 524.933 166.502 525.168 166.741C525.403 166.98 525.534 167.302 525.534 167.637C525.534 167.972 525.403 168.293 525.168 168.533C524.933 168.772 524.614 168.91 524.278 168.917Z" fill="#CACACA"/>
<path d="M223.535 159.82C227.689 159.82 231.056 156.386 231.056 152.15C231.056 147.913 227.689 144.479 223.535 144.479C219.382 144.479 216.014 147.913 216.014 152.15C216.014 156.386 219.382 159.82 223.535 159.82Z" fill="#3F3D56"/>
<path d="M249.517 159.82C253.67 159.82 257.038 156.386 257.038 152.15C257.038 147.913 253.67 144.479 249.517 144.479C245.363 144.479 241.996 147.913 241.996 152.15C241.996 156.386 245.363 159.82 249.517 159.82Z" fill="#3F3D56"/>
<path d="M275.498 159.82C279.652 159.82 283.019 156.386 283.019 152.15C283.019 147.913 279.652 144.479 275.498 144.479C271.344 144.479 267.977 147.913 267.977 152.15C267.977 156.386 271.344 159.82 275.498 159.82Z" fill="#3F3D56"/>
<path d="M508.635 146.38H490.179C489.814 146.388 489.465 146.538 489.209 146.798C488.953 147.059 488.809 147.41 488.809 147.775C488.809 148.14 488.953 148.49 489.209 148.751C489.465 149.011 489.814 149.161 490.179 149.169H508.635C509.001 149.161 509.349 149.011 509.606 148.751C509.862 148.49 510.005 148.14 510.005 147.775C510.005 147.41 509.862 147.059 509.606 146.798C509.349 146.538 509.001 146.388 508.635 146.38Z" fill="#3F3D56"/>
<path d="M508.635 151.614H490.179C489.814 151.621 489.465 151.771 489.209 152.032C488.953 152.292 488.809 152.643 488.809 153.008C488.809 153.373 488.953 153.723 489.209 153.984C489.465 154.245 489.814 154.395 490.179 154.402H508.635C509.001 154.395 509.349 154.245 509.606 153.984C509.862 153.723 510.005 153.373 510.005 153.008C510.005 152.643 509.862 152.292 509.606 152.032C509.349 151.771 509.001 151.621 508.635 151.614Z" fill="#3F3D56"/>
<path d="M508.635 156.84H490.179C489.814 156.847 489.465 156.997 489.209 157.258C488.953 157.518 488.809 157.869 488.809 158.234C488.809 158.599 488.953 158.949 489.209 159.21C489.465 159.471 489.814 159.621 490.179 159.628H508.635C509.001 159.621 509.349 159.471 509.606 159.21C509.862 158.949 510.005 158.599 510.005 158.234C510.005 157.869 509.862 157.518 509.606 157.258C509.349 156.997 509.001 156.847 508.635 156.84Z" fill="#3F3D56"/>
<path d="M300.378 243.712H255.25C253.548 243.712 252.168 245.089 252.168 246.787V251.579C252.168 253.278 253.548 254.654 255.25 254.654H300.378C302.08 254.654 303.46 253.278 303.46 251.579V246.787C303.46 245.089 302.08 243.712 300.378 243.712Z" fill="#216DFF"/>
<path d="M326.428 265.596H229.2C227.498 265.596 226.118 266.973 226.118 268.671V273.464C226.118 275.162 227.498 276.539 229.2 276.539H326.428C328.13 276.539 329.51 275.162 329.51 273.464V268.671C329.51 266.973 328.13 265.596 326.428 265.596Z" fill="#E6E6E6"/>
<path d="M326.428 287.481H229.2C227.498 287.481 226.118 288.858 226.118 290.556V295.348C226.118 297.046 227.498 298.423 229.2 298.423H326.428C328.13 298.423 329.51 297.046 329.51 295.348V290.556C329.51 288.858 328.13 287.481 326.428 287.481Z" fill="#E6E6E6"/>
<path d="M234.557 366.401C234.564 370.908 233.759 375.38 232.18 379.603H196.727C195.116 379.6 193.571 378.96 192.432 377.823C191.292 376.686 190.651 375.145 190.648 373.538V329.053C192.629 328.733 194.632 328.573 196.639 328.573C201.618 328.573 206.549 329.551 211.15 331.452C215.75 333.353 219.93 336.139 223.451 339.652C226.973 343.165 229.766 347.335 231.671 351.925C233.576 356.514 234.557 361.433 234.557 366.401Z" fill="#216DFF"/>
<path opacity="0.2" d="M548.01 215.709V212.481H493.775V175.069H490.552V212.481H428.392V175.069H425.169V212.481H384.117C383.662 213.552 383.22 214.624 382.803 215.709H425.169V278.982H372.565C372.615 280.066 372.691 281.138 372.78 282.21H425.169V332.684H385.925C386.405 333.768 386.91 334.84 387.441 335.899H425.169V378.329H428.392V335.899H490.552V378.329H493.775V335.899H548.01V332.684H493.775V332.684C493.775 326.056 495.084 319.492 497.627 313.368C500.169 307.244 503.896 301.68 508.594 296.993C513.293 292.306 518.87 288.588 525.009 286.052C531.147 283.515 537.726 282.209 544.37 282.209H548.01V278.981H493.775V215.709H548.01ZM490.552 332.684H428.392V282.209H490.552V332.684ZM490.552 278.981H428.392V277.721C428.392 261.274 434.941 245.501 446.599 233.871C458.256 222.242 474.066 215.709 490.552 215.709H490.552V278.981Z" fill="black"/>
<path d="M504.343 355.713C503.651 355.745 502.966 355.564 502.381 355.194C501.796 354.825 501.339 354.284 501.072 353.647C500.805 353.01 500.74 352.306 500.888 351.631C501.035 350.956 501.387 350.342 501.895 349.873C501.98 349.535 502.041 349.293 502.127 348.955C502.096 348.882 502.065 348.808 502.035 348.735C498.925 341.338 488.387 341.389 485.304 348.797C482.567 355.372 479.083 361.958 478.225 368.91C477.847 371.983 478.007 375.098 478.696 378.116C472.269 364.13 468.932 348.928 468.91 333.541C468.909 329.68 469.124 325.822 469.554 321.985C469.91 318.84 470.403 315.716 471.035 312.616C474.48 295.791 481.876 280.021 492.616 266.602C497.814 263.773 502.018 259.421 504.661 254.135C505.619 252.235 506.295 250.206 506.67 248.112C506.084 248.189 505.488 248.237 504.901 248.275C504.719 248.285 504.526 248.294 504.344 248.304L504.275 248.307C503.63 248.336 502.991 248.178 502.435 247.853C501.878 247.528 501.427 247.05 501.137 246.475C500.846 245.9 500.729 245.254 500.798 244.614C500.867 243.974 501.12 243.368 501.527 242.868C501.78 242.557 502.033 242.247 502.287 241.936C502.671 241.457 503.065 240.987 503.45 240.507C503.494 240.462 503.536 240.414 503.575 240.363C504.017 239.817 504.459 239.28 504.901 238.733C504.094 237.483 503.008 236.436 501.729 235.674C497.297 233.085 491.184 234.878 487.982 238.877C484.772 242.876 484.166 248.486 485.281 253.483C486.233 257.76 488.309 261.682 490.645 265.413C490.405 265.72 490.155 266.017 489.915 266.324C485.521 271.96 481.692 278.011 478.483 284.392C479.263 277.244 478.331 270.013 475.764 263.294C473.162 257.032 468.285 251.758 463.991 246.344C458.832 239.842 448.254 242.68 447.345 250.923C447.336 251.002 447.328 251.082 447.319 251.162C447.957 251.521 448.582 251.902 449.193 252.305C449.96 252.817 450.555 253.548 450.899 254.402C451.243 255.257 451.32 256.195 451.12 257.094C450.921 257.993 450.453 258.811 449.78 259.441C449.106 260.07 448.258 260.482 447.345 260.623L447.252 260.637C447.479 262.931 447.881 265.204 448.454 267.436C450.113 273.67 453.045 279.494 457.067 284.544C461.088 289.594 466.112 293.76 471.823 296.782C472.198 296.974 472.563 297.166 472.938 297.348C469.713 306.466 467.69 315.963 466.92 325.601C466.484 331.287 466.51 336.999 466.997 342.681L466.968 342.479C465.738 336.161 462.359 330.46 457.403 326.339C450.043 320.307 439.643 318.086 431.702 313.237C427.88 310.903 422.981 313.919 423.648 318.34C423.659 318.411 423.67 318.481 423.681 318.552C424.865 319.033 426.017 319.587 427.132 320.211C427.77 320.57 428.394 320.951 429.005 321.354C429.773 321.866 430.368 322.597 430.712 323.451C431.056 324.306 431.133 325.244 430.933 326.143C430.733 327.042 430.266 327.86 429.593 328.49C428.919 329.119 428.07 329.531 427.158 329.672L427.065 329.686C426.997 329.696 426.94 329.705 426.872 329.715C428.895 334.533 431.734 338.967 435.265 342.825C439.626 347.493 444.898 351.225 450.756 353.789C456.614 356.353 462.936 357.697 469.333 357.737H469.343C471.079 365.265 473.595 372.593 476.851 379.603H503.671C503.767 379.305 503.853 378.998 503.94 378.701C501.457 378.857 498.965 378.709 496.519 378.26C498.509 375.824 500.498 373.369 502.488 370.933C502.533 370.888 502.575 370.84 502.613 370.789C503.623 369.543 504.642 368.306 505.651 367.059L505.652 367.057C505.705 363.236 505.266 359.423 504.344 355.714L504.343 355.713ZM473.63 295.44L473.644 295.421L473.63 295.459V295.44ZM467.689 348.866L467.459 348.349C467.468 347.974 467.468 347.6 467.459 347.217C467.459 347.111 467.439 347.006 467.439 346.9C467.526 347.562 467.603 348.224 467.699 348.886L467.689 348.866Z" fill="#2F2E41"/>
<path d="M265.518 293.135V257.175C265.517 251.655 263.32 246.362 259.407 242.458C255.495 238.555 250.188 236.363 244.655 236.363H168.287C162.754 236.363 157.448 238.555 153.535 242.458C149.623 246.362 147.425 251.655 147.425 257.175V454.455C147.425 459.975 149.623 465.269 153.535 469.172C157.448 473.075 162.754 475.268 168.287 475.268H244.655C247.395 475.268 250.108 474.729 252.639 473.683C255.17 472.637 257.47 471.104 259.407 469.172C261.344 467.239 262.881 464.945 263.929 462.42C264.978 459.895 265.517 457.188 265.517 454.455V318.732C265.866 318.732 266.201 318.594 266.448 318.348C266.695 318.102 266.833 317.768 266.833 317.42V294.448C266.833 294.1 266.695 293.766 266.448 293.52C266.201 293.274 265.866 293.135 265.518 293.135Z" fill="#E6E6E6"/>
<path d="M261.078 257.318V454.313C261.078 458.405 259.46 462.332 256.575 465.24C253.69 468.149 249.771 469.804 245.67 469.847C245.613 469.853 245.556 469.855 245.499 469.854H168.76C164.628 469.854 160.666 468.216 157.745 465.302C154.823 462.387 153.182 458.435 153.181 454.313V257.318C153.182 253.196 154.823 249.244 157.745 246.329C160.666 243.415 164.628 241.777 168.76 241.777H178.072C177.615 242.899 177.44 244.115 177.564 245.32C177.688 246.525 178.108 247.68 178.785 248.686C179.462 249.691 180.376 250.514 181.447 251.084C182.518 251.654 183.713 251.953 184.927 251.953H228.678C229.891 251.95 231.085 251.65 232.154 251.079C233.223 250.509 234.136 249.685 234.812 248.68C235.488 247.676 235.907 246.521 236.031 245.317C236.156 244.114 235.982 242.898 235.526 241.777H245.499C249.631 241.777 253.593 243.415 256.514 246.329C259.436 249.244 261.077 253.196 261.078 257.318Z" fill="white"/>
<path d="M245.862 463.774C245.862 465.815 245.798 467.839 245.67 469.847C245.613 469.853 245.556 469.855 245.499 469.854H168.76C164.628 469.854 160.666 468.216 157.745 465.302C154.823 462.387 153.182 458.435 153.181 454.313V366.523C178.185 367.781 201.747 378.576 218.997 396.677C236.247 414.777 245.865 438.798 245.862 463.774Z" fill="#F2F2F2"/>
<path d="M147.847 313.253C147.376 313.252 146.924 313.065 146.592 312.733C146.259 312.401 146.071 311.951 146.071 311.481V299.434C146.071 298.964 146.258 298.513 146.591 298.181C146.924 297.849 147.376 297.662 147.847 297.662C148.318 297.662 148.769 297.849 149.102 298.181C149.435 298.513 149.623 298.964 149.623 299.434V311.481C149.622 311.951 149.435 312.401 149.102 312.733C148.769 313.065 148.318 313.252 147.847 313.253Z" fill="#E6E6E6"/>
<path d="M216.552 303.633H197.707C196.005 303.633 194.625 305.01 194.625 306.708V311.501C194.625 313.199 196.005 314.576 197.707 314.576H216.552C218.254 314.576 219.634 313.199 219.634 311.501V306.708C219.634 305.01 218.254 303.633 216.552 303.633Z" fill="#216DFF"/>
<path d="M242.602 325.518H171.657C169.955 325.518 168.575 326.895 168.575 328.593V333.385C168.575 335.083 169.955 336.46 171.657 336.46H242.602C244.304 336.46 245.684 335.083 245.684 333.385V328.593C245.684 326.895 244.304 325.518 242.602 325.518Z" fill="#E6E6E6"/>
<path d="M242.602 347.402H171.657C169.955 347.402 168.575 348.779 168.575 350.477V355.27C168.575 356.968 169.955 358.344 171.657 358.344H242.602C244.304 358.344 245.684 356.968 245.684 355.27V350.477C245.684 348.779 244.304 347.402 242.602 347.402Z" fill="#E6E6E6"/>
<path d="M225.532 458.643C225.207 458.658 224.885 458.573 224.611 458.4C224.336 458.226 224.122 457.973 223.996 457.674C223.871 457.375 223.841 457.044 223.91 456.728C223.979 456.411 224.144 456.123 224.383 455.903L224.491 455.472C224.477 455.438 224.463 455.403 224.448 455.369C224.121 454.598 223.573 453.941 222.873 453.48C222.173 453.019 221.352 452.775 220.513 452.778C219.674 452.781 218.855 453.031 218.158 453.498C217.461 453.964 216.918 454.625 216.597 455.398C215.313 458.483 213.678 461.574 213.275 464.836C213.098 466.278 213.173 467.74 213.496 469.156C210.48 462.593 208.914 455.459 208.904 448.239C208.903 446.427 209.004 444.617 209.206 442.816C209.373 441.34 209.605 439.874 209.901 438.419C211.518 430.524 214.988 423.124 220.028 416.827C222.468 415.499 224.44 413.457 225.681 410.976C226.13 410.084 226.448 409.132 226.624 408.15C226.348 408.186 226.069 408.209 225.794 408.226C225.708 408.231 225.618 408.235 225.532 408.24L225.5 408.241C225.197 408.255 224.897 408.181 224.636 408.028C224.375 407.876 224.163 407.651 224.027 407.382C223.891 407.112 223.835 406.809 223.868 406.508C223.9 406.208 224.019 405.924 224.21 405.689C224.329 405.543 224.448 405.397 224.567 405.252C224.747 405.027 224.932 404.806 225.112 404.581C225.133 404.56 225.153 404.537 225.171 404.514C225.379 404.257 225.586 404.005 225.794 403.749C225.415 403.162 224.905 402.671 224.305 402.313C222.225 401.098 219.356 401.939 217.854 403.816C216.347 405.693 216.063 408.325 216.586 410.67C217.101 412.665 217.952 414.558 219.104 416.268C218.991 416.413 218.874 416.552 218.761 416.696C216.699 419.341 214.902 422.18 213.396 425.175C213.762 421.82 213.325 418.427 212.12 415.274C210.9 412.336 208.611 409.861 206.596 407.32C206.063 406.638 205.339 406.129 204.515 405.856C203.692 405.584 202.807 405.562 201.971 405.792C201.135 406.022 200.386 406.494 199.819 407.148C199.251 407.803 198.892 408.61 198.784 409.469C198.78 409.506 198.776 409.544 198.772 409.581C199.072 409.75 199.365 409.928 199.651 410.118C200.012 410.358 200.291 410.701 200.452 411.102C200.613 411.503 200.65 411.943 200.556 412.365C200.462 412.787 200.243 413.171 199.927 413.466C199.611 413.761 199.213 413.955 198.785 414.021L198.741 414.027C198.847 415.104 199.036 416.17 199.305 417.218C200.083 420.143 201.459 422.876 203.346 425.246C205.233 427.616 207.591 429.571 210.271 430.989C210.447 431.079 210.618 431.169 210.794 431.255C209.281 435.533 208.332 439.99 207.97 444.513C207.766 447.181 207.778 449.861 208.006 452.528L207.993 452.433C207.415 449.468 205.83 446.793 203.504 444.859C200.05 442.028 195.17 440.986 191.444 438.711C191.048 438.457 190.587 438.322 190.117 438.321C189.646 438.319 189.185 438.453 188.787 438.704C188.39 438.956 188.073 439.316 187.874 439.741C187.675 440.167 187.603 440.64 187.664 441.106L187.68 441.205C188.235 441.431 188.776 441.691 189.299 441.983C189.598 442.152 189.891 442.331 190.178 442.52C190.538 442.76 190.817 443.103 190.979 443.504C191.14 443.905 191.176 444.345 191.083 444.767C190.989 445.189 190.77 445.573 190.454 445.868C190.138 446.164 189.739 446.357 189.311 446.423L189.267 446.43C189.236 446.434 189.209 446.439 189.177 446.443C190.126 448.704 191.459 450.785 193.115 452.595C195.162 454.786 197.636 456.537 200.385 457.74C203.134 458.944 206.101 459.574 209.103 459.593H209.107C209.922 463.126 211.103 466.565 212.63 469.854H225.216C225.261 469.715 225.302 469.57 225.342 469.431C224.177 469.504 223.008 469.435 221.86 469.224C222.794 468.081 223.727 466.929 224.661 465.786C224.682 465.764 224.702 465.742 224.72 465.718C225.194 465.133 225.672 464.553 226.145 463.968L226.146 463.967C226.171 462.174 225.965 460.384 225.532 458.644L225.532 458.643ZM211.119 430.359L211.126 430.35L211.119 430.368V430.359ZM208.331 455.43L208.223 455.187C208.227 455.012 208.227 454.836 208.223 454.656C208.223 454.607 208.214 454.557 208.214 454.508C208.255 454.818 208.291 455.129 208.336 455.439L208.331 455.43Z" fill="#CCCCCC"/>
<path d="M147.492 289.867C147.021 289.866 146.569 289.679 146.236 289.347C145.903 289.015 145.716 288.565 145.716 288.095V276.048C145.716 275.578 145.903 275.127 146.236 274.795C146.569 274.463 147.021 274.276 147.492 274.276C147.963 274.276 148.414 274.463 148.747 274.795C149.08 275.127 149.267 275.578 149.267 276.048V288.095C149.267 288.565 149.08 289.015 148.747 289.347C148.414 289.679 147.962 289.866 147.492 289.867Z" fill="#E6E6E6"/>
<path d="M194.73 243.804C194.731 243.334 194.918 242.884 195.251 242.551C195.584 242.219 196.035 242.032 196.506 242.032H208.582C209.053 242.032 209.505 242.219 209.838 242.551C210.171 242.883 210.358 243.334 210.358 243.804C210.358 244.273 210.171 244.724 209.838 245.056C209.505 245.389 209.053 245.575 208.582 245.575H196.506C196.035 245.575 195.584 245.388 195.251 245.056C194.918 244.724 194.731 244.273 194.73 243.804Z" fill="white"/>
<path d="M147.847 333.804C147.376 333.803 146.924 333.617 146.592 333.285C146.259 332.952 146.071 332.502 146.071 332.032V319.985C146.071 319.515 146.258 319.065 146.591 318.732C146.924 318.4 147.376 318.213 147.847 318.213C148.318 318.213 148.769 318.4 149.102 318.732C149.435 319.065 149.623 319.515 149.623 319.985V332.032C149.622 332.502 149.435 332.952 149.102 333.285C148.769 333.617 148.318 333.803 147.847 333.804Z" fill="#E6E6E6"/>
<path d="M215.331 245.575C216.311 245.575 217.106 244.782 217.106 243.804C217.106 242.825 216.311 242.032 215.331 242.032C214.35 242.032 213.555 242.825 213.555 243.804C213.555 244.782 214.35 245.575 215.331 245.575Z" fill="white"/>
<path d="M338.54 289.234L335.335 289.919C335.314 288.581 335.147 287.25 334.837 285.949C334.545 287.543 333.931 289.06 333.032 290.409L314.651 294.325L297.003 275.746C296.976 266.456 302.147 259.396 311.419 259.396C311.978 259.396 312.557 259.423 313.143 259.477C318.152 258.641 323.291 259.776 327.478 262.644C331.665 265.512 334.574 269.888 335.591 274.852C342.162 281.308 339.779 285.103 338.54 289.234Z" fill="#2F2E41"/>
<path d="M347.577 506.514H354.244L357.417 480.857L347.575 480.857L347.577 506.514Z" fill="#FFB6B6"/>
<path d="M345.923 503.233L356.463 502.605V507.11L366.484 514.014C366.979 514.355 367.352 514.845 367.548 515.412C367.744 515.98 367.753 516.594 367.574 517.167C367.395 517.74 367.037 518.241 366.553 518.597C366.068 518.952 365.483 519.144 364.881 519.144H352.333L350.17 514.688L349.326 519.144H344.594L345.923 503.233Z" fill="#2F2E41"/>
<path d="M269.463 499.274L275.262 502.556L290.713 481.803L282.154 476.958L269.463 499.274Z" fill="#FFB6B6"/>
<path d="M269.648 495.606L279.126 500.249L276.897 504.167L282.197 515.105C282.459 515.646 282.541 516.255 282.431 516.845C282.321 517.435 282.025 517.974 281.586 518.384C281.147 518.795 280.588 519.054 279.991 519.125C279.393 519.196 278.789 519.074 278.266 518.778L267.352 512.6L267.675 507.659L264.736 511.119L260.621 508.79L269.648 495.606Z" fill="#2F2E41"/>
<path d="M372.222 293.729C371.368 293.852 370.551 294.161 369.829 294.633C369.107 295.105 368.498 295.73 368.044 296.462C367.591 297.195 367.303 298.018 367.203 298.873C367.103 299.729 367.191 300.596 367.463 301.413L357.26 310.223L361.115 317.714L375.348 305.071C376.694 304.525 377.793 303.505 378.435 302.204C379.078 300.904 379.22 299.413 378.835 298.015C378.45 296.617 377.564 295.408 376.345 294.618C375.126 293.828 373.66 293.512 372.223 293.729H372.222Z" fill="#FFB6B6"/>
<path d="M361.948 324.024C358.545 329.167 350.917 334.133 339.596 338.536C338.972 338.785 338.302 338.903 337.63 338.881C336.958 338.859 336.297 338.698 335.691 338.408C331.418 336.469 328.68 329.258 328.423 328.559L320.149 317.424C320.002 317.261 316.133 312.881 316.576 308.574C316.676 307.672 316.97 306.801 317.439 306.023C317.907 305.245 318.539 304.577 319.291 304.066C325.555 299.433 339.592 315.521 341.414 317.66L350.575 312.091L357.251 309.12L362.639 302.579L370.227 310.318L363.403 321.148C363.039 322.163 362.55 323.129 361.948 324.024Z" fill="#2F2E41"/>
<path d="M338.152 343.754C338.152 343.754 357.757 374.907 354.205 378.45C350.654 381.994 345.126 382.924 345.126 382.924L332.895 367.112L338.152 343.754Z" fill="#2F2E41"/>
<path d="M320.819 301.206L330.058 307.441C334.353 310.34 337.583 314.556 339.259 319.451C340.935 324.346 340.965 329.653 339.344 334.566L336.743 342.454L320.819 301.206Z" fill="#2F2E41"/>
<path d="M304.48 386.246L303.245 390.538L299.03 442.3L277.97 481.453L288.021 488.615L316.739 451.371L328.097 414.391L345.935 496.255L359.337 495.3L350.029 381.797L332.367 349.848L304.48 386.246Z" fill="#2F2E41"/>
<path d="M319.247 302.774L332.107 313.258C334.929 315.56 336.962 318.682 337.921 322.19C338.356 323.783 338.563 325.43 338.536 327.081L338.152 349.848L349.943 381.285C349.943 381.285 317.977 393.332 313.715 382.702C309.453 372.072 319.247 302.774 319.247 302.774Z" fill="#216DFF"/>
<path d="M323.093 388.22C307.125 388.22 303.233 388.34 302.981 388.289L302.728 388.238V378.656L306.611 361.442C306.158 356.098 305.094 349.051 305.191 343.017C305.539 321.208 304.464 299.904 304.464 299.904L312.916 292.121L316.756 294.613L323.878 301.719C332.157 322.044 338.726 341.18 338.767 342.409L339.288 363.568L337.157 372.072C327.516 378.861 336.325 388.22 323.093 388.22Z" fill="#2F2E41"/>
<path opacity="0.2" d="M308.046 318.903L306.105 330.992L319.247 336.399L308.046 318.903Z" fill="black"/>
<path d="M321.286 289.853C328.392 289.853 334.153 284.106 334.153 277.016C334.153 269.927 328.392 264.18 321.286 264.18C314.179 264.18 308.418 269.927 308.418 277.016C308.418 284.106 314.179 289.853 321.286 289.853Z" fill="#FFB6B6"/>
<path opacity="0.2" d="M299.725 342.148C303.15 346.103 307.795 348.812 312.931 349.848C318.066 350.883 323.401 350.187 328.097 347.869L330.897 346.486L299.725 342.148Z" fill="black"/>
<path d="M344.5 339.193C343.926 338.549 343.218 338.039 342.425 337.699C341.632 337.358 340.774 337.195 339.911 337.221C339.048 337.247 338.201 337.462 337.431 337.849C336.66 338.237 335.984 338.789 335.45 339.465L322.458 335.827L318.316 343.164L336.735 348.045C337.934 348.865 339.393 349.217 340.835 349.035C342.277 348.854 343.602 348.151 344.559 347.06C345.516 345.968 346.039 344.565 346.028 343.115C346.017 341.665 345.473 340.269 344.5 339.193H344.5Z" fill="#FFB6B6"/>
<path d="M313.497 347.335C307.321 347.335 298.963 343.722 289.042 336.725C288.489 336.343 288.022 335.85 287.669 335.278C287.317 334.706 287.088 334.068 286.996 333.403C286.264 328.778 290.787 322.525 291.23 321.926L295.984 308.901C296.039 308.69 297.571 303.055 301.417 301.05C302.227 300.635 303.117 300.401 304.026 300.362C304.936 300.323 305.842 300.482 306.685 300.826C314.011 303.487 308.29 324.039 307.505 326.734L317.211 331.291L323.375 335.211L331.816 336.092L329.525 346.673L316.705 346.961C315.655 347.217 314.578 347.343 313.497 347.335Z" fill="#2F2E41"/>
<path d="M336.715 268.572C335.685 269.909 332.137 271.091 327.922 272.045C327.928 271.957 327.928 271.87 327.928 271.783C327.907 270.445 327.74 269.114 327.43 267.813C327.139 269.406 326.525 270.924 325.626 272.273C325.558 272.374 325.491 272.475 325.417 272.575C321.801 273.287 317.977 273.838 314.981 274.208C317.041 281.61 324.939 287.682 324.084 292.183L300.942 296.898C301.084 295.028 300.934 293.147 300.498 291.323C300.055 293.73 298.885 295.945 297.145 297.67L295.178 298.073L294.593 295.192C289.516 283.027 296.592 270.574 308.187 264.132C310.254 261.04 313.464 258.891 317.115 258.154L320.004 257.563C321.825 257.191 323.703 257.18 325.529 257.533C327.355 257.885 329.093 258.592 330.645 259.614C332.197 260.637 333.532 261.954 334.573 263.491C335.615 265.028 336.343 266.754 336.715 268.572Z" fill="#2F2E41"/>
<path d="M391.997 501.288L392.339 493.612C395.906 491.709 399.885 490.705 403.93 490.685C398.363 495.225 399.059 503.978 395.285 510.084C394.093 511.98 392.489 513.583 390.591 514.776C388.694 515.969 386.552 516.721 384.323 516.975L379.665 519.821C379.025 516.266 379.166 512.614 380.078 509.119C380.989 505.623 382.649 502.366 384.944 499.572C386.247 498.017 387.741 496.633 389.39 495.45C390.506 498.385 391.997 501.288 391.997 501.288Z" fill="#F2F2F2"/>
</g>
<defs>
<clipPath id="clip0_13_2">
<rect width="611" height="391" fill="white" transform="translate(78 129)"/>
</clipPath>
</defs>
</svg>
