<svg width="589" height="590" viewBox="0 0 589 590" fill="none" xmlns="http://www.w3.org/2000/svg">
<g clip-path="url(#clip0_1_1975)">
<path opacity="0.4" d="M305.264 590C302.629 590.078 300.019 589.473 297.685 588.246L3.26814 418.113C2.35549 417.685 1.57481 417.019 1.00809 416.185C0.441366 415.351 0.109507 414.379 0.0473633 413.372C0.196319 412.069 0.68348 410.827 1.46041 409.771C2.23734 408.715 3.27697 407.88 4.47593 407.351L193.436 298.141C196.073 296.673 199.019 295.845 202.034 295.726C205.049 295.607 208.05 296.198 210.795 297.454L505.212 467.586C506.125 468.014 506.906 468.68 507.472 469.514C508.039 470.349 508.371 471.32 508.433 472.327C508.282 473.626 507.796 474.864 507.024 475.92C506.252 476.975 505.22 477.812 504.028 478.348L314.973 587.558C311.993 589.175 308.653 590.015 305.264 590ZM298.396 587.179C300.953 588.329 303.743 588.864 306.544 588.741C309.344 588.617 312.077 587.839 314.523 586.468L503.484 477.282C504.483 476.852 505.356 476.173 506.02 475.31C506.683 474.447 507.114 473.428 507.273 472.351C507.206 471.564 506.932 470.81 506.478 470.164C506.025 469.519 505.408 469.005 504.691 468.677L210.18 298.544C207.623 297.396 204.834 296.86 202.035 296.979C199.235 297.099 196.502 297.87 194.052 299.231L5.09167 408.442C4.09074 408.869 3.2165 409.547 2.55294 410.411C1.88938 411.274 1.45878 412.294 1.30252 413.372C1.37087 414.155 1.64594 414.906 2.09953 415.547C2.55313 416.189 3.16894 416.698 3.88388 417.023L298.396 587.179Z" fill="#172F78"/>
<path d="M305.264 562.715C302.622 562.781 300.007 562.178 297.662 560.961L3.24446 390.805C2.33194 390.374 1.55044 389.708 0.980252 388.874C0.410061 388.041 0.0717267 387.071 0 386.064C0.145694 384.754 0.631019 383.504 1.40784 382.44C2.18467 381.375 3.226 380.533 4.42857 379.995L193.413 270.785C196.059 269.318 199.012 268.492 202.034 268.372C205.057 268.253 208.065 268.844 210.819 270.098L505.236 440.207C506.149 440.637 506.93 441.304 507.5 442.137C508.07 442.97 508.409 443.94 508.481 444.948C508.335 446.258 507.85 447.507 507.073 448.572C506.296 449.636 505.255 450.479 504.052 451.016L315.092 560.203C312.084 561.867 308.7 562.732 305.264 562.715ZM203.217 269.647C200.019 269.652 196.874 270.468 194.076 272.018L5.11536 381.133C4.12423 381.555 3.25893 382.227 2.60335 383.083C1.94777 383.938 1.52415 384.949 1.37357 386.016C1.43813 386.791 1.70959 387.535 2.15956 388.168C2.60952 388.802 3.22143 389.304 3.93125 389.62L298.396 559.776C300.94 560.923 303.717 561.459 306.506 561.34C309.294 561.22 312.015 560.449 314.452 559.088L503.413 449.878C504.404 449.456 505.269 448.784 505.925 447.929C506.58 447.073 507.004 446.063 507.154 444.995C507.092 444.223 506.824 443.481 506.378 442.847C505.933 442.214 505.326 441.711 504.62 441.392L210.156 271.236C208.015 270.125 205.627 269.579 203.217 269.647Z" fill="#03A7D3"/>
<path d="M583.127 170.678L289.87 1.13784C288.982 0.593832 287.993 0.237474 286.963 0.0907079C285.932 -0.056058 284.883 0.00987584 283.879 0.284449L278.432 2.18087L280.35 2.63127C279.538 3.62592 278.926 4.76919 278.55 5.99741L212.24 221.526C211.463 224.201 211.566 227.056 212.534 229.668C213.502 232.28 215.284 234.512 217.616 236.033L510.872 405.502C511.545 405.902 512.271 406.205 513.027 406.403L512.317 407.967L517.503 406.142C518.658 405.652 519.685 404.903 520.506 403.954C521.327 403.005 521.92 401.88 522.24 400.666L588.55 185.114C589.294 182.443 589.169 179.605 588.194 177.009C587.219 174.414 585.445 172.196 583.127 170.678Z" fill="url(#paint0_linear_1_1975)"/>
<path d="M500.358 413.562L210.772 246.274C208.146 245.087 205.28 244.53 202.401 244.65C199.523 244.769 196.712 245.561 194.194 246.961L7.10466 355.128L0.876236 352.758L2.62872 361.529C2.79799 362.281 3.12947 362.986 3.59992 363.597C4.07038 364.207 4.66843 364.706 5.35217 365.061L297.685 533.961C300.311 535.148 303.177 535.704 306.055 535.585C308.934 535.466 311.745 534.674 314.263 533.273L502.063 424.846C503.023 424.381 503.873 423.718 504.559 422.901C505.245 422.084 505.75 421.131 506.041 420.104L507.841 411.571L500.358 413.562Z" fill="url(#paint1_linear_1_1975)"/>
<path d="M297.993 526.257L3.57601 356.1C-0.710467 353.611 -0.165776 349.297 4.7838 346.429L193.744 237.218C196.286 235.798 199.125 234.996 202.034 234.876C204.942 234.757 207.838 235.324 210.487 236.531L504.905 406.687C509.191 409.058 508.646 413.491 503.697 416.359L314.736 525.545C312.195 526.964 309.357 527.767 306.449 527.891C303.542 528.014 300.646 527.455 297.993 526.257Z" fill="url(#paint2_linear_1_1975)"/>
<path d="M3.576 351.146L297.993 521.302C300.645 522.498 303.539 523.059 306.446 522.94C309.352 522.82 312.191 522.024 314.736 520.615L503.697 411.405C504.998 410.699 506.111 409.691 506.941 408.465C508.717 410.836 507.604 414.083 503.697 416.359L314.736 525.545C312.195 526.964 309.357 527.767 306.449 527.891C303.542 528.014 300.646 527.455 297.993 526.257L3.576 356.1C2.94479 355.851 2.37837 355.462 1.91957 354.962C1.46078 354.461 1.12161 353.863 0.927699 353.212C0.733792 352.562 0.690224 351.875 0.800288 351.205C0.910351 350.535 1.17117 349.899 1.56302 349.344C2.09547 350.084 2.78236 350.699 3.576 351.146Z" fill="white"/>
<path d="M505.852 407.256L212.595 237.787C210.266 236.263 208.487 234.032 207.519 231.42C206.552 228.809 206.446 225.955 207.219 223.28L273.529 7.75162C273.793 6.57558 274.334 5.47989 275.108 4.55645C275.882 3.63301 276.865 2.90873 277.976 2.44435C279.087 1.97998 280.293 1.78904 281.494 1.88756C282.694 1.98608 283.853 2.37118 284.873 3.01057L578.13 172.361C580.453 173.89 582.228 176.122 583.195 178.732C584.162 181.342 584.271 184.193 583.506 186.868L517.195 402.397C516.952 403.586 516.425 404.699 515.659 405.639C514.892 406.58 513.909 407.321 512.794 407.799C511.679 408.276 510.466 408.476 509.256 408.382C508.047 408.288 506.879 407.901 505.852 407.256Z" fill="#03A7D3"/>
<path d="M509.878 409.034C508.35 409.009 506.856 408.584 505.544 407.801L212.287 238.333C209.836 236.735 207.962 234.391 206.943 231.647C205.924 228.902 205.813 225.902 206.627 223.09L272.937 7.56197C273.285 6.25023 273.926 5.03486 274.812 4.00804C275.698 2.98122 276.807 2.16991 278.053 1.63566C279.213 1.20644 280.456 1.04741 281.687 1.17063C282.918 1.29385 284.105 1.69608 285.157 2.34681L578.438 171.816C580.884 173.418 582.752 175.763 583.771 178.506C584.789 181.248 584.904 184.245 584.098 187.058L517.788 402.586C517.444 403.9 516.804 405.116 515.917 406.144C515.03 407.171 513.92 407.981 512.672 408.513C511.782 408.861 510.834 409.038 509.878 409.034ZM280.824 2.37052C280.012 2.36237 279.207 2.51546 278.455 2.82092C277.389 3.28218 276.442 3.98112 275.687 4.8644C274.932 5.74767 274.388 6.79195 274.098 7.91755L207.788 223.469C207.06 226.009 207.161 228.714 208.077 231.192C208.993 233.669 210.675 235.789 212.879 237.242L506.136 406.711C507.027 407.273 508.035 407.622 509.083 407.729C510.131 407.836 511.189 407.698 512.175 407.327C513.246 406.87 514.199 406.173 514.958 405.29C515.718 404.406 516.265 403.359 516.556 402.231L582.866 186.679C583.613 184.148 583.528 181.443 582.624 178.964C581.72 176.485 580.045 174.361 577.846 172.906L284.542 3.43725C283.421 2.75324 282.136 2.38471 280.824 2.37052Z" fill="#03A7D3"/>
<g opacity="0.5">
<path d="M150.429 324.904L140.696 319.286C139.914 318.836 140.009 318.03 140.909 317.508L152.395 310.871C152.869 310.633 153.392 310.509 153.922 310.509C154.453 310.509 154.976 310.633 155.45 310.871L165.183 316.489C165.965 316.939 165.87 317.721 164.97 318.243L153.484 324.762C153.021 325.022 152.504 325.17 151.974 325.195C151.443 325.22 150.914 325.12 150.429 324.904Z" fill="#380031"/>
<path d="M165.468 333.604L155.734 327.962C154.953 327.512 155.047 326.729 155.947 326.208L167.433 319.57C167.896 319.31 168.413 319.162 168.944 319.137C169.474 319.113 170.003 319.212 170.488 319.428L180.222 325.07C181.003 325.521 180.908 326.303 180.008 326.824L168.523 333.462C168.06 333.722 167.542 333.87 167.012 333.895C166.481 333.92 165.953 333.82 165.468 333.604Z" fill="#380031"/>
<path d="M180.506 342.28L170.772 336.615C169.991 336.164 170.086 335.358 170.985 334.837L182.471 328.199C182.936 327.943 183.454 327.799 183.985 327.778C184.515 327.757 185.043 327.861 185.526 328.081L195.26 333.699C196.041 334.149 195.947 334.955 195.047 335.477L183.561 342.114C183.1 342.378 182.583 342.531 182.053 342.559C181.522 342.588 180.993 342.493 180.506 342.28Z" fill="#380031"/>
<path d="M201.299 335.097L191.565 329.503C190.784 329.053 190.879 328.27 191.778 327.749L201.441 322.154C201.911 321.917 202.43 321.793 202.956 321.793C203.483 321.793 204.002 321.917 204.472 322.154L214.229 327.773C215.011 328.247 214.892 329.029 213.992 329.55L204.354 335.121C203.878 335.355 203.354 335.475 202.823 335.471C202.293 335.467 201.771 335.339 201.299 335.097Z" fill="#380031"/>
<path d="M216.337 343.726L206.603 338.108C205.822 337.658 205.917 336.852 206.817 336.33L216.479 330.759C216.94 330.503 217.454 330.359 217.981 330.339C218.507 330.318 219.031 330.421 219.51 330.641L229.244 336.259C230.025 336.709 229.93 337.492 229.031 338.013L219.392 343.726C218.918 343.964 218.395 344.088 217.864 344.088C217.334 344.088 216.811 343.964 216.337 343.726Z" fill="#380031"/>
<path d="M231.375 352.497L221.642 346.855C220.86 346.405 220.955 345.623 221.855 345.101L231.493 339.53C231.956 339.27 232.474 339.122 233.004 339.097C233.535 339.072 234.063 339.172 234.548 339.388L244.282 345.03C245.063 345.48 244.969 346.263 244.069 346.784L234.454 352.355C233.988 352.619 233.466 352.769 232.931 352.794C232.397 352.819 231.863 352.717 231.375 352.497Z" fill="#380031"/>
<path d="M246.413 361.173L236.68 355.579C235.898 355.128 235.993 354.322 236.893 353.801L246.532 348.23C247.006 347.992 247.529 347.869 248.059 347.869C248.59 347.869 249.113 347.992 249.587 348.23L259.32 353.848C260.102 354.299 260.007 355.105 259.107 355.626L249.468 361.197C248.992 361.431 248.468 361.551 247.938 361.547C247.408 361.543 246.886 361.415 246.413 361.173Z" fill="#380031"/>
<path d="M261.451 369.802L251.718 364.16C250.937 363.71 251.031 362.927 251.931 362.406L261.57 356.835C262.033 356.575 262.55 356.427 263.081 356.402C263.611 356.377 264.14 356.477 264.625 356.693L274.358 362.335C275.14 362.785 275.045 363.567 274.145 364.089L264.506 369.802C264.032 370.04 263.509 370.163 262.979 370.163C262.449 370.163 261.926 370.04 261.451 369.802Z" fill="#380031"/>
<path d="M276.49 378.549L266.756 372.931C265.975 372.481 266.069 371.698 266.969 371.177L276.608 365.582C277.073 365.326 277.591 365.182 278.122 365.161C278.652 365.141 279.18 365.244 279.663 365.464L289.396 371.082C290.178 371.532 290.083 372.338 289.183 372.86L279.45 378.431C278.997 378.672 278.496 378.808 277.983 378.828C277.471 378.849 276.96 378.754 276.49 378.549Z" fill="#380031"/>
<path d="M291.528 387.249L281.818 381.655C281.037 381.204 281.131 380.422 282.031 379.9L291.67 374.33C292.144 374.092 292.667 373.968 293.197 373.968C293.728 373.968 294.251 374.092 294.725 374.33L304.458 379.948C305.24 380.398 305.145 381.18 304.245 381.702L294.583 387.296C294.106 387.531 293.581 387.648 293.05 387.64C292.519 387.632 291.997 387.498 291.528 387.249Z" fill="#380031"/>
<path d="M306.566 395.878L296.809 390.26C296.027 389.809 296.146 389.027 297.046 388.505L306.684 382.911C307.149 382.655 307.668 382.51 308.198 382.49C308.728 382.469 309.256 382.573 309.739 382.792L319.473 388.434C320.254 388.885 320.16 389.667 319.26 390.188L309.597 395.878C309.127 396.115 308.608 396.239 308.082 396.239C307.555 396.239 307.036 396.115 306.566 395.878Z" fill="#380031"/>
<path d="M321.604 404.625L311.847 399.007C311.066 398.556 311.184 397.75 312.084 397.229L321.723 391.658C322.188 391.402 322.706 391.258 323.236 391.237C323.767 391.216 324.294 391.32 324.778 391.54L334.511 397.158C335.293 397.608 335.198 398.39 334.298 398.912L324.636 404.506C324.175 404.763 323.661 404.907 323.134 404.927C322.607 404.948 322.083 404.844 321.604 404.625Z" fill="#380031"/>
<path d="M336.642 413.325L326.814 407.73C326.033 407.28 326.128 406.498 327.051 405.976L336.69 400.405C337.153 400.145 337.67 399.997 338.2 399.972C338.731 399.948 339.26 400.047 339.745 400.263L349.478 405.905C350.26 406.355 350.165 407.138 349.265 407.659L339.603 413.23C339.149 413.471 338.647 413.605 338.134 413.621C337.62 413.638 337.11 413.536 336.642 413.325Z" fill="#380031"/>
<path d="M223.465 330.996L213.708 325.355C212.927 324.904 213.045 324.122 213.945 323.6L223.584 318.03C224.056 317.786 224.58 317.659 225.111 317.659C225.642 317.659 226.166 317.786 226.639 318.03L236.372 323.648C237.154 324.098 237.059 324.88 236.159 325.402L226.497 330.973C226.028 331.214 225.51 331.342 224.984 331.346C224.457 331.35 223.937 331.23 223.465 330.996Z" fill="#380031"/>
<path d="M208.19 322.178L198.457 316.536C197.675 316.086 197.77 315.304 198.67 314.782L208.403 309.211C208.862 308.951 209.376 308.803 209.902 308.778C210.429 308.754 210.954 308.853 211.435 309.069L221.192 314.711C221.973 315.161 221.879 315.944 220.955 316.465L211.316 322.036C210.844 322.308 210.314 322.462 209.77 322.487C209.227 322.512 208.685 322.406 208.19 322.178Z" fill="#380031"/>
<path d="M192.915 313.336L171.933 301.223C171.151 300.772 171.246 299.99 172.17 299.445L181.808 293.945C182.282 293.707 182.805 293.584 183.336 293.584C183.866 293.584 184.389 293.707 184.863 293.945L205.822 305.798C206.604 306.248 206.509 307.054 205.609 307.576L195.97 313.146C195.511 313.414 194.996 313.571 194.465 313.604C193.935 313.636 193.404 313.545 192.915 313.336Z" fill="#380031"/>
<path d="M203.667 302.598L186.639 292.76C185.858 292.309 185.953 291.527 186.876 291.006L196.562 285.411C197.027 285.155 197.545 285.011 198.076 284.99C198.606 284.97 199.134 285.073 199.617 285.293L216.621 295.13C217.403 295.581 217.308 296.363 216.408 296.885L206.769 302.479C206.298 302.743 205.772 302.892 205.232 302.912C204.693 302.933 204.156 302.825 203.667 302.598Z" fill="#380031"/>
<path d="M238.503 339.673L228.746 334.054C227.965 333.604 228.083 332.822 228.983 332.3L238.622 326.706C239.096 326.468 239.619 326.344 240.149 326.344C240.68 326.344 241.203 326.468 241.677 326.706L251.41 332.324C252.192 332.798 252.097 333.58 251.197 334.102L241.558 339.554C241.095 339.814 240.576 339.96 240.045 339.981C239.514 340.001 238.986 339.896 238.503 339.673Z" fill="#380031"/>
<path d="M253.542 348.467L243.785 342.849C243.003 342.399 243.098 341.593 244.021 341.071L253.66 335.5C254.125 335.244 254.643 335.1 255.174 335.079C255.704 335.059 256.232 335.162 256.715 335.382L266.448 341C267.23 341.45 267.135 342.233 266.235 342.754L256.573 348.349C256.112 348.605 255.598 348.749 255.071 348.77C254.545 348.79 254.021 348.687 253.542 348.467Z" fill="#380031"/>
<path d="M268.556 357.072L258.823 351.43C258.041 350.98 258.136 350.198 259.06 349.676L268.698 344.105C269.161 343.845 269.679 343.697 270.209 343.672C270.739 343.648 271.268 343.747 271.753 343.963L281.487 349.605C282.268 350.055 282.173 350.838 281.273 351.359L271.611 356.93C271.148 357.19 270.631 357.338 270.1 357.363C269.57 357.388 269.041 357.288 268.556 357.072Z" fill="#380031"/>
<path d="M283.594 365.748L273.861 360.13C273.079 359.68 273.174 358.874 274.074 358.352L283.736 352.782C284.211 352.544 284.734 352.42 285.264 352.42C285.794 352.42 286.317 352.544 286.791 352.782L296.525 358.4C297.306 358.85 297.212 359.656 296.312 360.178L286.555 365.63C286.102 365.871 285.601 366.007 285.088 366.028C284.575 366.048 284.065 365.953 283.594 365.748Z" fill="#380031"/>
<path d="M298.633 374.543L288.923 368.806C288.141 368.356 288.236 367.574 289.136 367.052L298.798 361.481C299.261 361.221 299.779 361.073 300.309 361.048C300.839 361.024 301.368 361.123 301.853 361.339L311.587 366.981C312.368 367.431 312.273 368.214 311.35 368.735L301.711 374.306C301.253 374.585 300.735 374.752 300.2 374.793C299.665 374.834 299.128 374.749 298.633 374.543Z" fill="#380031"/>
<path d="M313.671 383.124L303.937 377.506C303.156 377.056 303.251 376.273 304.15 375.752L313.813 370.157C314.278 369.901 314.796 369.757 315.326 369.736C315.857 369.716 316.384 369.819 316.868 370.039L326.601 375.657C327.383 376.108 327.288 376.913 326.364 377.435L316.726 383.006C316.261 383.262 315.743 383.406 315.212 383.427C314.682 383.447 314.154 383.344 313.671 383.124Z" fill="#380031"/>
<path d="M328.709 391.824L318.976 386.182C318.194 385.732 318.289 384.95 319.189 384.428L328.851 378.857C329.321 378.62 329.84 378.496 330.367 378.496C330.893 378.496 331.412 378.62 331.882 378.857L341.639 384.475C342.421 384.926 342.303 385.708 341.403 386.23L331.764 391.824C331.29 392.062 330.767 392.186 330.236 392.186C329.706 392.186 329.183 392.062 328.709 391.824Z" fill="#380031"/>
<path d="M343.747 400.619L333.919 394.882C333.137 394.432 333.232 393.649 334.132 393.128L343.794 387.557C344.253 387.297 344.767 387.149 345.293 387.124C345.82 387.1 346.345 387.199 346.826 387.415L356.583 393.057C357.364 393.507 357.246 394.289 356.346 394.811L346.707 400.382C346.266 400.647 345.769 400.807 345.255 400.848C344.741 400.889 344.225 400.811 343.747 400.619Z" fill="#380031"/>
<path d="M358.785 409.2L349.052 403.582C348.27 403.132 348.365 402.326 349.265 401.804L358.927 396.233C359.388 395.977 359.902 395.833 360.429 395.812C360.955 395.792 361.479 395.895 361.959 396.115L371.692 401.733C372.474 402.183 372.379 402.966 371.479 403.487L361.84 409.082C361.375 409.338 360.857 409.482 360.327 409.503C359.796 409.523 359.269 409.42 358.785 409.2Z" fill="#380031"/>
<path d="M385.522 424.656L364.208 412.377C363.427 411.926 363.522 411.12 364.422 410.599L374.06 405.028C374.525 404.772 375.043 404.627 375.574 404.607C376.104 404.586 376.632 404.69 377.115 404.909L398.429 417.189C399.211 417.639 399.116 418.421 398.216 418.943L388.577 424.514C388.114 424.774 387.597 424.922 387.067 424.947C386.536 424.971 386.008 424.872 385.522 424.656Z" fill="#380031"/>
<path d="M414.794 407.73L396.866 397.371C396.085 396.921 396.179 396.138 397.079 395.617L406.718 390.022C407.183 389.766 407.701 389.622 408.232 389.601C408.762 389.581 409.29 389.684 409.773 389.904L427.701 400.263C428.482 400.714 428.387 401.496 427.487 402.017L417.849 407.73C417.375 407.968 416.852 408.092 416.321 408.092C415.791 408.092 415.268 407.968 414.794 407.73Z" fill="#380031"/>
<path d="M264.814 337.989L255.081 332.348C254.299 331.897 254.394 331.115 255.318 330.593L264.956 325.023C265.419 324.763 265.937 324.614 266.467 324.59C266.997 324.565 267.526 324.664 268.011 324.88L277.745 330.522C278.526 330.973 278.432 331.755 277.532 332.277L267.869 337.847C267.406 338.107 266.889 338.256 266.359 338.28C265.828 338.305 265.299 338.205 264.814 337.989Z" fill="#380031"/>
<path d="M249.421 329.076L239.688 323.458C238.906 323.008 239.001 322.202 239.901 321.68L249.539 316.11C250.013 315.872 250.536 315.748 251.067 315.748C251.597 315.748 252.12 315.872 252.594 316.11L262.328 321.728C263.109 322.178 263.014 322.96 262.115 323.482L252.476 329.076C252.002 329.314 251.479 329.438 250.948 329.438C250.418 329.438 249.895 329.314 249.421 329.076Z" fill="#380031"/>
<path d="M234.004 320.163L224.27 314.545C223.489 314.095 223.584 313.312 224.484 312.791L234.122 307.196C234.587 306.94 235.105 306.796 235.636 306.775C236.166 306.755 236.694 306.858 237.177 307.078L246.911 312.696C247.692 313.146 247.597 313.952 246.697 314.474L237.059 320.021C236.596 320.281 236.078 320.429 235.548 320.454C235.018 320.479 234.489 320.379 234.004 320.163Z" fill="#380031"/>
<path d="M218.587 311.274L208.853 305.632C208.072 305.181 208.167 304.399 209.066 303.878L218.729 298.307C219.192 298.047 219.709 297.898 220.239 297.874C220.77 297.849 221.299 297.949 221.784 298.165L231.517 303.807C232.299 304.257 232.204 305.039 231.28 305.561L221.642 311.131C221.179 311.392 220.661 311.54 220.131 311.565C219.601 311.589 219.072 311.49 218.587 311.274Z" fill="#380031"/>
<path d="M279.853 346.666L270.119 341.047C269.338 340.597 269.432 339.815 270.356 339.293L279.995 333.699C280.46 333.442 280.978 333.298 281.508 333.278C282.038 333.257 282.566 333.361 283.05 333.58L292.783 339.198C293.565 339.649 293.47 340.455 292.57 340.976L282.908 346.547C282.443 346.803 281.924 346.948 281.394 346.968C280.864 346.989 280.336 346.885 279.853 346.666Z" fill="#380031"/>
<path d="M294.891 355.365L285.157 349.724C284.376 349.273 284.471 348.491 285.37 347.969L295.033 342.399C295.496 342.137 296.015 341.989 296.546 341.969C297.077 341.948 297.606 342.055 298.088 342.28L307.821 347.898C308.603 348.349 308.508 349.131 307.608 349.652L297.946 355.223C297.483 355.483 296.965 355.632 296.435 355.656C295.905 355.681 295.376 355.581 294.891 355.365Z" fill="#380031"/>
<path d="M309.929 364.042L300.196 358.423C299.414 357.973 299.509 357.191 300.409 356.669L310.071 351.075C310.545 350.837 311.068 350.713 311.599 350.713C312.129 350.713 312.652 350.837 313.126 351.075L322.859 356.717C323.641 357.167 323.546 357.949 322.623 358.471L312.984 364.042C312.51 364.279 311.987 364.403 311.456 364.403C310.926 364.403 310.403 364.279 309.929 364.042Z" fill="#380031"/>
<path d="M324.967 372.741L315.234 367.123C314.452 366.673 314.547 365.867 315.447 365.345L325.109 359.775C325.57 359.519 326.084 359.374 326.611 359.354C327.137 359.333 327.661 359.437 328.141 359.656L337.898 365.274C338.679 365.725 338.584 366.507 337.661 367.028L328.022 372.623C327.557 372.879 327.039 373.023 326.509 373.044C325.978 373.065 325.45 372.961 324.967 372.741Z" fill="#380031"/>
<path d="M340.005 381.441L330.272 375.799C329.49 375.349 329.585 374.567 330.485 374.045L340.147 368.474C340.606 368.215 341.12 368.066 341.646 368.042C342.173 368.017 342.698 368.116 343.179 368.332L352.936 373.974C353.717 374.424 353.599 375.207 352.699 375.728L343.06 381.299C342.597 381.559 342.08 381.707 341.55 381.732C341.019 381.757 340.49 381.657 340.005 381.441Z" fill="#380031"/>
<path d="M355.044 390.117L345.31 384.499C344.529 384.049 344.623 383.243 345.523 382.721L355.233 377.151C355.703 376.913 356.222 376.789 356.749 376.789C357.275 376.789 357.794 376.913 358.264 377.151L367.998 382.769C368.803 383.219 368.684 384.025 367.785 384.547L358.146 390.117C357.666 390.363 357.134 390.491 356.595 390.491C356.055 390.491 355.524 390.363 355.044 390.117Z" fill="#380031"/>
<path d="M370.082 398.817L360.348 393.175C359.567 392.725 359.662 391.943 360.561 391.421L370.2 385.85C370.663 385.59 371.18 385.442 371.711 385.417C372.241 385.393 372.77 385.492 373.255 385.708L382.989 391.35C383.77 391.8 383.675 392.583 382.775 393.104L373.137 398.675C372.674 398.935 372.156 399.083 371.626 399.108C371.096 399.133 370.567 399.033 370.082 398.817Z" fill="#380031"/>
<path d="M385.12 407.493L375.386 401.875C374.605 401.425 374.7 400.642 375.6 400.121L385.238 394.526C385.703 394.27 386.221 394.126 386.752 394.105C387.282 394.085 387.81 394.188 388.293 394.408L398.027 400.026C398.808 400.477 398.713 401.282 397.814 401.804L388.175 407.375C387.71 407.631 387.192 407.775 386.661 407.796C386.131 407.816 385.603 407.713 385.12 407.493Z" fill="#380031"/>
<path d="M400.229 416.193L390.496 410.575C389.714 410.101 389.809 409.319 390.709 408.797L400.229 403.226C400.703 402.989 401.226 402.865 401.757 402.865C402.287 402.865 402.81 402.989 403.284 403.226L413.018 408.844C413.799 409.295 413.704 410.077 412.804 410.599L403.166 416.193C402.707 416.412 402.206 416.526 401.697 416.526C401.189 416.526 400.688 416.412 400.229 416.193Z" fill="#380031"/>
<path d="M256.905 316.489L247.171 310.871C246.39 310.42 246.484 309.614 247.384 309.093L257.047 303.522C257.517 303.284 258.036 303.161 258.562 303.161C259.089 303.161 259.608 303.284 260.078 303.522L269.835 309.14C270.617 309.591 270.498 310.373 269.598 310.894L259.959 316.489C259.485 316.727 258.962 316.85 258.432 316.85C257.902 316.85 257.379 316.727 256.905 316.489Z" fill="#380031"/>
<path d="M241.937 307.836L232.204 302.218C231.422 301.768 231.517 300.962 232.417 300.44L242.079 294.87C242.554 294.632 243.077 294.508 243.607 294.508C244.137 294.508 244.66 294.632 245.134 294.87L254.868 300.488C255.649 300.938 255.555 301.744 254.655 302.266L244.992 307.836C244.518 308.074 243.995 308.198 243.465 308.198C242.935 308.198 242.412 308.074 241.937 307.836Z" fill="#380031"/>
<path d="M226.994 299.184L217.237 293.566C216.455 293.115 216.574 292.333 217.474 291.812L227.112 286.241C227.575 285.981 228.093 285.832 228.623 285.808C229.153 285.783 229.682 285.883 230.167 286.099L239.901 291.741C240.682 292.191 240.587 292.973 239.688 293.495L230.025 299.065C229.566 299.327 229.052 299.474 228.524 299.495C227.996 299.516 227.472 299.409 226.994 299.184Z" fill="#380031"/>
<path d="M212.027 290.555L202.293 284.913C201.512 284.463 201.607 283.681 202.506 283.159L212.145 277.588C212.608 277.328 213.125 277.18 213.656 277.155C214.186 277.131 214.715 277.23 215.2 277.446L224.981 283.088C225.762 283.539 225.668 284.321 224.768 284.842L215.129 290.413C214.66 290.681 214.134 290.833 213.595 290.858C213.056 290.883 212.518 290.779 212.027 290.555Z" fill="#380031"/>
<path d="M227.349 281.666L217.616 276.024C216.834 275.574 216.929 274.791 217.853 274.27L221.026 272.421C221.5 272.183 222.023 272.059 222.553 272.059C223.084 272.059 223.607 272.183 224.081 272.421L233.814 278.039C234.596 278.489 234.501 279.295 233.601 279.817L230.404 281.642C229.932 281.884 229.41 282.011 228.879 282.016C228.349 282.02 227.825 281.9 227.349 281.666Z" fill="#380031"/>
<path d="M246.934 292.949L237.201 287.308C236.419 286.857 236.514 286.075 237.414 285.553L240.611 283.704C241.076 283.448 241.594 283.304 242.125 283.283C242.655 283.263 243.183 283.366 243.666 283.586L253.399 289.204C254.181 289.654 254.086 290.46 253.163 290.982L249.989 292.807C249.526 293.067 249.009 293.216 248.479 293.24C247.948 293.265 247.419 293.165 246.934 292.949Z" fill="#380031"/>
<path d="M261.83 301.554L252.097 295.913C251.315 295.462 251.41 294.68 252.31 294.158L255.507 292.309C255.981 292.072 256.504 291.948 257.035 291.948C257.565 291.948 258.088 292.072 258.562 292.309L268.296 297.928C269.077 298.378 268.982 299.184 268.082 299.705L264.885 301.554C264.411 301.792 263.888 301.916 263.358 301.916C262.828 301.916 262.305 301.792 261.83 301.554Z" fill="#380031"/>
<path d="M276.726 310.159L266.993 304.541C266.212 304.091 266.306 303.285 267.206 302.763L270.403 300.938C270.866 300.678 271.384 300.53 271.914 300.505C272.444 300.48 272.973 300.58 273.458 300.796L283.192 306.438C283.973 306.888 283.879 307.67 282.979 308.192L279.782 310.041C279.317 310.297 278.798 310.442 278.268 310.462C277.738 310.483 277.21 310.379 276.726 310.159Z" fill="#380031"/>
<path d="M291.623 318.765L281.818 313.146C281.037 312.696 281.131 311.914 282.031 311.392L285.228 309.543C285.691 309.283 286.209 309.135 286.739 309.11C287.269 309.085 287.798 309.185 288.283 309.401L298.017 315.043C298.798 315.493 298.704 316.275 297.804 316.797L294.607 318.646C294.151 318.891 293.645 319.029 293.128 319.05C292.611 319.07 292.096 318.973 291.623 318.765Z" fill="#380031"/>
<path d="M374.818 366.839L365.085 361.221C364.303 360.77 364.398 359.964 365.298 359.443L368.495 357.617C368.954 357.358 369.467 357.209 369.994 357.185C370.52 357.16 371.045 357.259 371.526 357.475L381.26 363.117C382.041 363.567 381.946 364.35 381.047 364.871L377.873 366.72C377.408 366.977 376.89 367.121 376.36 367.141C375.829 367.162 375.301 367.058 374.818 366.839Z" fill="#380031"/>
<path d="M389.714 375.444L379.981 369.802C379.199 369.352 379.294 368.569 380.194 368.048L383.391 366.199C383.852 365.943 384.366 365.798 384.893 365.778C385.419 365.757 385.943 365.861 386.422 366.08L396.179 371.698C396.961 372.149 396.866 372.931 395.943 373.453L392.769 375.302C392.308 375.567 391.79 375.719 391.259 375.743C390.728 375.768 390.198 375.665 389.714 375.444Z" fill="#380031"/>
<path d="M404.61 384.025L394.877 378.383C394.095 377.933 394.19 377.151 395.09 376.629L398.287 374.78C398.752 374.524 399.27 374.379 399.801 374.359C400.331 374.338 400.859 374.442 401.342 374.661L411.076 380.28C411.857 380.73 411.762 381.536 410.862 382.058L407.665 383.883C407.202 384.143 406.685 384.291 406.155 384.316C405.624 384.341 405.095 384.241 404.61 384.025Z" fill="#380031"/>
<path d="M419.506 392.677L409.702 387.059C408.92 386.585 409.015 385.803 409.915 385.281L413.112 383.432C413.577 383.176 414.095 383.032 414.626 383.011C415.156 382.991 415.684 383.094 416.167 383.314L425.901 388.932C426.682 389.406 426.587 390.188 425.687 390.71L422.49 392.559C422.035 392.804 421.529 392.942 421.012 392.963C420.495 392.983 419.98 392.886 419.506 392.677Z" fill="#380031"/>
<path d="M271.943 325.189L262.209 319.547C261.428 319.096 261.523 318.314 262.422 317.793L272.085 312.222C272.544 311.962 273.057 311.814 273.584 311.789C274.11 311.764 274.635 311.864 275.116 312.08L284.849 317.721C285.655 318.172 285.536 318.954 284.636 319.476L274.998 325.046C274.535 325.307 274.017 325.455 273.487 325.48C272.957 325.504 272.428 325.405 271.943 325.189Z" fill="#380031"/>
<path d="M286.981 333.865L277.248 328.247C276.466 327.796 276.561 326.99 277.461 326.469L287.099 320.898C287.564 320.642 288.082 320.497 288.613 320.477C289.143 320.456 289.671 320.56 290.154 320.779L299.888 326.398C300.669 326.848 300.574 327.654 299.675 328.175L290.036 333.746C289.571 334.003 289.053 334.147 288.522 334.167C287.992 334.188 287.464 334.084 286.981 333.865Z" fill="#380031"/>
<path d="M302.019 342.565L292.286 336.923C291.504 336.472 291.599 335.69 292.499 335.169L302.137 329.598C302.6 329.338 303.118 329.189 303.648 329.165C304.179 329.14 304.707 329.24 305.192 329.456L314.926 335.097C315.707 335.548 315.613 336.33 314.713 336.852L305.074 342.422C304.611 342.682 304.094 342.831 303.563 342.856C303.033 342.88 302.504 342.781 302.019 342.565Z" fill="#380031"/>
<path d="M317.057 351.241L307.324 345.623C306.542 345.172 306.637 344.39 307.537 343.868L317.176 338.274C317.65 338.036 318.173 337.912 318.703 337.912C319.234 337.912 319.757 338.036 320.231 338.274L329.964 343.892C330.746 344.342 330.651 345.148 329.751 345.67L320.112 351.241C319.638 351.478 319.115 351.602 318.585 351.602C318.054 351.602 317.531 351.478 317.057 351.241Z" fill="#380031"/>
<path d="M332.095 359.941L322.362 354.299C321.581 353.848 321.675 353.066 322.575 352.544L332.214 346.974C332.679 346.717 333.197 346.573 333.727 346.553C334.258 346.532 334.786 346.636 335.269 346.855L345.002 352.473C345.784 352.924 345.689 353.706 344.789 354.228L335.15 359.822C334.686 360.078 334.167 360.223 333.637 360.243C333.107 360.264 332.579 360.16 332.095 359.941Z" fill="#380031"/>
<path d="M347.134 368.617L337.4 362.999C336.619 362.548 336.713 361.766 337.613 361.244L347.252 355.65C347.717 355.394 348.235 355.249 348.766 355.229C349.296 355.208 349.824 355.312 350.307 355.531L360.04 361.173C360.822 361.624 360.727 362.406 359.827 362.927L350.189 368.498C349.724 368.754 349.206 368.899 348.675 368.919C348.145 368.94 347.617 368.836 347.134 368.617Z" fill="#380031"/>
<path d="M362.172 377.316L352.438 371.698C351.657 371.248 351.752 370.442 352.652 369.92L362.338 364.35C362.812 364.112 363.335 363.988 363.865 363.988C364.395 363.988 364.918 364.112 365.393 364.35L375.126 369.968C375.908 370.418 375.813 371.201 374.913 371.722L365.251 377.316C364.774 377.562 364.247 377.69 363.711 377.69C363.176 377.69 362.648 377.562 362.172 377.316Z" fill="#380031"/>
<path d="M377.21 386.016L367.453 380.374C366.671 379.924 366.79 379.142 367.69 378.62L377.328 373.05C377.791 372.789 378.309 372.641 378.839 372.616C379.37 372.592 379.898 372.691 380.383 372.907L390.117 378.549C390.898 379 390.804 379.782 389.904 380.303L380.241 385.874C379.783 386.134 379.269 386.282 378.743 386.307C378.216 386.332 377.691 386.232 377.21 386.016Z" fill="#380031"/>
<path d="M392.248 394.692L382.491 389.074C381.71 388.624 381.828 387.818 382.728 387.296L392.367 381.726C392.844 381.465 393.377 381.323 393.921 381.31C394.465 381.298 395.004 381.416 395.493 381.655L405.226 387.273C406.008 387.723 405.913 388.529 405.013 389.051L395.351 394.621C394.877 394.882 394.348 395.024 393.808 395.037C393.268 395.049 392.733 394.931 392.248 394.692Z" fill="#380031"/>
<path d="M185.976 326.255L157.297 309.662C156.516 309.211 156.61 308.405 157.51 307.884L167.173 302.313C167.638 302.057 168.156 301.912 168.686 301.892C169.216 301.871 169.744 301.975 170.228 302.195L198.883 318.788C199.665 319.239 199.57 320.021 198.67 320.542L189.031 326.113C188.568 326.373 188.051 326.522 187.521 326.546C186.99 326.571 186.461 326.471 185.976 326.255Z" fill="#380031"/>
<path d="M370.697 433L342.042 416.406C341.237 415.956 341.355 415.174 342.255 414.652L351.894 409.082C352.357 408.821 352.874 408.673 353.404 408.648C353.935 408.624 354.464 408.723 354.949 408.939L383.628 425.533C384.409 425.983 384.315 426.789 383.415 427.311L373.752 432.882C373.288 433.138 372.769 433.282 372.239 433.303C371.709 433.323 371.181 433.22 370.697 433Z" fill="#380031"/>
<path d="M310.568 417.449L300.764 411.831C299.982 411.381 300.077 410.575 300.977 410.053L312.487 403.416C312.947 403.16 313.462 403.016 313.988 402.995C314.515 402.975 315.039 403.078 315.518 403.297L325.275 408.916C326.057 409.366 325.938 410.172 325.038 410.693L313.552 417.331C313.096 417.576 312.591 417.714 312.074 417.735C311.557 417.755 311.042 417.658 310.568 417.449Z" fill="#380031"/>
<path d="M201.299 354.346L185.739 345.338C184.958 344.888 185.053 344.105 185.953 343.584L197.438 336.946C197.902 336.686 198.419 336.538 198.949 336.513C199.48 336.489 200.008 336.588 200.494 336.804L216.076 345.812C216.858 346.263 216.739 347.045 215.84 347.566L204.354 354.228C203.889 354.484 203.371 354.628 202.84 354.649C202.31 354.669 201.782 354.566 201.299 354.346Z" fill="#380031"/>
<path d="M296.027 409.082L280.468 400.074C279.687 399.623 279.781 398.841 280.681 398.319L292.167 391.682C292.63 391.422 293.148 391.273 293.678 391.249C294.208 391.224 294.737 391.324 295.222 391.54L310.805 400.548C311.587 400.998 311.492 401.78 310.592 402.302L299.082 408.939C298.621 409.205 298.104 409.356 297.572 409.381C297.041 409.406 296.511 409.303 296.027 409.082Z" fill="#380031"/>
<path d="M223.063 366.886L207.503 357.949C206.722 357.499 206.817 356.717 207.717 356.195L219.202 349.558C219.665 349.298 220.183 349.149 220.713 349.124C221.243 349.1 221.772 349.199 222.257 349.415L237.84 358.423C238.622 358.874 238.527 359.656 237.604 360.178L226.118 366.815C225.649 367.064 225.129 367.2 224.599 367.212C224.068 367.225 223.542 367.113 223.063 366.886Z" fill="#380031"/>
<path d="M222.376 349.415L290.06 388.529C290.241 388.596 290.397 388.718 290.508 388.877C290.618 389.036 290.677 389.224 290.677 389.418C290.677 389.612 290.618 389.801 290.508 389.959C290.397 390.118 290.241 390.24 290.06 390.307L278.361 397.063C277.889 397.308 277.365 397.436 276.833 397.436C276.301 397.436 275.777 397.308 275.306 397.063L207.598 357.949L222.376 349.415Z" fill="#380031"/>
<path d="M352.604 433.213L363.451 439.472C364.09 439.851 363.995 440.491 363.261 440.918L358.525 443.644C358.136 443.842 357.706 443.945 357.27 443.945C356.833 443.945 356.403 443.842 356.014 443.644L345.168 437.386C344.529 437.006 344.6 436.366 345.358 435.94L350.094 433.213C350.483 433.016 350.913 432.913 351.349 432.913C351.785 432.913 352.215 433.016 352.604 433.213Z" fill="#380031"/>
<path d="M337.448 424.443L348.294 430.701C348.934 431.08 348.839 431.72 348.105 432.147L343.368 434.873C342.984 435.07 342.557 435.173 342.125 435.173C341.692 435.173 341.266 435.07 340.882 434.873L330.035 428.615C329.396 428.235 329.467 427.595 330.201 427.169L334.937 424.443C335.326 424.245 335.756 424.142 336.193 424.142C336.629 424.142 337.059 424.245 337.448 424.443Z" fill="#380031"/>
<path d="M322.409 415.743L333.256 422.025C333.895 422.404 333.801 423.044 333.066 423.471L328.33 426.173C327.955 426.389 327.533 426.513 327.101 426.533C326.669 426.554 326.237 426.471 325.843 426.292L314.973 420.01C314.334 419.654 314.405 419.014 315.163 418.564L319.899 415.861C320.281 415.652 320.706 415.532 321.141 415.512C321.576 415.491 322.01 415.57 322.409 415.743Z" fill="#380031"/>
<path d="M345.76 419.583L356.607 425.841C357.246 426.22 357.175 426.86 356.441 427.287L351.704 430.013C351.315 430.211 350.885 430.314 350.449 430.314C350.013 430.314 349.583 430.211 349.194 430.013L338.348 423.755C337.708 423.376 337.803 422.736 338.537 422.309L343.273 419.583C343.658 419.385 344.084 419.282 344.517 419.282C344.949 419.282 345.375 419.385 345.76 419.583Z" fill="#380031"/>
</g>
<path opacity="0.5" d="M223.82 449.357C221.423 449.422 219.049 448.867 216.929 447.745L141.359 404.08C140.494 403.674 139.755 403.04 139.221 402.247C138.688 401.454 138.379 400.531 138.328 399.576C138.467 398.365 138.914 397.21 139.628 396.222C140.341 395.234 141.296 394.446 142.401 393.934L181.311 371.461C183.69 370.115 186.356 369.357 189.087 369.25C191.818 369.143 194.535 369.689 197.012 370.845L272.582 414.51C273.451 414.918 274.192 415.555 274.726 416.353C275.26 417.15 275.567 418.079 275.613 419.038C275.471 420.245 275.021 421.395 274.308 422.378C273.595 423.362 272.642 424.146 271.54 424.656L232.63 447.128C229.935 448.62 226.9 449.388 223.82 449.357ZM190.144 371.129C187.382 371.11 184.659 371.795 182.235 373.121L143.325 395.593C141.312 396.755 140.151 398.225 140.151 399.647C140.221 400.274 140.452 400.872 140.821 401.383C141.191 401.894 141.686 402.3 142.259 402.563L217.876 446.157C220.075 447.154 222.477 447.617 224.889 447.51C227.3 447.403 229.652 446.728 231.754 445.54L270.664 423.068C272.677 421.906 273.837 420.436 273.837 419.038C273.769 418.407 273.539 417.805 273.17 417.29C272.801 416.775 272.304 416.365 271.73 416.098L196.112 372.433C194.274 371.469 192.219 370.996 190.144 371.058V371.129Z" fill="#380031"/>
<path d="M315.328 85.1493L306.756 80.1949C306.374 79.9445 306.079 79.5829 305.909 79.1589C305.74 78.7349 305.704 78.269 305.808 77.8244C305.848 77.6227 305.937 77.4341 306.067 77.2748C306.197 77.1156 306.364 76.9908 306.553 76.9112C306.743 76.8317 306.949 76.7998 307.153 76.8185C307.358 76.8372 307.555 76.9058 307.727 77.0184L316.299 81.9965C316.685 82.2436 316.986 82.6039 317.159 83.0281C317.333 83.4523 317.372 83.9199 317.27 84.367C317.224 84.5671 317.13 84.7531 316.996 84.9091C316.862 85.0651 316.693 85.1866 316.503 85.2633C316.312 85.34 316.106 85.3697 315.902 85.3499C315.697 85.33 315.501 85.2612 315.328 85.1493Z" fill="white"/>
<path d="M335.766 96.9545L323.12 89.6296C322.736 89.3817 322.438 89.0203 322.269 88.5955C322.099 88.1708 322.065 87.7037 322.173 87.259C322.213 87.0574 322.302 86.8687 322.432 86.7095C322.561 86.5503 322.728 86.4255 322.918 86.3459C323.107 86.2663 323.313 86.2345 323.518 86.2532C323.722 86.2719 323.919 86.3405 324.091 86.4531L336.737 93.778C337.121 94.0259 337.419 94.3873 337.589 94.812C337.758 95.2368 337.792 95.7038 337.684 96.1485C337.644 96.3501 337.555 96.5388 337.426 96.698C337.296 96.8572 337.129 96.9821 336.939 97.0617C336.75 97.1412 336.544 97.1731 336.339 97.1544C336.135 97.1357 335.938 97.0671 335.766 96.9545Z" fill="white"/>
<path d="M298.04 123.267L289.444 118.526C289.076 118.263 288.792 117.9 288.624 117.48C288.456 117.06 288.412 116.6 288.497 116.156C288.542 115.957 288.633 115.772 288.764 115.616C288.895 115.46 289.061 115.338 289.249 115.259C289.436 115.18 289.64 115.147 289.843 115.163C290.046 115.179 290.242 115.243 290.415 115.35L299.011 120.304C299.4 120.576 299.698 120.959 299.867 121.403C300.036 121.847 300.068 122.331 299.959 122.793C299.881 122.967 299.764 123.121 299.618 123.243C299.472 123.365 299.3 123.452 299.115 123.498C298.93 123.543 298.737 123.546 298.551 123.506C298.365 123.467 298.19 123.385 298.04 123.267Z" fill="white"/>
<path d="M316.252 133.911L303.606 126.586C303.22 126.339 302.92 125.979 302.746 125.554C302.572 125.13 302.533 124.663 302.635 124.216C302.679 124.013 302.77 123.825 302.903 123.666C303.035 123.507 303.204 123.383 303.395 123.304C303.586 123.224 303.793 123.193 303.999 123.211C304.205 123.229 304.403 123.298 304.577 123.41L317.341 130.616C317.723 130.866 318.018 131.228 318.188 131.652C318.357 132.076 318.393 132.542 318.289 132.986C318.27 133.214 318.191 133.433 318.06 133.619C317.929 133.806 317.75 133.954 317.542 134.049C317.335 134.143 317.105 134.18 316.878 134.156C316.652 134.132 316.435 134.047 316.252 133.911Z" fill="white"/>
<path d="M289.633 78.2273L284.186 75.2405C283.815 74.98 283.526 74.6181 283.353 74.1978C283.181 73.7776 283.133 73.3167 283.215 72.8699C283.262 72.6698 283.356 72.4839 283.49 72.3279C283.624 72.1719 283.793 72.0504 283.983 71.9736C284.174 71.8969 284.38 71.8672 284.584 71.8871C284.789 71.9069 284.985 71.9757 285.157 72.0877L290.51 75.1694C290.894 75.4173 291.191 75.7786 291.361 76.2034C291.531 76.6281 291.564 77.0952 291.457 77.5399C291.398 77.7171 291.3 77.879 291.171 78.0136C291.041 78.1482 290.883 78.2522 290.709 78.3181C290.534 78.384 290.347 78.41 290.161 78.3943C289.975 78.3786 289.795 78.3215 289.633 78.2273Z" fill="white"/>
<path d="M305.761 95.6744L289.373 86.1923C289.005 85.9288 288.721 85.5656 288.553 85.1456C288.385 84.7255 288.341 84.2662 288.426 83.8218C288.469 83.6196 288.561 83.431 288.694 83.2722C288.826 83.1134 288.995 82.989 289.186 82.9098C289.377 82.8306 289.584 82.7988 289.79 82.8173C289.995 82.8358 290.194 82.9039 290.367 83.0158L306.732 92.4979C307.136 92.7553 307.447 93.1367 307.618 93.5851C307.789 94.0336 307.81 94.5253 307.679 94.9869C307.624 95.1784 307.524 95.354 307.388 95.4993C307.252 95.6446 307.083 95.7554 306.896 95.8226C306.709 95.8897 306.508 95.9113 306.311 95.8855C306.113 95.8598 305.925 95.7874 305.761 95.6744Z" fill="white"/>
<path d="M290.652 103.023L285.299 99.9413C284.915 99.6934 284.618 99.332 284.448 98.9073C284.278 98.4826 284.245 98.0155 284.352 97.5708C284.392 97.3692 284.481 97.1805 284.611 97.0213C284.741 96.8621 284.908 96.7372 285.097 96.6577C285.287 96.5781 285.493 96.5463 285.697 96.565C285.902 96.5836 286.099 96.6523 286.27 96.7648L291.623 99.8465C292.016 100.116 292.319 100.497 292.492 100.941C292.665 101.385 292.7 101.871 292.594 102.336C292.535 102.528 292.433 102.703 292.294 102.848C292.156 102.993 291.985 103.104 291.796 103.171C291.607 103.238 291.405 103.259 291.206 103.233C291.007 103.208 290.817 103.136 290.652 103.023Z" fill="white"/>
<path d="M318.218 151.121L304.008 142.848C303.637 142.587 303.348 142.225 303.175 141.805C303.003 141.385 302.955 140.924 303.037 140.477C303.081 140.275 303.173 140.087 303.305 139.928C303.438 139.769 303.607 139.645 303.798 139.565C303.988 139.486 304.196 139.454 304.401 139.473C304.607 139.491 304.806 139.559 304.979 139.671L319.189 147.944C319.575 148.192 319.875 148.552 320.049 148.976C320.222 149.4 320.261 149.868 320.16 150.315C320.116 150.517 320.024 150.706 319.892 150.865C319.759 151.023 319.59 151.148 319.4 151.227C319.209 151.306 319.001 151.338 318.796 151.319C318.59 151.301 318.392 151.233 318.218 151.121Z" fill="white"/>
<path d="M284.66 115.634L281.202 113.643C280.835 113.38 280.551 113.016 280.383 112.596C280.215 112.176 280.171 111.717 280.255 111.272C280.3 111.074 280.392 110.889 280.523 110.733C280.654 110.577 280.82 110.455 281.007 110.376C281.195 110.297 281.398 110.264 281.601 110.28C281.804 110.296 282 110.36 282.173 110.466L285.631 112.458C285.998 112.721 286.283 113.084 286.451 113.504C286.619 113.924 286.663 114.384 286.578 114.828C286.538 115.03 286.449 115.219 286.319 115.378C286.189 115.537 286.022 115.662 285.833 115.741C285.644 115.821 285.438 115.853 285.233 115.834C285.029 115.815 284.832 115.747 284.66 115.634Z" fill="white"/>
<path d="M281.392 129.834L277.129 127.463C276.757 127.203 276.468 126.841 276.296 126.42C276.124 126 276.076 125.539 276.158 125.093C276.202 124.89 276.294 124.702 276.426 124.543C276.559 124.384 276.727 124.26 276.918 124.181C277.109 124.101 277.316 124.07 277.522 124.088C277.728 124.107 277.926 124.175 278.1 124.287L282.363 126.657C282.749 126.904 283.049 127.265 283.223 127.689C283.397 128.113 283.435 128.581 283.334 129.028C283.29 129.23 283.198 129.418 283.066 129.577C282.933 129.736 282.765 129.86 282.574 129.94C282.383 130.019 282.176 130.051 281.97 130.032C281.764 130.014 281.566 129.946 281.392 129.834Z" fill="white"/>
<path d="M298.017 139.434L286.744 132.939C286.377 132.676 286.092 132.312 285.924 131.892C285.757 131.472 285.712 131.013 285.797 130.569C285.84 130.369 285.931 130.183 286.062 130.027C286.194 129.87 286.361 129.748 286.55 129.671C286.739 129.594 286.944 129.564 287.147 129.584C287.35 129.604 287.545 129.674 287.715 129.786L298.988 136.282C299.372 136.529 299.669 136.891 299.839 137.316C300.009 137.74 300.042 138.207 299.935 138.652C299.892 138.852 299.801 139.038 299.669 139.194C299.538 139.35 299.371 139.472 299.182 139.549C298.993 139.626 298.788 139.656 298.585 139.636C298.382 139.616 298.187 139.547 298.017 139.434Z" fill="white"/>
<path d="M283.168 138.913L275.069 134.172C274.701 133.908 274.417 133.545 274.249 133.125C274.081 132.705 274.037 132.246 274.121 131.801C274.165 131.599 274.257 131.41 274.389 131.252C274.522 131.093 274.691 130.968 274.882 130.889C275.072 130.81 275.28 130.778 275.486 130.797C275.691 130.815 275.89 130.883 276.063 130.995L284.163 135.736C284.53 136 284.815 136.363 284.982 136.783C285.15 137.203 285.195 137.662 285.11 138.107C285.066 138.309 284.974 138.498 284.842 138.656C284.71 138.815 284.541 138.94 284.35 139.019C284.159 139.098 283.952 139.13 283.746 139.111C283.54 139.093 283.342 139.025 283.168 138.913Z" fill="white"/>
<path d="M330.509 158.256L325.299 155.246C324.915 154.998 324.617 154.636 324.447 154.212C324.278 153.787 324.244 153.32 324.351 152.875C324.392 152.674 324.48 152.485 324.61 152.326C324.74 152.166 324.907 152.042 325.097 151.962C325.286 151.882 325.492 151.851 325.696 151.869C325.901 151.888 326.098 151.957 326.27 152.069L331.48 155.08C331.847 155.343 332.132 155.706 332.299 156.126C332.467 156.547 332.512 157.006 332.427 157.45C332.382 157.649 332.29 157.834 332.159 157.99C332.029 158.146 331.863 158.268 331.675 158.347C331.487 158.426 331.284 158.459 331.081 158.443C330.878 158.427 330.682 158.363 330.509 158.256Z" fill="white"/>
<path d="M310.592 114.544L296.383 106.294C295.99 106.025 295.687 105.644 295.514 105.2C295.34 104.756 295.305 104.27 295.412 103.805C295.455 103.603 295.547 103.415 295.68 103.256C295.812 103.097 295.981 102.973 296.172 102.893C296.363 102.814 296.57 102.782 296.776 102.801C296.982 102.819 297.18 102.887 297.354 102.999L311.563 111.272C311.99 111.517 312.323 111.897 312.512 112.351C312.7 112.806 312.733 113.31 312.605 113.785C312.566 113.998 312.472 114.198 312.334 114.364C312.195 114.53 312.015 114.658 311.813 114.734C311.61 114.81 311.391 114.833 311.177 114.8C310.964 114.766 310.762 114.678 310.592 114.544Z" fill="white"/>
<path d="M312.297 107.503L287.336 93.0905C286.947 92.8183 286.649 92.4355 286.48 91.9917C286.311 91.5479 286.279 91.0636 286.389 90.6015C286.434 90.4029 286.526 90.2179 286.656 90.062C286.787 89.906 286.953 89.7836 287.141 89.7047C287.329 89.6259 287.532 89.5931 287.735 89.6088C287.938 89.6246 288.134 89.6886 288.307 89.7955L313.268 104.303C313.636 104.567 313.92 104.93 314.088 105.35C314.256 105.77 314.3 106.229 314.215 106.674C314.173 106.874 314.084 107.062 313.954 107.221C313.825 107.379 313.659 107.505 313.471 107.586C313.283 107.667 313.078 107.702 312.874 107.688C312.67 107.673 312.472 107.61 312.297 107.503Z" fill="white"/>
<path d="M297.567 115.065L283.358 106.792C282.972 106.545 282.671 106.185 282.498 105.761C282.324 105.336 282.285 104.869 282.387 104.422C282.43 104.219 282.522 104.031 282.655 103.872C282.787 103.713 282.956 103.589 283.147 103.51C283.338 103.43 283.545 103.399 283.751 103.417C283.956 103.436 284.155 103.504 284.328 103.616L298.538 111.889C298.922 112.137 299.219 112.498 299.389 112.923C299.559 113.348 299.592 113.815 299.485 114.259C299.445 114.461 299.356 114.65 299.226 114.809C299.096 114.968 298.929 115.093 298.74 115.172C298.551 115.252 298.345 115.284 298.14 115.265C297.936 115.246 297.739 115.178 297.567 115.065Z" fill="white"/>
<path d="M321.438 120.897L316.252 117.886C315.868 117.638 315.57 117.277 315.401 116.852C315.231 116.427 315.197 115.96 315.305 115.516C315.345 115.314 315.434 115.125 315.564 114.966C315.694 114.807 315.861 114.682 316.05 114.603C316.239 114.523 316.445 114.491 316.65 114.51C316.854 114.529 317.051 114.597 317.223 114.71L322.433 117.72C322.801 117.984 323.085 118.347 323.253 118.767C323.421 119.187 323.465 119.646 323.38 120.091C323.337 120.293 323.245 120.482 323.112 120.64C322.98 120.799 322.811 120.924 322.62 121.003C322.429 121.082 322.222 121.114 322.016 121.095C321.811 121.077 321.612 121.009 321.438 120.897Z" fill="white"/>
<path d="M361.888 111.984L343.558 101.458C343.186 101.198 342.897 100.836 342.725 100.416C342.553 99.9956 342.505 99.5347 342.587 99.0879C342.633 98.8878 342.728 98.7019 342.861 98.5459C342.995 98.3899 343.164 98.2684 343.355 98.1916C343.545 98.1149 343.751 98.0852 343.956 98.1051C344.16 98.1249 344.356 98.1937 344.529 98.3057L362.859 108.831C363.226 109.094 363.511 109.457 363.678 109.878C363.846 110.298 363.89 110.757 363.806 111.201C363.758 111.398 363.664 111.58 363.532 111.733C363.4 111.887 363.233 112.006 363.046 112.083C362.859 112.159 362.656 112.19 362.455 112.172C362.254 112.155 362.059 112.091 361.888 111.984Z" fill="white"/>
<path d="M296.383 130.379L279.166 120.446C278.761 120.189 278.45 119.808 278.28 119.359C278.109 118.911 278.088 118.419 278.218 117.957C278.262 117.758 278.353 117.572 278.484 117.415C278.615 117.259 278.783 117.137 278.972 117.06C279.161 116.983 279.365 116.953 279.568 116.973C279.771 116.993 279.966 117.063 280.137 117.175L297.354 127.108C297.721 127.371 298.006 127.734 298.173 128.154C298.341 128.574 298.386 129.034 298.301 129.478C298.274 129.688 298.195 129.888 298.07 130.058C297.946 130.229 297.78 130.366 297.589 130.456C297.398 130.546 297.187 130.586 296.976 130.572C296.765 130.559 296.561 130.492 296.383 130.379Z" fill="white"/>
<path d="M298.964 75.6909L286.318 68.366C285.934 68.118 285.636 67.7567 285.466 67.3319C285.297 66.9072 285.263 66.4401 285.371 65.9954C285.416 65.7969 285.507 65.6119 285.638 65.456C285.769 65.3 285.935 65.1775 286.123 65.0987C286.31 65.0199 286.514 64.987 286.717 65.0028C286.919 65.0186 287.116 65.0826 287.289 65.1895L299.935 72.5144C300.321 72.7615 300.621 73.1218 300.795 73.546C300.969 73.9702 301.008 74.4378 300.906 74.8849C300.862 75.0871 300.77 75.2756 300.638 75.4345C300.506 75.5933 300.337 75.7176 300.146 75.7969C299.955 75.8761 299.748 75.9078 299.542 75.8894C299.336 75.8709 299.138 75.8028 298.964 75.6909Z" fill="white"/>
<path d="M280.539 145.408L265.88 136.945C265.496 136.697 265.198 136.336 265.029 135.911C264.859 135.486 264.825 135.019 264.933 134.575C264.978 134.376 265.07 134.191 265.2 134.035C265.331 133.879 265.497 133.757 265.685 133.678C265.872 133.599 266.076 133.566 266.279 133.582C266.482 133.598 266.678 133.662 266.851 133.769L281.51 142.232C281.878 142.495 282.162 142.858 282.33 143.278C282.498 143.698 282.542 144.158 282.458 144.602C282.417 144.804 282.329 144.992 282.199 145.152C282.069 145.311 281.902 145.436 281.712 145.515C281.523 145.595 281.317 145.627 281.113 145.608C280.908 145.589 280.711 145.521 280.539 145.408Z" fill="white"/>
<path d="M292.901 161.196L284.305 156.218C283.937 155.954 283.653 155.591 283.485 155.171C283.317 154.751 283.273 154.292 283.358 153.847C283.401 153.645 283.493 153.456 283.626 153.298C283.758 153.139 283.927 153.014 284.118 152.935C284.309 152.856 284.516 152.824 284.722 152.843C284.927 152.861 285.126 152.929 285.299 153.041L293.872 157.996C294.254 158.246 294.549 158.608 294.719 159.032C294.888 159.456 294.923 159.921 294.82 160.366C294.778 160.567 294.688 160.754 294.559 160.913C294.429 161.072 294.263 161.197 294.075 161.278C293.887 161.36 293.683 161.395 293.478 161.38C293.274 161.366 293.076 161.303 292.901 161.196Z" fill="white"/>
<path d="M313.339 173.048L300.764 165.605C300.396 165.341 300.112 164.978 299.944 164.558C299.776 164.138 299.732 163.679 299.817 163.234C299.86 163.032 299.952 162.844 300.085 162.685C300.217 162.526 300.386 162.402 300.577 162.322C300.768 162.243 300.975 162.211 301.181 162.23C301.387 162.248 301.585 162.316 301.759 162.428L314.405 169.753C314.772 170.017 315.057 170.38 315.225 170.8C315.392 171.22 315.437 171.679 315.352 172.124C315.331 172.348 315.252 172.562 315.122 172.745C314.992 172.928 314.816 173.074 314.612 173.168C314.408 173.261 314.183 173.3 313.96 173.279C313.736 173.258 313.522 173.178 313.339 173.048Z" fill="white"/>
<path d="M275.59 199.337L267.017 194.383C266.633 194.135 266.335 193.774 266.165 193.349C265.996 192.924 265.962 192.457 266.069 192.013C266.115 191.814 266.206 191.629 266.337 191.473C266.468 191.317 266.634 191.195 266.822 191.116C267.009 191.037 267.213 191.004 267.416 191.02C267.618 191.036 267.815 191.1 267.988 191.207L276.561 196.161C276.932 196.421 277.222 196.783 277.394 197.204C277.566 197.624 277.614 198.085 277.532 198.531C277.488 198.734 277.396 198.922 277.264 199.081C277.131 199.24 276.962 199.364 276.772 199.443C276.581 199.523 276.373 199.554 276.168 199.536C275.962 199.517 275.764 199.449 275.59 199.337Z" fill="white"/>
<path d="M293.801 209.863L281.155 202.561C280.788 202.298 280.503 201.935 280.335 201.515C280.168 201.095 280.123 200.635 280.208 200.191C280.253 199.992 280.345 199.807 280.475 199.651C280.606 199.495 280.772 199.373 280.96 199.294C281.147 199.215 281.351 199.182 281.554 199.198C281.757 199.214 281.953 199.278 282.126 199.385L294.796 206.686C295.163 206.95 295.448 207.313 295.616 207.733C295.784 208.153 295.828 208.612 295.743 209.057C295.7 209.259 295.608 209.447 295.475 209.606C295.343 209.765 295.174 209.889 294.983 209.969C294.792 210.048 294.585 210.08 294.379 210.061C294.173 210.043 293.975 209.975 293.801 209.863Z" fill="white"/>
<path d="M267.206 154.297L261.83 151.192C261.463 150.929 261.179 150.565 261.011 150.145C260.843 149.725 260.799 149.266 260.883 148.822C260.927 148.619 261.019 148.431 261.151 148.272C261.283 148.113 261.452 147.989 261.643 147.91C261.834 147.83 262.041 147.799 262.247 147.817C262.453 147.836 262.651 147.904 262.825 148.016L268.177 151.121C268.545 151.384 268.829 151.748 268.997 152.168C269.165 152.588 269.209 153.047 269.125 153.492C269.084 153.693 268.995 153.882 268.866 154.041C268.736 154.2 268.569 154.325 268.379 154.405C268.19 154.484 267.984 154.516 267.779 154.497C267.575 154.479 267.378 154.41 267.206 154.297Z" fill="white"/>
<path d="M283.334 171.65L266.946 162.168C266.564 161.917 266.269 161.556 266.099 161.132C265.93 160.708 265.895 160.242 265.998 159.797C266.044 159.599 266.135 159.414 266.266 159.258C266.397 159.102 266.563 158.979 266.751 158.9C266.938 158.822 267.142 158.789 267.345 158.804C267.547 158.82 267.744 158.884 267.917 158.991L284.305 168.473C284.672 168.737 284.957 169.1 285.125 169.52C285.292 169.94 285.337 170.399 285.252 170.844C285.212 171.045 285.123 171.234 284.993 171.393C284.863 171.552 284.696 171.677 284.507 171.757C284.318 171.836 284.112 171.868 283.907 171.85C283.703 171.831 283.506 171.762 283.334 171.65Z" fill="white"/>
<path d="M268.225 178.998L262.872 175.917C262.501 175.656 262.212 175.294 262.039 174.874C261.867 174.454 261.819 173.993 261.901 173.546C261.945 173.344 262.037 173.155 262.169 172.997C262.302 172.838 262.471 172.713 262.662 172.634C262.852 172.555 263.06 172.523 263.266 172.542C263.471 172.56 263.67 172.628 263.843 172.74L269.196 175.822C269.58 176.07 269.877 176.431 270.047 176.856C270.217 177.281 270.25 177.748 270.143 178.192C270.103 178.394 270.014 178.583 269.884 178.742C269.754 178.901 269.587 179.026 269.398 179.106C269.208 179.185 269.002 179.217 268.798 179.198C268.593 179.18 268.396 179.111 268.225 178.998Z" fill="white"/>
<path d="M295.791 227.096L281.463 218.823C281.096 218.56 280.811 218.197 280.643 217.776C280.475 217.356 280.431 216.897 280.516 216.453C280.554 216.247 280.643 216.055 280.775 215.893C280.906 215.73 281.076 215.603 281.269 215.523C281.461 215.443 281.671 215.413 281.879 215.434C282.086 215.456 282.285 215.529 282.458 215.647L296.667 223.92C297.051 224.168 297.349 224.529 297.518 224.954C297.688 225.379 297.722 225.846 297.614 226.29C297.565 226.475 297.475 226.647 297.35 226.792C297.226 226.938 297.07 227.053 296.895 227.131C296.72 227.208 296.53 227.245 296.339 227.239C296.148 227.233 295.961 227.184 295.791 227.096Z" fill="white"/>
<path d="M262.209 191.61L258.775 189.642C258.391 189.394 258.094 189.033 257.924 188.608C257.754 188.183 257.721 187.716 257.828 187.271C257.873 187.073 257.965 186.888 258.096 186.732C258.227 186.576 258.393 186.454 258.58 186.375C258.768 186.296 258.971 186.263 259.174 186.279C259.377 186.295 259.573 186.359 259.746 186.466L263.18 188.457C263.566 188.704 263.866 189.064 264.04 189.488C264.214 189.913 264.253 190.38 264.151 190.827C264.105 191.027 264.01 191.213 263.877 191.369C263.743 191.525 263.574 191.647 263.383 191.724C263.193 191.8 262.987 191.83 262.782 191.81C262.578 191.79 262.381 191.721 262.209 191.61Z" fill="white"/>
<path d="M258.965 205.809L254.678 203.438C254.311 203.175 254.027 202.812 253.859 202.392C253.691 201.972 253.647 201.512 253.731 201.068C253.769 200.863 253.858 200.67 253.99 200.508C254.121 200.346 254.291 200.219 254.484 200.139C254.677 200.059 254.887 200.028 255.094 200.05C255.302 200.071 255.501 200.144 255.673 200.262L259.936 202.632C260.32 202.88 260.617 203.242 260.787 203.667C260.957 204.091 260.99 204.558 260.883 205.003C260.838 205.202 260.746 205.387 260.615 205.542C260.485 205.698 260.319 205.821 260.131 205.9C259.943 205.979 259.74 206.011 259.537 205.996C259.334 205.98 259.138 205.916 258.965 205.809Z" fill="white"/>
<path d="M275.59 215.41L264.317 208.914C263.936 208.664 263.64 208.302 263.471 207.878C263.301 207.454 263.266 206.989 263.37 206.544C263.41 206.342 263.499 206.154 263.629 205.994C263.759 205.835 263.926 205.71 264.115 205.631C264.304 205.551 264.51 205.519 264.715 205.538C264.919 205.557 265.116 205.625 265.288 205.738L276.561 212.257C276.928 212.52 277.213 212.883 277.38 213.304C277.548 213.724 277.593 214.183 277.508 214.627C277.46 214.824 277.366 215.006 277.234 215.159C277.102 215.313 276.936 215.432 276.748 215.509C276.561 215.585 276.359 215.616 276.157 215.598C275.956 215.581 275.761 215.517 275.59 215.41Z" fill="white"/>
<path d="M260.741 214.864L252.642 210.123C252.258 209.875 251.96 209.514 251.79 209.089C251.621 208.665 251.587 208.197 251.694 207.753C251.739 207.554 251.831 207.369 251.962 207.213C252.093 207.057 252.259 206.935 252.447 206.856C252.634 206.777 252.838 206.744 253.041 206.76C253.243 206.776 253.439 206.84 253.613 206.947L261.712 211.688C262.094 211.938 262.389 212.3 262.558 212.724C262.728 213.148 262.763 213.614 262.659 214.058C262.619 214.26 262.53 214.449 262.4 214.608C262.27 214.767 262.103 214.892 261.914 214.972C261.725 215.051 261.519 215.083 261.314 215.064C261.11 215.046 260.913 214.977 260.741 214.864Z" fill="white"/>
<path d="M308.058 234.232L302.872 231.221C302.5 230.961 302.211 230.599 302.039 230.178C301.867 229.758 301.819 229.297 301.901 228.851C301.944 228.648 302.036 228.46 302.169 228.301C302.301 228.142 302.47 228.018 302.661 227.939C302.852 227.859 303.059 227.828 303.265 227.846C303.471 227.865 303.669 227.933 303.843 228.045L309.029 231.031C309.401 231.292 309.69 231.654 309.862 232.074C310.034 232.494 310.082 232.955 310 233.402C309.959 233.606 309.87 233.797 309.739 233.959C309.608 234.121 309.439 234.248 309.248 234.33C309.056 234.411 308.848 234.445 308.641 234.428C308.433 234.411 308.233 234.344 308.058 234.232Z" fill="white"/>
<path d="M288.165 190.519L273.837 182.246C273.47 181.983 273.185 181.619 273.018 181.199C272.85 180.779 272.805 180.32 272.89 179.875C272.935 179.677 273.027 179.492 273.158 179.336C273.288 179.18 273.454 179.058 273.642 178.979C273.83 178.9 274.033 178.867 274.236 178.883C274.439 178.899 274.635 178.963 274.808 179.069L289.018 187.343C289.385 187.606 289.669 187.969 289.837 188.389C290.005 188.809 290.049 189.269 289.965 189.713C289.918 189.897 289.831 190.069 289.709 190.214C289.587 190.36 289.433 190.476 289.26 190.553C289.087 190.631 288.898 190.668 288.709 190.662C288.519 190.656 288.333 190.607 288.165 190.519Z" fill="white"/>
<path d="M289.846 183.479L264.909 169.042C264.525 168.794 264.227 168.433 264.058 168.008C263.888 167.583 263.854 167.116 263.962 166.672C264.002 166.47 264.091 166.281 264.221 166.122C264.351 165.963 264.518 165.838 264.707 165.758C264.896 165.679 265.102 165.647 265.307 165.666C265.511 165.684 265.708 165.753 265.88 165.866L290.817 180.16C291.203 180.407 291.504 180.767 291.677 181.192C291.851 181.616 291.89 182.083 291.788 182.53C291.765 182.745 291.687 182.95 291.563 183.126C291.439 183.303 291.272 183.445 291.078 183.539C290.884 183.634 290.67 183.678 290.454 183.667C290.239 183.657 290.03 183.592 289.846 183.479Z" fill="white"/>
<path d="M275.14 191.041L260.812 182.767C260.445 182.504 260.16 182.141 259.992 181.721C259.824 181.301 259.78 180.841 259.865 180.397C259.91 180.198 260.002 180.013 260.132 179.857C260.263 179.702 260.429 179.579 260.617 179.5C260.804 179.421 261.008 179.389 261.211 179.404C261.414 179.42 261.61 179.484 261.783 179.591L275.992 187.864C276.36 188.128 276.644 188.491 276.812 188.911C276.98 189.331 277.024 189.79 276.94 190.235C276.889 190.416 276.8 190.585 276.677 190.728C276.554 190.871 276.401 190.985 276.229 191.062C276.057 191.139 275.871 191.177 275.682 191.173C275.494 191.17 275.309 191.124 275.14 191.041Z" fill="white"/>
<path d="M299.011 196.754L293.801 193.743C293.434 193.48 293.15 193.116 292.982 192.696C292.814 192.276 292.77 191.817 292.854 191.372C292.898 191.17 292.99 190.982 293.122 190.823C293.254 190.664 293.423 190.54 293.614 190.461C293.805 190.381 294.012 190.35 294.218 190.368C294.424 190.386 294.622 190.455 294.796 190.567L299.982 193.577C300.367 193.825 300.664 194.186 300.834 194.611C301.004 195.036 301.037 195.503 300.93 195.948C300.89 196.149 300.801 196.338 300.671 196.497C300.541 196.656 300.374 196.781 300.185 196.861C299.995 196.94 299.789 196.972 299.585 196.953C299.38 196.935 299.183 196.866 299.011 196.754Z" fill="white"/>
<path d="M273.932 206.425L256.739 196.493C256.367 196.232 256.078 195.87 255.906 195.45C255.734 195.03 255.686 194.569 255.768 194.122C255.811 193.92 255.903 193.732 256.036 193.573C256.168 193.414 256.337 193.29 256.528 193.21C256.719 193.131 256.926 193.099 257.132 193.118C257.338 193.136 257.536 193.204 257.71 193.316L274.903 203.273C275.289 203.52 275.589 203.88 275.763 204.304C275.937 204.728 275.975 205.196 275.874 205.643C275.827 205.843 275.733 206.029 275.599 206.185C275.466 206.341 275.297 206.463 275.106 206.539C274.916 206.616 274.709 206.646 274.505 206.626C274.301 206.606 274.104 206.537 273.932 206.425Z" fill="white"/>
<path d="M276.537 151.714L263.891 144.389C263.505 144.142 263.205 143.781 263.031 143.357C262.857 142.933 262.818 142.465 262.92 142.018C262.963 141.816 263.055 141.627 263.188 141.469C263.32 141.31 263.489 141.185 263.68 141.106C263.871 141.027 264.078 140.995 264.284 141.014C264.49 141.032 264.688 141.1 264.862 141.212L277.508 148.537C277.892 148.785 278.19 149.146 278.359 149.571C278.529 149.996 278.563 150.463 278.455 150.908C278.41 151.106 278.318 151.291 278.188 151.447C278.057 151.603 277.891 151.726 277.703 151.804C277.516 151.883 277.312 151.916 277.109 151.9C276.906 151.884 276.71 151.82 276.537 151.714Z" fill="white"/>
<path d="M258.136 221.383L243.5 212.921C243.129 212.66 242.84 212.298 242.667 211.878C242.495 211.458 242.447 210.997 242.529 210.55C242.573 210.348 242.665 210.159 242.797 210.001C242.93 209.842 243.099 209.717 243.29 209.638C243.48 209.559 243.688 209.527 243.893 209.546C244.099 209.564 244.298 209.632 244.471 209.744L259.06 218.088C259.445 218.335 259.746 218.696 259.919 219.12C260.093 219.544 260.132 220.012 260.031 220.459C260 220.664 259.92 220.859 259.797 221.026C259.674 221.194 259.513 221.329 259.326 221.42C259.14 221.511 258.934 221.555 258.727 221.549C258.519 221.542 258.317 221.486 258.136 221.383Z" fill="white"/>
<path d="M491.714 355.271C489.82 355.241 487.967 354.718 486.338 353.753L348.72 274.199C345.736 272.299 343.436 269.494 342.158 266.193C340.88 262.891 340.69 259.268 341.616 255.851L380.289 129.028C380.688 127.481 381.439 126.048 382.482 124.839C383.525 123.63 384.833 122.679 386.304 122.058C387.731 121.525 389.26 121.327 390.775 121.479C392.29 121.631 393.75 122.129 395.043 122.935L532.85 202.467C535.834 204.366 538.134 207.171 539.412 210.473C540.69 213.774 540.88 217.398 539.954 220.814L501.281 347.637C500.871 349.186 500.114 350.62 499.068 351.831C498.021 353.043 496.713 354 495.242 354.631C494.119 355.073 492.92 355.291 491.714 355.271ZM389.88 122.675C388.884 122.677 387.897 122.861 386.967 123.22C385.673 123.776 384.522 124.62 383.603 125.688C382.684 126.756 382.02 128.02 381.662 129.383L342.918 256.23C342.046 259.364 342.198 262.695 343.353 265.736C344.508 268.778 346.604 271.369 349.336 273.132L486.977 352.663C488.105 353.367 489.378 353.803 490.699 353.938C492.021 354.074 493.356 353.905 494.603 353.445C495.899 352.892 497.051 352.049 497.971 350.981C498.891 349.912 499.553 348.647 499.908 347.282L538.581 220.459C539.447 217.322 539.289 213.991 538.13 210.95C536.971 207.909 534.872 205.319 532.139 203.557L394.522 124.026C393.09 123.165 391.456 122.699 389.785 122.675H389.88Z" fill="white"/>
<path d="M513.075 246.345C511.738 246.322 510.431 245.946 509.286 245.255L388.885 175.68C386.802 174.345 385.202 172.377 384.32 170.064C383.437 167.751 383.319 165.216 383.983 162.831L388.909 146.688C389.189 145.599 389.715 144.588 390.446 143.733C391.176 142.879 392.093 142.203 393.125 141.757C394.134 141.385 395.215 141.247 396.286 141.354C397.357 141.46 398.389 141.809 399.306 142.374L519.682 211.949C521.764 213.285 523.365 215.253 524.251 217.564C525.137 219.875 525.262 222.409 524.608 224.797L519.682 240.964C519.392 242.053 518.857 243.061 518.118 243.911C517.38 244.762 516.456 245.432 515.419 245.871C514.674 246.172 513.879 246.333 513.075 246.345ZM395.493 142.563C394.827 142.561 394.167 142.69 393.551 142.943C392.71 143.309 391.964 143.863 391.369 144.561C390.774 145.259 390.346 146.084 390.117 146.973L385.191 163.14C384.604 165.254 384.708 167.502 385.487 169.553C386.267 171.604 387.682 173.353 389.525 174.542L509.901 244.164C510.649 244.646 511.499 244.946 512.383 245.04C513.267 245.135 514.161 245.022 514.993 244.709C515.856 244.336 516.622 243.77 517.234 243.055C517.845 242.34 518.286 241.495 518.522 240.585L523.377 224.441C523.968 222.327 523.866 220.078 523.086 218.026C522.306 215.973 520.889 214.226 519.043 213.039L398.714 143.464C397.74 142.88 396.628 142.569 395.493 142.563Z" fill="white"/>
<path d="M496.237 288.517L473.668 275.479C471.704 274.22 470.196 272.364 469.365 270.184C468.533 268.003 468.423 265.613 469.05 263.365L473.976 247.198C474.196 246.217 474.649 245.302 475.296 244.532C475.942 243.762 476.765 243.159 477.693 242.773C478.622 242.388 479.629 242.231 480.63 242.316C481.632 242.401 482.598 242.726 483.448 243.263L506.018 256.301C507.986 257.561 509.497 259.421 510.329 261.606C511.16 263.792 511.268 266.187 510.636 268.438L505.71 284.582C505.489 285.563 505.037 286.478 504.39 287.248C503.743 288.018 502.92 288.621 501.992 289.007C501.064 289.392 500.056 289.549 499.055 289.464C498.053 289.378 497.087 289.054 496.237 288.517Z" fill="white"/>
<path d="M486.361 333.96C485.026 333.947 483.718 333.578 482.572 332.893L460.003 319.831C457.921 318.495 456.321 316.527 455.435 314.216C454.548 311.905 454.423 309.371 455.077 306.983L460.003 290.84C460.292 289.747 460.826 288.735 461.564 287.881C462.303 287.026 463.227 286.352 464.266 285.909C465.275 285.537 466.357 285.398 467.427 285.505C468.498 285.612 469.531 285.961 470.447 286.525L493.016 299.563C495.098 300.9 496.698 302.867 497.585 305.179C498.471 307.49 498.596 310.024 497.942 312.412L493.016 328.579C492.726 329.667 492.191 330.676 491.452 331.526C490.714 332.377 489.79 333.047 488.753 333.485C487.993 333.793 487.181 333.954 486.361 333.96ZM466.658 286.834C466.002 286.832 465.351 286.953 464.74 287.189C463.879 287.566 463.114 288.132 462.503 288.847C461.892 289.561 461.45 290.404 461.211 291.314L456.285 307.457C455.694 309.572 455.796 311.82 456.576 313.873C457.356 315.925 458.773 317.673 460.619 318.859L483.117 331.874C483.869 332.346 484.719 332.639 485.602 332.729C486.485 332.82 487.377 332.705 488.209 332.395C489.071 332.021 489.838 331.456 490.449 330.741C491.061 330.026 491.501 329.181 491.737 328.27L496.663 312.127C497.25 310.012 497.146 307.765 496.367 305.714C495.587 303.662 494.172 301.914 492.329 300.725L469.76 287.687C468.816 287.142 467.748 286.849 466.658 286.834Z" fill="white"/>
<path d="M433.668 305.158C432.334 305.141 431.027 304.773 429.879 304.091L361.746 264.717C359.663 263.382 358.062 261.414 357.18 259.101C356.297 256.788 356.179 254.253 356.843 251.868L375.552 190.495C375.838 189.401 376.37 188.388 377.109 187.533C377.849 186.678 378.774 186.004 379.815 185.565C380.825 185.192 381.906 185.054 382.976 185.161C384.047 185.268 385.08 185.616 385.996 186.181L454.13 225.555C456.215 226.894 457.816 228.867 458.698 231.183C459.581 233.5 459.698 236.039 459.032 238.427L440.323 299.8C440.041 300.893 439.51 301.905 438.77 302.757C438.03 303.609 437.102 304.276 436.06 304.707C435.299 305.007 434.487 305.16 433.668 305.158ZM382.207 186.371C381.541 186.366 380.88 186.495 380.265 186.75C379.403 187.118 378.637 187.679 378.025 188.39C377.413 189.101 376.972 189.943 376.736 190.851L358.027 252.224C357.446 254.341 357.556 256.589 358.339 258.64C359.123 260.691 360.54 262.438 362.385 263.626L430.519 303.001C431.27 303.472 432.12 303.766 433.002 303.86C433.884 303.955 434.776 303.847 435.61 303.546C436.473 303.175 437.238 302.61 437.846 301.895C438.454 301.179 438.888 300.332 439.115 299.421L457.848 238.048C458.429 235.931 458.32 233.683 457.536 231.632C456.752 229.581 455.335 227.834 453.49 226.646L385.357 187.271C384.404 186.699 383.318 186.389 382.207 186.371Z" fill="white"/>
<path d="M388.909 231.671L382.065 227.736L373.516 255.756L380.36 259.715L388.909 231.671Z" fill="white"/>
<path d="M402.005 246.108L395.185 242.173L388.412 264.361L395.232 268.296L402.005 246.108Z" fill="white"/>
<path d="M421.401 239.85L414.581 235.915L403.284 272.942L410.128 276.877L421.401 239.85Z" fill="white"/>
<path d="M440.749 233.829L433.905 229.894L418.18 281.524L425.001 285.459L440.749 233.829Z" fill="white"/>
<path d="M527.924 176.13C527.149 176.082 526.399 175.837 525.745 175.419C524.719 174.876 523.928 173.975 523.522 172.887C523.116 171.799 523.124 170.599 523.542 169.516C523.735 169.043 524.03 168.619 524.407 168.274C524.784 167.93 525.233 167.674 525.721 167.525C526.294 167.346 526.897 167.29 527.493 167.359C528.088 167.429 528.663 167.623 529.179 167.928C530.21 168.472 531.005 169.377 531.411 170.47C531.817 171.563 531.807 172.768 531.381 173.854C531.077 174.503 530.595 175.053 529.991 175.439C529.388 175.825 528.687 176.031 527.971 176.035L527.924 176.13ZM526.882 168.687C526.407 168.671 525.939 168.798 525.538 169.052C525.137 169.305 524.821 169.674 524.632 170.109C524.356 170.911 524.374 171.785 524.682 172.575C524.99 173.365 525.568 174.02 526.313 174.423C526.666 174.634 527.058 174.77 527.465 174.823C527.873 174.876 528.287 174.845 528.681 174.731C528.996 174.626 529.286 174.455 529.53 174.231C529.775 174.006 529.97 173.733 530.102 173.428C530.388 172.626 530.376 171.749 530.067 170.956C529.758 170.163 529.173 169.509 528.421 169.113C527.951 168.846 527.422 168.699 526.882 168.687Z" fill="white"/>
<path d="M537.87 181.796C537.089 181.796 536.322 181.592 535.644 181.203C534.609 180.663 533.809 179.76 533.398 178.666C532.987 177.573 532.994 176.365 533.418 175.277C533.625 174.813 533.925 174.396 534.3 174.054C534.675 173.711 535.116 173.45 535.597 173.285C536.171 173.115 536.775 173.064 537.37 173.138C537.965 173.211 538.538 173.407 539.054 173.712C540.084 174.251 540.88 175.151 541.291 176.239C541.701 177.327 541.697 178.529 541.28 179.615C541.08 180.087 540.779 180.509 540.398 180.853C540.018 181.197 539.567 181.454 539.078 181.606C538.69 181.741 538.281 181.806 537.87 181.796ZM536.828 174.352C536.546 174.35 536.265 174.398 535.999 174.494C535.684 174.6 535.395 174.77 535.15 174.995C534.905 175.22 534.711 175.493 534.578 175.798C534.292 176.599 534.305 177.477 534.614 178.27C534.923 179.062 535.507 179.717 536.26 180.113C536.615 180.318 537.007 180.451 537.413 180.504C537.82 180.557 538.232 180.528 538.628 180.421C538.943 180.315 539.232 180.145 539.477 179.92C539.722 179.695 539.917 179.422 540.049 179.117C540.325 178.315 540.307 177.441 539.999 176.651C539.691 175.861 539.113 175.206 538.367 174.803C537.898 174.531 537.37 174.377 536.828 174.352Z" fill="white"/>
<path d="M550.635 185.067C550.43 185.484 550.139 185.853 549.779 186.148C549.42 186.443 549.002 186.657 548.553 186.776C548.104 186.895 547.634 186.917 547.176 186.838C546.718 186.76 546.283 186.585 545.898 186.323C545.017 185.848 544.337 185.072 543.98 184.137C543.624 183.201 543.615 182.168 543.956 181.227C544.162 180.81 544.453 180.442 544.812 180.147C545.17 179.852 545.588 179.636 546.036 179.515C546.484 179.394 546.953 179.37 547.411 179.444C547.869 179.519 548.306 179.69 548.693 179.947C549.576 180.426 550.257 181.206 550.614 182.146C550.97 183.086 550.977 184.122 550.635 185.067Z" fill="white"/>
</g>
<defs>
<linearGradient id="paint0_linear_1_1975" x1="211.695" y1="203.984" x2="589" y2="203.984" gradientUnits="userSpaceOnUse">
<stop stop-color="#B6246E"/>
<stop offset="1" stop-color="#F9636B"/>
</linearGradient>
<linearGradient id="paint1_linear_1_1975" x1="285.726" y1="390.117" x2="497.61" y2="390.117" gradientUnits="userSpaceOnUse">
<stop stop-color="#F9636B"/>
<stop offset="0.32" stop-color="#B7256E"/>
<stop offset="1" stop-color="#B6246E"/>
</linearGradient>
<linearGradient id="paint2_linear_1_1975" x1="525.532" y1="366.886" x2="121.819" y2="388.416" gradientUnits="userSpaceOnUse">
<stop stop-color="#B6246E"/>
<stop offset="1" stop-color="#F9636B"/>
</linearGradient>
<clipPath id="clip0_1_1975">
<rect width="589" height="590" fill="white"/>
</clipPath>
</defs>
</svg>
